G75*
%MOIN*%
%OFA0B0*%
%FSLAX25Y25*%
%IPPOS*%
%LPD*%
%AMOC8*
5,1,8,0,0,1.08239X$1,22.5*
%
%ADD10C,0.00300*%
%ADD11C,0.00200*%
%ADD12C,0.00500*%
%ADD13C,0.00600*%
%ADD14C,0.00800*%
%ADD15C,0.03482*%
%ADD16C,0.00400*%
%ADD17C,0.00250*%
%ADD18C,0.00984*%
%ADD19C,0.00000*%
%ADD20C,0.00866*%
%ADD21C,0.00700*%
D10*
X0051619Y0032563D02*
X0051619Y0036267D01*
X0053471Y0036267D01*
X0054088Y0035649D01*
X0054088Y0034415D01*
X0053471Y0033798D01*
X0051619Y0033798D01*
X0055302Y0035032D02*
X0056537Y0036267D01*
X0056537Y0032563D01*
X0057771Y0032563D02*
X0055302Y0032563D01*
X0080973Y0032417D02*
X0081591Y0031800D01*
X0082825Y0031800D01*
X0083442Y0032417D01*
X0084657Y0031800D02*
X0087125Y0034268D01*
X0087125Y0034886D01*
X0086508Y0035503D01*
X0085274Y0035503D01*
X0084657Y0034886D01*
X0083442Y0034886D02*
X0082825Y0035503D01*
X0081591Y0035503D01*
X0080973Y0034886D01*
X0080973Y0032417D01*
X0084657Y0031800D02*
X0087125Y0031800D01*
X0110128Y0032737D02*
X0111362Y0032737D01*
X0110745Y0032737D02*
X0110745Y0036440D01*
X0110128Y0036440D02*
X0111362Y0036440D01*
X0112583Y0035823D02*
X0112583Y0033354D01*
X0113200Y0032737D01*
X0114435Y0032737D01*
X0115052Y0033354D01*
X0116266Y0032737D02*
X0118735Y0032737D01*
X0117501Y0032737D02*
X0117501Y0036440D01*
X0116266Y0035205D01*
X0115052Y0035823D02*
X0114435Y0036440D01*
X0113200Y0036440D01*
X0112583Y0035823D01*
X0109020Y0064851D02*
X0105317Y0064851D01*
X0105317Y0066702D01*
X0105934Y0067320D01*
X0107168Y0067320D01*
X0107786Y0066702D01*
X0107786Y0064851D01*
X0107786Y0066085D02*
X0109020Y0067320D01*
X0109020Y0068534D02*
X0109020Y0071003D01*
X0109020Y0069768D02*
X0105317Y0069768D01*
X0106551Y0068534D01*
X0104516Y0068497D02*
X0103899Y0067880D01*
X0104516Y0068497D02*
X0104516Y0069732D01*
X0103899Y0070349D01*
X0101430Y0070349D01*
X0100813Y0069732D01*
X0100813Y0068497D01*
X0101430Y0067880D01*
X0102047Y0067880D01*
X0102664Y0068497D01*
X0102664Y0070349D01*
X0105317Y0072834D02*
X0105317Y0074069D01*
X0105934Y0074686D01*
X0106551Y0074686D01*
X0107168Y0074069D01*
X0107786Y0074686D01*
X0108403Y0074686D01*
X0109020Y0074069D01*
X0109020Y0072834D01*
X0108403Y0072217D01*
X0107168Y0073451D02*
X0107168Y0074069D01*
X0105934Y0072217D02*
X0105317Y0072834D01*
X0103899Y0066666D02*
X0104516Y0066049D01*
X0104516Y0064814D01*
X0103899Y0064197D01*
X0101430Y0064197D01*
X0100813Y0064814D01*
X0100813Y0066049D01*
X0101430Y0066666D01*
X0081491Y0075110D02*
X0080874Y0074493D01*
X0079640Y0074493D01*
X0079023Y0075110D01*
X0077808Y0075110D02*
X0077191Y0074493D01*
X0075957Y0074493D01*
X0075339Y0075110D01*
X0075339Y0077578D01*
X0075957Y0078196D01*
X0077191Y0078196D01*
X0077808Y0077578D01*
X0079023Y0077578D02*
X0079640Y0078196D01*
X0080874Y0078196D01*
X0081491Y0077578D01*
X0081491Y0076961D01*
X0080874Y0076344D01*
X0081491Y0075727D01*
X0081491Y0075110D01*
X0080874Y0076344D02*
X0080257Y0076344D01*
X0065350Y0079480D02*
X0064732Y0078863D01*
X0063498Y0078863D01*
X0062881Y0079480D01*
X0061667Y0079480D02*
X0061049Y0078863D01*
X0059815Y0078863D01*
X0059198Y0079480D01*
X0059198Y0081949D01*
X0059815Y0082566D01*
X0061049Y0082566D01*
X0061667Y0081949D01*
X0062881Y0082566D02*
X0062881Y0080714D01*
X0064115Y0081331D01*
X0064732Y0081331D01*
X0065350Y0080714D01*
X0065350Y0079480D01*
X0065350Y0082566D02*
X0062881Y0082566D01*
X0085459Y0096551D02*
X0085459Y0098403D01*
X0086076Y0099020D01*
X0088544Y0099020D01*
X0089162Y0098403D01*
X0089162Y0096551D01*
X0085459Y0096551D01*
X0086693Y0100235D02*
X0085459Y0101469D01*
X0089162Y0101469D01*
X0089162Y0100235D02*
X0089162Y0102703D01*
X0095868Y0101574D02*
X0096485Y0100339D01*
X0097720Y0099105D01*
X0097720Y0100956D01*
X0098337Y0101574D01*
X0098954Y0101574D01*
X0099571Y0100956D01*
X0099571Y0099722D01*
X0098954Y0099105D01*
X0097720Y0099105D01*
X0098954Y0097890D02*
X0099571Y0097273D01*
X0099571Y0096039D01*
X0098954Y0095422D01*
X0096485Y0095422D01*
X0095868Y0096039D01*
X0095868Y0097273D01*
X0096485Y0097890D01*
X0087165Y0122744D02*
X0084696Y0122744D01*
X0087165Y0125213D01*
X0087165Y0125830D01*
X0086548Y0126448D01*
X0085313Y0126448D01*
X0084696Y0125830D01*
X0083482Y0125830D02*
X0083482Y0124596D01*
X0082864Y0123979D01*
X0081013Y0123979D01*
X0081013Y0122744D02*
X0081013Y0126448D01*
X0082864Y0126448D01*
X0083482Y0125830D01*
X0075196Y0133650D02*
X0072727Y0133650D01*
X0073962Y0133650D02*
X0073962Y0137353D01*
X0072727Y0136119D01*
X0071513Y0136736D02*
X0071513Y0137353D01*
X0071513Y0136736D02*
X0070279Y0135502D01*
X0070279Y0133650D01*
X0070279Y0135502D02*
X0069044Y0136736D01*
X0069044Y0137353D01*
X0058403Y0183611D02*
X0055934Y0183611D01*
X0055317Y0184228D01*
X0055317Y0185462D01*
X0055934Y0186079D01*
X0055317Y0187294D02*
X0055317Y0189763D01*
X0055934Y0189763D01*
X0058403Y0187294D01*
X0059020Y0187294D01*
X0058403Y0186079D02*
X0059020Y0185462D01*
X0059020Y0184228D01*
X0058403Y0183611D01*
X0064793Y0192603D02*
X0066028Y0192603D01*
X0066645Y0193220D01*
X0067859Y0192603D02*
X0070328Y0192603D01*
X0069094Y0192603D02*
X0069094Y0196306D01*
X0067859Y0195072D01*
X0066645Y0195689D02*
X0066028Y0196306D01*
X0064793Y0196306D01*
X0064176Y0195689D01*
X0064176Y0193220D01*
X0064793Y0192603D01*
X0071542Y0193220D02*
X0072159Y0192603D01*
X0073394Y0192603D01*
X0074011Y0193220D01*
X0074011Y0195689D01*
X0071542Y0193220D01*
X0071542Y0195689D01*
X0072159Y0196306D01*
X0073394Y0196306D01*
X0074011Y0195689D01*
X0078047Y0209359D02*
X0078665Y0209359D01*
X0079282Y0209976D01*
X0079282Y0213062D01*
X0078665Y0213062D02*
X0079899Y0213062D01*
X0081113Y0211827D02*
X0082348Y0213062D01*
X0082348Y0209359D01*
X0083582Y0209359D02*
X0081113Y0209359D01*
X0078047Y0209359D02*
X0077430Y0209976D01*
X0077308Y0215831D02*
X0079777Y0218300D01*
X0079777Y0218917D01*
X0079160Y0219534D01*
X0077925Y0219534D01*
X0077308Y0218917D01*
X0076094Y0218917D02*
X0075476Y0219534D01*
X0074242Y0219534D01*
X0073625Y0218917D01*
X0073625Y0216448D01*
X0074242Y0215831D01*
X0075476Y0215831D01*
X0076094Y0216448D01*
X0077308Y0215831D02*
X0079777Y0215831D01*
X0080991Y0215831D02*
X0083460Y0215831D01*
X0082226Y0215831D02*
X0082226Y0219534D01*
X0080991Y0218300D01*
X0086591Y0238611D02*
X0087825Y0238611D01*
X0088442Y0239228D01*
X0089657Y0239228D02*
X0090274Y0238611D01*
X0091508Y0238611D01*
X0092125Y0239228D01*
X0092125Y0241697D01*
X0091508Y0242314D01*
X0090274Y0242314D01*
X0089657Y0241697D01*
X0089657Y0239228D01*
X0088442Y0241697D02*
X0087825Y0242314D01*
X0086591Y0242314D01*
X0085973Y0241697D01*
X0085973Y0239228D01*
X0086591Y0238611D01*
X0085973Y0244611D02*
X0085973Y0248314D01*
X0087825Y0248314D01*
X0088442Y0247697D01*
X0088442Y0246462D01*
X0087825Y0245845D01*
X0085973Y0245845D01*
X0087208Y0245845D02*
X0088442Y0244611D01*
X0089657Y0245228D02*
X0090274Y0244611D01*
X0091508Y0244611D01*
X0092125Y0245228D01*
X0092125Y0247697D01*
X0091508Y0248314D01*
X0090274Y0248314D01*
X0089657Y0247697D01*
X0089657Y0245228D01*
X0093340Y0244611D02*
X0093340Y0248314D01*
X0095191Y0248314D01*
X0095809Y0247697D01*
X0095809Y0247079D01*
X0095191Y0246462D01*
X0093340Y0246462D01*
X0095191Y0246462D02*
X0095809Y0245845D01*
X0095809Y0245228D01*
X0095191Y0244611D01*
X0093340Y0244611D01*
X0093340Y0242314D02*
X0095809Y0238611D01*
X0095809Y0242314D01*
X0097023Y0242314D02*
X0099492Y0242314D01*
X0100706Y0242314D02*
X0102558Y0242314D01*
X0103175Y0241697D01*
X0103175Y0240462D01*
X0102558Y0239845D01*
X0100706Y0239845D01*
X0100706Y0238611D02*
X0100706Y0242314D01*
X0098257Y0242314D02*
X0098257Y0238611D01*
X0101940Y0239845D02*
X0103175Y0238611D01*
X0104389Y0239228D02*
X0104389Y0241697D01*
X0105006Y0242314D01*
X0106241Y0242314D01*
X0106858Y0241697D01*
X0106858Y0239228D01*
X0106241Y0238611D01*
X0105006Y0238611D01*
X0104389Y0239228D01*
X0108072Y0238611D02*
X0108072Y0242314D01*
X0108072Y0244611D02*
X0108072Y0247079D01*
X0109307Y0248314D01*
X0110541Y0247079D01*
X0110541Y0244611D01*
X0111755Y0244611D02*
X0111755Y0248314D01*
X0113607Y0248314D01*
X0114224Y0247697D01*
X0114224Y0246462D01*
X0113607Y0245845D01*
X0111755Y0245845D01*
X0112990Y0245845D02*
X0114224Y0244611D01*
X0115439Y0244611D02*
X0115439Y0248314D01*
X0116673Y0247079D01*
X0117907Y0248314D01*
X0117907Y0244611D01*
X0117907Y0242314D02*
X0115439Y0242314D01*
X0115439Y0238611D01*
X0117907Y0238611D01*
X0119122Y0238611D02*
X0119122Y0242314D01*
X0120973Y0242314D01*
X0121591Y0241697D01*
X0121591Y0240462D01*
X0120973Y0239845D01*
X0119122Y0239845D01*
X0120356Y0239845D02*
X0121591Y0238611D01*
X0116673Y0240462D02*
X0115439Y0240462D01*
X0114224Y0238611D02*
X0111755Y0238611D01*
X0111755Y0242314D01*
X0110541Y0238611D02*
X0108072Y0238611D01*
X0101940Y0244611D02*
X0101940Y0248314D01*
X0100706Y0248314D02*
X0103175Y0248314D01*
X0099492Y0247697D02*
X0099492Y0245228D01*
X0098874Y0244611D01*
X0097640Y0244611D01*
X0097023Y0245228D01*
X0097023Y0247697D01*
X0097640Y0248314D01*
X0098874Y0248314D01*
X0099492Y0247697D01*
X0093340Y0242314D02*
X0093340Y0238611D01*
X0108072Y0246462D02*
X0110541Y0246462D01*
X0129947Y0240034D02*
X0130564Y0240034D01*
X0133033Y0237565D01*
X0133650Y0237565D01*
X0133650Y0236351D02*
X0133650Y0233882D01*
X0133650Y0235117D02*
X0129947Y0235117D01*
X0131181Y0233882D01*
X0130564Y0232668D02*
X0129947Y0232051D01*
X0129947Y0230816D01*
X0130564Y0230199D01*
X0133033Y0230199D01*
X0133650Y0230816D01*
X0133650Y0232051D01*
X0133033Y0232668D01*
X0129947Y0237565D02*
X0129947Y0240034D01*
X0132703Y0224680D02*
X0132703Y0222211D01*
X0134554Y0222211D01*
X0133937Y0223445D01*
X0133937Y0224063D01*
X0134554Y0224680D01*
X0135789Y0224680D01*
X0136406Y0224063D01*
X0136406Y0222828D01*
X0135789Y0222211D01*
X0136406Y0220997D02*
X0136406Y0218528D01*
X0136406Y0219762D02*
X0132703Y0219762D01*
X0133937Y0218528D01*
X0133320Y0217313D02*
X0132703Y0216696D01*
X0132703Y0215462D01*
X0133320Y0214845D01*
X0135789Y0214845D01*
X0136406Y0215462D01*
X0136406Y0216696D01*
X0135789Y0217313D01*
X0129162Y0208904D02*
X0127927Y0208904D01*
X0127310Y0208287D01*
X0127310Y0205818D01*
X0129779Y0208287D01*
X0129779Y0205818D01*
X0129162Y0205201D01*
X0127927Y0205201D01*
X0127310Y0205818D01*
X0126096Y0205201D02*
X0123627Y0205201D01*
X0126096Y0207670D01*
X0126096Y0208287D01*
X0125478Y0208904D01*
X0124244Y0208904D01*
X0123627Y0208287D01*
X0122413Y0208287D02*
X0122413Y0207053D01*
X0121795Y0206436D01*
X0119944Y0206436D01*
X0121178Y0206436D02*
X0122413Y0205201D01*
X0119944Y0205201D02*
X0119944Y0208904D01*
X0121795Y0208904D01*
X0122413Y0208287D01*
X0123363Y0211957D02*
X0120895Y0211957D01*
X0120277Y0212574D01*
X0120277Y0213809D01*
X0120895Y0214426D01*
X0120895Y0215640D02*
X0120277Y0216257D01*
X0120277Y0217492D01*
X0120895Y0218109D01*
X0121512Y0218109D01*
X0123981Y0215640D01*
X0123981Y0218109D01*
X0123363Y0219323D02*
X0123981Y0219941D01*
X0123981Y0221175D01*
X0123363Y0221792D01*
X0120895Y0221792D01*
X0123363Y0219323D01*
X0120895Y0219323D01*
X0120277Y0219941D01*
X0120277Y0221175D01*
X0120895Y0221792D01*
X0123363Y0214426D02*
X0123981Y0213809D01*
X0123981Y0212574D01*
X0123363Y0211957D01*
X0129162Y0208904D02*
X0129779Y0208287D01*
X0129669Y0196700D02*
X0127818Y0196700D01*
X0127818Y0192996D01*
X0127818Y0194231D02*
X0129669Y0194231D01*
X0130287Y0194848D01*
X0130287Y0196082D01*
X0129669Y0196700D01*
X0131501Y0195465D02*
X0132735Y0196700D01*
X0132735Y0192996D01*
X0131501Y0192996D02*
X0133970Y0192996D01*
X0135184Y0193614D02*
X0135184Y0194231D01*
X0135801Y0194848D01*
X0137036Y0194848D01*
X0137653Y0194231D01*
X0137653Y0193614D01*
X0137036Y0192996D01*
X0135801Y0192996D01*
X0135184Y0193614D01*
X0135801Y0194848D02*
X0135184Y0195465D01*
X0135184Y0196082D01*
X0135801Y0196700D01*
X0137036Y0196700D01*
X0137653Y0196082D01*
X0137653Y0195465D01*
X0137036Y0194848D01*
X0136733Y0188259D02*
X0136115Y0187641D01*
X0136115Y0187024D01*
X0136733Y0186407D01*
X0138584Y0186407D01*
X0138584Y0185173D02*
X0138584Y0187641D01*
X0137967Y0188259D01*
X0136733Y0188259D01*
X0136115Y0185173D02*
X0136733Y0184556D01*
X0137967Y0184556D01*
X0138584Y0185173D01*
X0134901Y0184556D02*
X0132432Y0184556D01*
X0131218Y0184556D02*
X0129983Y0185790D01*
X0130601Y0185790D02*
X0128749Y0185790D01*
X0128749Y0184556D02*
X0128749Y0188259D01*
X0130601Y0188259D01*
X0131218Y0187641D01*
X0131218Y0186407D01*
X0130601Y0185790D01*
X0132432Y0187024D02*
X0133667Y0188259D01*
X0133667Y0184556D01*
X0133699Y0176054D02*
X0134933Y0176054D01*
X0135551Y0175437D01*
X0135551Y0174820D01*
X0134933Y0174202D01*
X0133699Y0174202D01*
X0133082Y0174820D01*
X0133082Y0175437D01*
X0133699Y0176054D01*
X0133699Y0174202D02*
X0133082Y0173585D01*
X0133082Y0172968D01*
X0133699Y0172351D01*
X0134933Y0172351D01*
X0135551Y0172968D01*
X0135551Y0173585D01*
X0134933Y0174202D01*
X0131867Y0172968D02*
X0131250Y0172351D01*
X0130016Y0172351D01*
X0129399Y0172968D01*
X0129399Y0175437D01*
X0130016Y0176054D01*
X0131250Y0176054D01*
X0131867Y0175437D01*
X0132481Y0158904D02*
X0131247Y0157670D01*
X0130033Y0158287D02*
X0130033Y0157053D01*
X0129415Y0156436D01*
X0127564Y0156436D01*
X0128798Y0156436D02*
X0130033Y0155201D01*
X0131247Y0155201D02*
X0133716Y0155201D01*
X0132481Y0155201D02*
X0132481Y0158904D01*
X0130033Y0158287D02*
X0129415Y0158904D01*
X0127564Y0158904D01*
X0127564Y0155201D01*
X0135969Y0155858D02*
X0136587Y0155241D01*
X0137821Y0155241D01*
X0138438Y0155858D01*
X0139653Y0155241D02*
X0142121Y0155241D01*
X0140887Y0155241D02*
X0140887Y0158944D01*
X0139653Y0157709D01*
X0138438Y0158327D02*
X0137821Y0158944D01*
X0136587Y0158944D01*
X0135969Y0158327D01*
X0135969Y0155858D01*
X0136193Y0137645D02*
X0135576Y0137027D01*
X0135576Y0134559D01*
X0136193Y0133941D01*
X0137427Y0133941D01*
X0138044Y0134559D01*
X0139259Y0135793D02*
X0141110Y0137645D01*
X0141110Y0133941D01*
X0141728Y0135793D02*
X0139259Y0135793D01*
X0138044Y0137027D02*
X0137427Y0137645D01*
X0136193Y0137645D01*
X0137123Y0129991D02*
X0138975Y0129991D01*
X0139592Y0129374D01*
X0139592Y0126905D01*
X0138975Y0126288D01*
X0137123Y0126288D01*
X0137123Y0129991D01*
X0140806Y0129374D02*
X0141423Y0129991D01*
X0142658Y0129991D01*
X0143275Y0129374D01*
X0143275Y0128757D01*
X0140806Y0126288D01*
X0143275Y0126288D01*
X0127443Y0126053D02*
X0124307Y0129189D01*
X0124307Y0127621D02*
X0127443Y0127621D01*
X0127443Y0129189D02*
X0124307Y0126053D01*
X0125875Y0126053D02*
X0125875Y0129189D01*
X0125083Y0103786D02*
X0123848Y0103786D01*
X0123231Y0103169D01*
X0123231Y0100700D01*
X0123848Y0100083D01*
X0125083Y0100083D01*
X0125700Y0100700D01*
X0126914Y0100083D02*
X0129383Y0102552D01*
X0129383Y0103169D01*
X0128766Y0103786D01*
X0127531Y0103786D01*
X0126914Y0103169D01*
X0125700Y0103169D02*
X0125083Y0103786D01*
X0126914Y0100083D02*
X0129383Y0100083D01*
X0130597Y0100700D02*
X0131215Y0100083D01*
X0132449Y0100083D01*
X0133066Y0100700D01*
X0133066Y0101317D01*
X0132449Y0101935D01*
X0131832Y0101935D01*
X0132449Y0101935D02*
X0133066Y0102552D01*
X0133066Y0103169D01*
X0132449Y0103786D01*
X0131215Y0103786D01*
X0130597Y0103169D01*
X0142942Y0095429D02*
X0142942Y0092960D01*
X0143559Y0092343D01*
X0144794Y0092343D01*
X0145411Y0092960D01*
X0146625Y0092343D02*
X0149094Y0092343D01*
X0150308Y0092343D02*
X0152777Y0092343D01*
X0151543Y0092343D02*
X0151543Y0096046D01*
X0150308Y0094812D01*
X0147860Y0096046D02*
X0147860Y0092343D01*
X0146625Y0094812D02*
X0147860Y0096046D01*
X0145411Y0095429D02*
X0144794Y0096046D01*
X0143559Y0096046D01*
X0142942Y0095429D01*
X0141904Y0074479D02*
X0140670Y0074479D01*
X0140052Y0073862D01*
X0141904Y0074479D02*
X0142521Y0073862D01*
X0142521Y0073245D01*
X0140052Y0070776D01*
X0142521Y0070776D01*
X0143572Y0070936D02*
X0145423Y0070936D01*
X0146041Y0070319D01*
X0146041Y0069084D01*
X0145423Y0068467D01*
X0143572Y0068467D01*
X0144806Y0068467D02*
X0146041Y0067233D01*
X0147255Y0067233D02*
X0149724Y0067233D01*
X0148489Y0067233D02*
X0148489Y0070936D01*
X0147255Y0069701D01*
X0150938Y0070319D02*
X0150938Y0067850D01*
X0153407Y0070319D01*
X0153407Y0067850D01*
X0152790Y0067233D01*
X0151555Y0067233D01*
X0150938Y0067850D01*
X0150938Y0070319D02*
X0151555Y0070936D01*
X0152790Y0070936D01*
X0153407Y0070319D01*
X0143572Y0070936D02*
X0143572Y0067233D01*
X0138838Y0070776D02*
X0136369Y0070776D01*
X0135155Y0070776D02*
X0133920Y0072010D01*
X0134538Y0072010D02*
X0132686Y0072010D01*
X0132686Y0070776D02*
X0132686Y0074479D01*
X0134538Y0074479D01*
X0135155Y0073862D01*
X0135155Y0072628D01*
X0134538Y0072010D01*
X0136369Y0073245D02*
X0137604Y0074479D01*
X0137604Y0070776D01*
X0147253Y0058731D02*
X0149105Y0058731D01*
X0149722Y0058114D01*
X0149722Y0056880D01*
X0149105Y0056262D01*
X0147253Y0056262D01*
X0147253Y0055028D02*
X0147253Y0058731D01*
X0148487Y0056262D02*
X0149722Y0055028D01*
X0150936Y0055028D02*
X0153405Y0055028D01*
X0154619Y0055028D02*
X0157088Y0055028D01*
X0155854Y0055028D02*
X0155854Y0058731D01*
X0154619Y0057497D01*
X0152171Y0058731D02*
X0152171Y0055028D01*
X0150936Y0057497D02*
X0152171Y0058731D01*
X0201052Y0055803D02*
X0201669Y0055185D01*
X0202287Y0055185D01*
X0202904Y0055803D01*
X0202904Y0058889D01*
X0202287Y0058889D02*
X0203521Y0058889D01*
X0204735Y0058271D02*
X0205353Y0058889D01*
X0206587Y0058889D01*
X0207204Y0058271D01*
X0207204Y0057654D01*
X0204735Y0055185D01*
X0207204Y0055185D01*
X0189729Y0133355D02*
X0186025Y0133355D01*
X0186025Y0135206D01*
X0186643Y0135823D01*
X0187877Y0135823D01*
X0188494Y0135206D01*
X0188494Y0133355D01*
X0188494Y0134589D02*
X0189729Y0135823D01*
X0189111Y0137038D02*
X0189729Y0137655D01*
X0189729Y0138889D01*
X0189111Y0139507D01*
X0188494Y0139507D01*
X0187877Y0138889D01*
X0187877Y0137038D01*
X0189111Y0137038D01*
X0187877Y0137038D02*
X0186643Y0138272D01*
X0186025Y0139507D01*
X0212392Y0172603D02*
X0211774Y0173220D01*
X0211774Y0175689D01*
X0212392Y0176306D01*
X0213626Y0176306D01*
X0214243Y0175689D01*
X0215458Y0175072D02*
X0216692Y0176306D01*
X0216692Y0172603D01*
X0215458Y0172603D02*
X0217926Y0172603D01*
X0219141Y0173220D02*
X0219141Y0173837D01*
X0219758Y0174454D01*
X0220992Y0174454D01*
X0221610Y0173837D01*
X0221610Y0173220D01*
X0220992Y0172603D01*
X0219758Y0172603D01*
X0219141Y0173220D01*
X0219758Y0174454D02*
X0219141Y0175072D01*
X0219141Y0175689D01*
X0219758Y0176306D01*
X0220992Y0176306D01*
X0221610Y0175689D01*
X0221610Y0175072D01*
X0220992Y0174454D01*
X0214243Y0173220D02*
X0213626Y0172603D01*
X0212392Y0172603D01*
X0206721Y0183154D02*
X0205486Y0183154D01*
X0204869Y0183771D01*
X0204869Y0185006D02*
X0206103Y0185623D01*
X0206721Y0185623D01*
X0207338Y0185006D01*
X0207338Y0183771D01*
X0206721Y0183154D01*
X0204869Y0185006D02*
X0204869Y0186857D01*
X0207338Y0186857D01*
X0203655Y0186240D02*
X0203655Y0185006D01*
X0203038Y0184388D01*
X0201186Y0184388D01*
X0201186Y0183154D02*
X0201186Y0186857D01*
X0203038Y0186857D01*
X0203655Y0186240D01*
X0202420Y0184388D02*
X0203655Y0183154D01*
X0203655Y0190241D02*
X0202420Y0191475D01*
X0203038Y0191475D02*
X0201186Y0191475D01*
X0201186Y0190241D02*
X0201186Y0193944D01*
X0203038Y0193944D01*
X0203655Y0193327D01*
X0203655Y0192092D01*
X0203038Y0191475D01*
X0204869Y0190858D02*
X0204869Y0190241D01*
X0204869Y0190858D02*
X0207338Y0193327D01*
X0207338Y0193944D01*
X0204869Y0193944D01*
X0205303Y0205792D02*
X0201600Y0205792D01*
X0201600Y0207643D01*
X0202217Y0208260D01*
X0203452Y0208260D01*
X0204069Y0207643D01*
X0204069Y0205792D01*
X0204069Y0207026D02*
X0205303Y0208260D01*
X0204686Y0209475D02*
X0205303Y0210092D01*
X0205303Y0211326D01*
X0204686Y0211944D01*
X0202217Y0211944D01*
X0201600Y0211326D01*
X0201600Y0210092D01*
X0202217Y0209475D01*
X0202835Y0209475D01*
X0203452Y0210092D01*
X0203452Y0211944D01*
X0203429Y0214256D02*
X0204046Y0214873D01*
X0203429Y0214256D02*
X0202195Y0214256D01*
X0201578Y0214873D01*
X0201578Y0217342D01*
X0202195Y0217959D01*
X0203429Y0217959D01*
X0204046Y0217342D01*
X0205261Y0216725D02*
X0206495Y0217959D01*
X0206495Y0214256D01*
X0205261Y0214256D02*
X0207730Y0214256D01*
X0208944Y0214873D02*
X0209561Y0214256D01*
X0210795Y0214256D01*
X0211413Y0214873D01*
X0211413Y0215491D01*
X0210795Y0216108D01*
X0210178Y0216108D01*
X0210795Y0216108D02*
X0211413Y0216725D01*
X0211413Y0217342D01*
X0210795Y0217959D01*
X0209561Y0217959D01*
X0208944Y0217342D01*
X0220895Y0217870D02*
X0220895Y0215401D01*
X0221512Y0214784D01*
X0222746Y0214784D01*
X0223364Y0215401D01*
X0224578Y0214784D02*
X0227047Y0214784D01*
X0225812Y0214784D02*
X0225812Y0218487D01*
X0224578Y0217253D01*
X0223364Y0217870D02*
X0222746Y0218487D01*
X0221512Y0218487D01*
X0220895Y0217870D01*
X0228261Y0216635D02*
X0230113Y0216635D01*
X0230730Y0216018D01*
X0230730Y0215401D01*
X0230113Y0214784D01*
X0228878Y0214784D01*
X0228261Y0215401D01*
X0228261Y0216635D01*
X0229495Y0217870D01*
X0230730Y0218487D01*
X0229883Y0207613D02*
X0229266Y0207613D01*
X0228649Y0206996D01*
X0228649Y0205144D01*
X0229883Y0205144D01*
X0230500Y0205761D01*
X0230500Y0206996D01*
X0229883Y0207613D01*
X0227414Y0206378D02*
X0228649Y0205144D01*
X0227414Y0206378D02*
X0226797Y0207613D01*
X0226797Y0202695D02*
X0230500Y0202695D01*
X0230500Y0201461D02*
X0230500Y0203930D01*
X0228031Y0201461D02*
X0226797Y0202695D01*
X0227414Y0200247D02*
X0226797Y0199629D01*
X0226797Y0197778D01*
X0230500Y0197778D01*
X0229266Y0197778D02*
X0229266Y0199629D01*
X0228649Y0200247D01*
X0227414Y0200247D01*
X0229266Y0199012D02*
X0230500Y0200247D01*
X0229768Y0237823D02*
X0226065Y0237823D01*
X0226065Y0239675D01*
X0226682Y0240292D01*
X0227916Y0240292D01*
X0228534Y0239675D01*
X0228534Y0237823D01*
X0228534Y0239058D02*
X0229768Y0240292D01*
X0229151Y0241506D02*
X0229768Y0242124D01*
X0229768Y0243358D01*
X0229151Y0243975D01*
X0228534Y0243975D01*
X0227916Y0243358D01*
X0227916Y0242741D01*
X0227916Y0243358D02*
X0227299Y0243975D01*
X0226682Y0243975D01*
X0226065Y0243358D01*
X0226065Y0242124D01*
X0226682Y0241506D01*
X0211019Y0249519D02*
X0210402Y0248902D01*
X0209167Y0248902D01*
X0208550Y0249519D01*
X0208550Y0250754D02*
X0209785Y0251371D01*
X0210402Y0251371D01*
X0211019Y0250754D01*
X0211019Y0249519D01*
X0208550Y0250754D02*
X0208550Y0252605D01*
X0211019Y0252605D01*
X0210486Y0254473D02*
X0210486Y0256324D01*
X0209869Y0256941D01*
X0208635Y0256941D01*
X0208018Y0256324D01*
X0208018Y0254473D01*
X0211721Y0254473D01*
X0210486Y0255707D02*
X0211721Y0256941D01*
X0211721Y0258156D02*
X0209252Y0260625D01*
X0208635Y0260625D01*
X0208018Y0260007D01*
X0208018Y0258773D01*
X0208635Y0258156D01*
X0211721Y0258156D02*
X0211721Y0260625D01*
X0206101Y0252605D02*
X0206101Y0248902D01*
X0204867Y0248902D02*
X0207336Y0248902D01*
X0204867Y0251371D02*
X0206101Y0252605D01*
X0203653Y0251988D02*
X0203653Y0250754D01*
X0203035Y0250136D01*
X0201184Y0250136D01*
X0201184Y0248902D02*
X0201184Y0252605D01*
X0203035Y0252605D01*
X0203653Y0251988D01*
X0202418Y0250136D02*
X0203653Y0248902D01*
X0194059Y0245584D02*
X0193442Y0246202D01*
X0190973Y0246202D01*
X0190356Y0245584D01*
X0190356Y0244350D01*
X0190973Y0243733D01*
X0191591Y0243733D01*
X0192208Y0244350D01*
X0192208Y0246202D01*
X0194059Y0245584D02*
X0194059Y0244350D01*
X0193442Y0243733D01*
X0194059Y0242518D02*
X0194059Y0240050D01*
X0194059Y0241284D02*
X0190356Y0241284D01*
X0191591Y0240050D01*
X0190973Y0238835D02*
X0190356Y0238218D01*
X0190356Y0236984D01*
X0190973Y0236367D01*
X0193442Y0236367D01*
X0194059Y0236984D01*
X0194059Y0238218D01*
X0193442Y0238835D01*
X0181338Y0243598D02*
X0180721Y0242981D01*
X0179486Y0242981D01*
X0178869Y0243598D01*
X0177655Y0243598D02*
X0177655Y0246684D01*
X0178869Y0246684D02*
X0178869Y0244832D01*
X0180104Y0245449D01*
X0180721Y0245449D01*
X0181338Y0244832D01*
X0181338Y0243598D01*
X0181338Y0246684D02*
X0178869Y0246684D01*
X0177655Y0243598D02*
X0177038Y0242981D01*
X0175803Y0242981D01*
X0175186Y0243598D01*
X0175186Y0246684D01*
X0165388Y0253847D02*
X0165388Y0257550D01*
X0163537Y0255698D01*
X0166005Y0255698D01*
X0162322Y0253847D02*
X0159853Y0253847D01*
X0158639Y0253847D02*
X0157405Y0255081D01*
X0158022Y0255081D02*
X0156170Y0255081D01*
X0156170Y0253847D02*
X0156170Y0257550D01*
X0158022Y0257550D01*
X0158639Y0256933D01*
X0158639Y0255698D01*
X0158022Y0255081D01*
X0159853Y0256316D02*
X0161088Y0257550D01*
X0161088Y0253847D01*
X0154910Y0252409D02*
X0151207Y0252409D01*
X0153058Y0250557D01*
X0153058Y0253026D01*
X0154910Y0249343D02*
X0154910Y0246874D01*
X0154910Y0248109D02*
X0151207Y0248109D01*
X0152441Y0246874D01*
X0151824Y0245660D02*
X0151207Y0245043D01*
X0151207Y0243808D01*
X0151824Y0243191D01*
X0154293Y0243191D01*
X0154910Y0243808D01*
X0154910Y0245043D01*
X0154293Y0245660D01*
X0148217Y0245043D02*
X0147600Y0245660D01*
X0148217Y0245043D02*
X0148217Y0243808D01*
X0147600Y0243191D01*
X0145131Y0243191D01*
X0144514Y0243808D01*
X0144514Y0245043D01*
X0145131Y0245660D01*
X0145131Y0246874D02*
X0144514Y0247491D01*
X0144514Y0248726D01*
X0145131Y0249343D01*
X0145748Y0249343D01*
X0148217Y0246874D01*
X0148217Y0249343D01*
X0148217Y0250557D02*
X0145748Y0253026D01*
X0145131Y0253026D01*
X0144514Y0252409D01*
X0144514Y0251175D01*
X0145131Y0250557D01*
X0148217Y0250557D02*
X0148217Y0253026D01*
X0148564Y0275225D02*
X0146096Y0275225D01*
X0146096Y0278928D01*
X0148564Y0278928D01*
X0149779Y0278928D02*
X0149779Y0275225D01*
X0149779Y0276459D02*
X0151630Y0276459D01*
X0152248Y0277076D01*
X0152248Y0278311D01*
X0151630Y0278928D01*
X0149779Y0278928D01*
X0147330Y0277076D02*
X0146096Y0277076D01*
X0144881Y0278928D02*
X0142413Y0278928D01*
X0143647Y0278928D02*
X0143647Y0275225D01*
X0141198Y0275842D02*
X0141198Y0276459D01*
X0140581Y0277076D01*
X0139347Y0277076D01*
X0138729Y0277694D01*
X0138729Y0278311D01*
X0139347Y0278928D01*
X0140581Y0278928D01*
X0141198Y0278311D01*
X0141198Y0275842D02*
X0140581Y0275225D01*
X0139347Y0275225D01*
X0138729Y0275842D01*
X0153462Y0275225D02*
X0153462Y0278928D01*
X0155314Y0278928D01*
X0155931Y0278311D01*
X0155931Y0277076D01*
X0155314Y0276459D01*
X0153462Y0276459D01*
X0157145Y0277076D02*
X0158380Y0277076D01*
X0159614Y0275225D02*
X0157145Y0275225D01*
X0157145Y0278928D01*
X0159614Y0278928D01*
X0160828Y0278928D02*
X0162680Y0278928D01*
X0163297Y0278311D01*
X0163297Y0277076D01*
X0162680Y0276459D01*
X0160828Y0276459D01*
X0160828Y0275225D02*
X0160828Y0278928D01*
X0162063Y0276459D02*
X0163297Y0275225D01*
X0160988Y0225335D02*
X0160988Y0222867D01*
X0158520Y0225335D01*
X0157902Y0225335D01*
X0157285Y0224718D01*
X0157285Y0223484D01*
X0157902Y0222867D01*
X0157285Y0220418D02*
X0160988Y0220418D01*
X0160988Y0219184D02*
X0160988Y0221652D01*
X0158520Y0219184D02*
X0157285Y0220418D01*
X0157902Y0217969D02*
X0157285Y0217352D01*
X0157285Y0216118D01*
X0157902Y0215500D01*
X0160371Y0215500D01*
X0160988Y0216118D01*
X0160988Y0217352D01*
X0160371Y0217969D01*
X0149067Y0207078D02*
X0147216Y0205226D01*
X0149684Y0205226D01*
X0149067Y0203374D02*
X0149067Y0207078D01*
X0146001Y0207078D02*
X0146001Y0203992D01*
X0145384Y0203374D01*
X0144150Y0203374D01*
X0143533Y0203992D01*
X0143533Y0207078D01*
X0130287Y0192996D02*
X0129052Y0194231D01*
X0178745Y0207563D02*
X0178745Y0211267D01*
X0180597Y0211267D01*
X0181214Y0210649D01*
X0181214Y0209415D01*
X0180597Y0208798D01*
X0178745Y0208798D01*
X0179979Y0208798D02*
X0181214Y0207563D01*
X0182428Y0208181D02*
X0182428Y0208798D01*
X0183045Y0209415D01*
X0184280Y0209415D01*
X0184897Y0208798D01*
X0184897Y0208181D01*
X0184280Y0207563D01*
X0183045Y0207563D01*
X0182428Y0208181D01*
X0183045Y0209415D02*
X0182428Y0210032D01*
X0182428Y0210649D01*
X0183045Y0211267D01*
X0184280Y0211267D01*
X0184897Y0210649D01*
X0184897Y0210032D01*
X0184280Y0209415D01*
X0212603Y0269374D02*
X0212603Y0273078D01*
X0214455Y0273078D01*
X0215072Y0272460D01*
X0215072Y0271226D01*
X0214455Y0270609D01*
X0212603Y0270609D01*
X0213838Y0270609D02*
X0215072Y0269374D01*
X0216286Y0271226D02*
X0218755Y0271226D01*
X0218138Y0269374D02*
X0218138Y0273078D01*
X0216286Y0271226D01*
X0213147Y0274316D02*
X0210011Y0277452D01*
X0210011Y0275884D02*
X0213147Y0275884D01*
X0213147Y0277452D02*
X0210011Y0274316D01*
X0211579Y0274316D02*
X0211579Y0277452D01*
X0107519Y0277221D02*
X0106902Y0276604D01*
X0107519Y0275987D01*
X0107519Y0275370D01*
X0106902Y0274752D01*
X0105668Y0274752D01*
X0105050Y0275370D01*
X0103836Y0275370D02*
X0103219Y0274752D01*
X0101984Y0274752D01*
X0101367Y0275370D01*
X0101984Y0276604D02*
X0103219Y0276604D01*
X0103836Y0275987D01*
X0103836Y0275370D01*
X0101984Y0276604D02*
X0101367Y0277221D01*
X0101367Y0277838D01*
X0101984Y0278456D01*
X0103219Y0278456D01*
X0103836Y0277838D01*
X0105050Y0277838D02*
X0105668Y0278456D01*
X0106902Y0278456D01*
X0107519Y0277838D01*
X0107519Y0277221D01*
X0106902Y0276604D02*
X0106285Y0276604D01*
X0066954Y0255306D02*
X0064486Y0255306D01*
X0063271Y0255306D02*
X0060802Y0255306D01*
X0060802Y0251603D01*
X0063271Y0251603D01*
X0062037Y0253454D02*
X0060802Y0253454D01*
X0059588Y0252837D02*
X0059588Y0252220D01*
X0058971Y0251603D01*
X0057736Y0251603D01*
X0057119Y0252220D01*
X0055905Y0251603D02*
X0053436Y0251603D01*
X0053436Y0255306D01*
X0055905Y0255306D01*
X0057119Y0254689D02*
X0057736Y0255306D01*
X0058971Y0255306D01*
X0059588Y0254689D01*
X0058971Y0253454D02*
X0059588Y0252837D01*
X0058971Y0253454D02*
X0057736Y0253454D01*
X0057119Y0254072D01*
X0057119Y0254689D01*
X0054671Y0253454D02*
X0053436Y0253454D01*
X0052222Y0253454D02*
X0051605Y0252837D01*
X0049753Y0252837D01*
X0049753Y0251603D02*
X0049753Y0255306D01*
X0051605Y0255306D01*
X0052222Y0254689D01*
X0052222Y0253454D01*
X0050987Y0252837D02*
X0052222Y0251603D01*
X0065720Y0251603D02*
X0065720Y0255306D01*
X0060245Y0221054D02*
X0060862Y0220437D01*
X0060862Y0219202D01*
X0060245Y0218585D01*
X0058394Y0218585D01*
X0057179Y0218585D02*
X0057179Y0217968D01*
X0056562Y0217351D01*
X0055328Y0217351D01*
X0054710Y0217968D01*
X0053496Y0217968D02*
X0052879Y0217351D01*
X0051645Y0217351D01*
X0051027Y0217968D01*
X0051027Y0220437D01*
X0051645Y0221054D01*
X0052879Y0221054D01*
X0053496Y0220437D01*
X0054710Y0220437D02*
X0054710Y0219820D01*
X0055328Y0219202D01*
X0056562Y0219202D01*
X0057179Y0218585D01*
X0058394Y0217351D02*
X0058394Y0221054D01*
X0060245Y0221054D01*
X0057179Y0220437D02*
X0056562Y0221054D01*
X0055328Y0221054D01*
X0054710Y0220437D01*
X0049806Y0221054D02*
X0048572Y0221054D01*
X0049189Y0221054D02*
X0049189Y0217351D01*
X0048572Y0217351D02*
X0049806Y0217351D01*
D11*
X0085923Y0233443D02*
X0087024Y0233443D01*
X0087391Y0233809D01*
X0087391Y0234176D01*
X0087024Y0234543D01*
X0085923Y0234543D01*
X0085923Y0233443D02*
X0085923Y0235644D01*
X0087024Y0235644D01*
X0087391Y0235277D01*
X0087391Y0234910D01*
X0087024Y0234543D01*
X0088133Y0235277D02*
X0088867Y0234543D01*
X0088867Y0233443D01*
X0088867Y0234543D02*
X0089601Y0235277D01*
X0089601Y0235644D01*
X0088133Y0235644D02*
X0088133Y0235277D01*
X0092553Y0235644D02*
X0092553Y0233443D01*
X0093654Y0233443D01*
X0094021Y0233809D01*
X0094021Y0235277D01*
X0093654Y0235644D01*
X0092553Y0235644D01*
X0094763Y0235644D02*
X0094763Y0233443D01*
X0096231Y0233443D01*
X0096973Y0234176D02*
X0097707Y0233443D01*
X0098441Y0234176D01*
X0098441Y0235644D01*
X0099183Y0235277D02*
X0099183Y0233809D01*
X0099550Y0233443D01*
X0100284Y0233443D01*
X0100651Y0233809D01*
X0100651Y0235277D01*
X0100284Y0235644D01*
X0099550Y0235644D01*
X0099183Y0235277D01*
X0101393Y0235644D02*
X0102861Y0233443D01*
X0102861Y0235644D01*
X0101393Y0235644D02*
X0101393Y0233443D01*
X0105812Y0233809D02*
X0105812Y0235277D01*
X0106179Y0235644D01*
X0106913Y0235644D01*
X0107280Y0235277D01*
X0108022Y0235277D02*
X0108022Y0233809D01*
X0108389Y0233443D01*
X0109123Y0233443D01*
X0109490Y0233809D01*
X0109490Y0235277D01*
X0109123Y0235644D01*
X0108389Y0235644D01*
X0108022Y0235277D01*
X0107280Y0233809D02*
X0106913Y0233443D01*
X0106179Y0233443D01*
X0105812Y0233809D01*
X0110232Y0233443D02*
X0110232Y0235644D01*
X0111333Y0235644D01*
X0111700Y0235277D01*
X0111700Y0234543D01*
X0111333Y0234176D01*
X0110232Y0234176D01*
X0112442Y0234543D02*
X0113176Y0234543D01*
X0112442Y0233443D02*
X0112442Y0235644D01*
X0113910Y0235644D01*
X0114652Y0235644D02*
X0114652Y0233443D01*
X0116120Y0233443D01*
X0116862Y0233443D02*
X0116862Y0234910D01*
X0117596Y0235644D01*
X0118330Y0234910D01*
X0118330Y0233443D01*
X0119072Y0233443D02*
X0119072Y0235644D01*
X0120540Y0233443D01*
X0120540Y0235644D01*
X0121282Y0235644D02*
X0121282Y0233443D01*
X0122382Y0233443D01*
X0122749Y0233809D01*
X0122749Y0235277D01*
X0122382Y0235644D01*
X0121282Y0235644D01*
X0118330Y0234543D02*
X0116862Y0234543D01*
X0113910Y0233443D02*
X0112442Y0233443D01*
X0096973Y0234176D02*
X0096973Y0235644D01*
X0096231Y0235644D02*
X0094763Y0235644D01*
X0094763Y0234543D02*
X0095497Y0234543D01*
X0117817Y0056080D02*
X0119085Y0056080D01*
X0118451Y0056080D02*
X0118451Y0052911D01*
X0117817Y0052277D01*
X0117183Y0052277D01*
X0116549Y0052911D01*
X0120232Y0054179D02*
X0122768Y0054179D01*
X0122134Y0056080D02*
X0120232Y0054179D01*
X0122134Y0052277D02*
X0122134Y0056080D01*
D12*
X0122201Y0050272D02*
X0122201Y0045272D01*
X0122201Y0030272D02*
X0202201Y0030272D01*
X0208383Y0032366D02*
X0208383Y0056366D01*
X0228383Y0056366D01*
X0228383Y0032366D01*
X0225383Y0032366D01*
X0225383Y0036366D01*
X0221383Y0036366D01*
X0221383Y0032366D01*
X0215383Y0032366D01*
X0215383Y0036366D01*
X0211383Y0036366D01*
X0211383Y0032366D01*
X0208383Y0032366D01*
X0211383Y0032366D02*
X0215383Y0032366D01*
X0221383Y0032366D02*
X0225383Y0032366D01*
X0227820Y0057366D02*
X0227820Y0062366D01*
X0224800Y0060705D02*
X0224800Y0065547D01*
X0224800Y0060705D02*
X0157083Y0060705D01*
X0157083Y0065547D01*
X0135737Y0092154D02*
X0135737Y0098154D01*
X0121737Y0098154D02*
X0121737Y0092154D01*
X0108902Y0093886D02*
X0102902Y0093886D01*
X0101028Y0093886D02*
X0095028Y0093886D01*
X0081737Y0093492D02*
X0075737Y0093492D01*
X0073902Y0093492D02*
X0067902Y0093492D01*
X0067902Y0079492D02*
X0073902Y0079492D01*
X0075737Y0079492D02*
X0081737Y0079492D01*
X0095028Y0079886D02*
X0101028Y0079886D01*
X0102902Y0079886D02*
X0108902Y0079886D01*
X0078981Y0047429D02*
X0072981Y0047429D01*
X0072981Y0033429D02*
X0078981Y0033429D01*
X0130312Y0117988D02*
X0133068Y0120744D01*
X0148028Y0120744D02*
X0150784Y0117988D01*
X0157083Y0125547D02*
X0157083Y0130390D01*
X0224800Y0130390D01*
X0224800Y0125547D01*
X0218501Y0136098D02*
X0227162Y0144760D01*
X0195666Y0136098D02*
X0187005Y0144760D01*
X0142823Y0145398D02*
X0142823Y0139398D01*
X0142823Y0147705D02*
X0142823Y0153705D01*
X0128823Y0153705D02*
X0128823Y0147705D01*
X0128823Y0145398D02*
X0128823Y0139398D01*
X0127406Y0166894D02*
X0121406Y0166894D01*
X0121406Y0180894D02*
X0127406Y0180894D01*
X0118351Y0211776D02*
X0112351Y0211776D01*
X0112351Y0225776D02*
X0118351Y0225776D01*
X0135186Y0227917D02*
X0141186Y0227917D01*
X0143453Y0227917D02*
X0149453Y0227917D01*
X0148965Y0225776D02*
X0154965Y0225776D01*
X0157721Y0227917D02*
X0151721Y0227917D01*
X0144729Y0225776D02*
X0138729Y0225776D01*
X0138729Y0211776D02*
X0144729Y0211776D01*
X0148965Y0211776D02*
X0154965Y0211776D01*
X0157721Y0241917D02*
X0151721Y0241917D01*
X0149453Y0241917D02*
X0143453Y0241917D01*
X0141186Y0241917D02*
X0135186Y0241917D01*
X0166965Y0256382D02*
X0166965Y0280382D01*
X0169965Y0280382D01*
X0169965Y0276382D01*
X0173965Y0276382D01*
X0173965Y0280382D01*
X0179965Y0280382D01*
X0179965Y0276382D01*
X0183965Y0276382D01*
X0183965Y0280382D01*
X0199965Y0280382D01*
X0199965Y0276382D01*
X0203965Y0276382D01*
X0203965Y0280382D01*
X0206965Y0280382D01*
X0206965Y0256382D01*
X0166965Y0256382D01*
X0169965Y0280382D02*
X0173965Y0280382D01*
X0179965Y0280382D02*
X0183965Y0280382D01*
X0189965Y0280382D02*
X0189965Y0276382D01*
X0193965Y0276382D01*
X0193965Y0280382D01*
X0199965Y0280382D02*
X0203965Y0280382D01*
X0201028Y0243886D02*
X0195028Y0243886D01*
X0205509Y0236492D02*
X0208264Y0239248D01*
X0201028Y0229886D02*
X0195028Y0229886D01*
X0195028Y0228138D02*
X0201028Y0228138D01*
X0201028Y0214138D02*
X0195028Y0214138D01*
X0223225Y0239248D02*
X0225981Y0236492D01*
X0094682Y0260705D02*
X0048619Y0260705D01*
X0048619Y0264051D01*
X0048619Y0277437D02*
X0048619Y0280783D01*
X0094682Y0280783D01*
X0094682Y0277437D01*
X0094682Y0264051D02*
X0094682Y0260705D01*
X0090792Y0225776D02*
X0084792Y0225776D01*
X0084792Y0211776D02*
X0090792Y0211776D01*
X0075438Y0190736D02*
X0069438Y0190736D01*
X0066776Y0190736D02*
X0060776Y0190736D01*
X0060776Y0176736D02*
X0066776Y0176736D01*
X0069438Y0176736D02*
X0075438Y0176736D01*
X0202201Y0050272D02*
X0202201Y0045272D01*
X0225320Y0059866D02*
X0230320Y0059866D01*
D13*
X0218894Y0129314D02*
X0218894Y0132314D01*
X0217394Y0130914D02*
X0220394Y0130914D01*
X0176220Y0151280D02*
X0176220Y0159280D01*
X0172620Y0159280D02*
X0172620Y0151280D01*
X0169520Y0151280D02*
X0169520Y0159280D01*
X0165920Y0159280D02*
X0165920Y0151280D01*
X0162820Y0151280D02*
X0162820Y0159280D01*
X0159220Y0159280D02*
X0159220Y0151280D01*
X0156120Y0151280D02*
X0156120Y0159280D01*
X0152520Y0159280D02*
X0152520Y0151280D01*
X0149420Y0151280D02*
X0149420Y0159280D01*
X0145820Y0159280D02*
X0145820Y0151280D01*
X0122088Y0145360D02*
X0122088Y0144160D01*
X0120188Y0140560D02*
X0118388Y0140560D01*
X0118388Y0148960D02*
X0120188Y0148960D01*
X0119788Y0147860D02*
X0119725Y0147833D01*
X0119660Y0147810D01*
X0119594Y0147790D01*
X0119527Y0147775D01*
X0119459Y0147763D01*
X0119391Y0147755D01*
X0119322Y0147751D01*
X0119254Y0147751D01*
X0119185Y0147755D01*
X0119117Y0147763D01*
X0119049Y0147775D01*
X0118982Y0147790D01*
X0118916Y0147810D01*
X0118851Y0147833D01*
X0118788Y0147860D01*
X0127173Y0120839D02*
X0100773Y0120839D01*
X0100773Y0106239D01*
X0127173Y0106239D01*
X0127173Y0120839D01*
X0130900Y0084268D02*
X0130900Y0079268D01*
X0118700Y0079268D02*
X0118700Y0080568D01*
X0118700Y0082968D01*
X0118700Y0084268D01*
X0085535Y0174197D02*
X0087135Y0175797D01*
X0153357Y0204814D02*
X0153359Y0204858D01*
X0153365Y0204901D01*
X0153374Y0204943D01*
X0153387Y0204985D01*
X0153404Y0205025D01*
X0153424Y0205064D01*
X0153447Y0205101D01*
X0153474Y0205135D01*
X0153503Y0205168D01*
X0153536Y0205197D01*
X0153570Y0205224D01*
X0153607Y0205247D01*
X0153646Y0205267D01*
X0153686Y0205284D01*
X0153728Y0205297D01*
X0153770Y0205306D01*
X0153813Y0205312D01*
X0153857Y0205314D01*
X0153901Y0205312D01*
X0153944Y0205306D01*
X0153986Y0205297D01*
X0154028Y0205284D01*
X0154068Y0205267D01*
X0154107Y0205247D01*
X0154144Y0205224D01*
X0154178Y0205197D01*
X0154211Y0205168D01*
X0154240Y0205135D01*
X0154267Y0205101D01*
X0154290Y0205064D01*
X0154310Y0205025D01*
X0154327Y0204985D01*
X0154340Y0204943D01*
X0154349Y0204901D01*
X0154355Y0204858D01*
X0154357Y0204814D01*
X0154355Y0204770D01*
X0154349Y0204727D01*
X0154340Y0204685D01*
X0154327Y0204643D01*
X0154310Y0204603D01*
X0154290Y0204564D01*
X0154267Y0204527D01*
X0154240Y0204493D01*
X0154211Y0204460D01*
X0154178Y0204431D01*
X0154144Y0204404D01*
X0154107Y0204381D01*
X0154068Y0204361D01*
X0154028Y0204344D01*
X0153986Y0204331D01*
X0153944Y0204322D01*
X0153901Y0204316D01*
X0153857Y0204314D01*
X0153813Y0204316D01*
X0153770Y0204322D01*
X0153728Y0204331D01*
X0153686Y0204344D01*
X0153646Y0204361D01*
X0153607Y0204381D01*
X0153570Y0204404D01*
X0153536Y0204431D01*
X0153503Y0204460D01*
X0153474Y0204493D01*
X0153447Y0204527D01*
X0153424Y0204564D01*
X0153404Y0204603D01*
X0153387Y0204643D01*
X0153374Y0204685D01*
X0153365Y0204727D01*
X0153359Y0204770D01*
X0153357Y0204814D01*
X0158357Y0206714D02*
X0158357Y0213514D01*
X0162357Y0213514D01*
X0167557Y0213514D02*
X0171557Y0213514D01*
X0171557Y0206714D01*
X0166057Y0206714D02*
X0163857Y0206714D01*
D14*
X0166375Y0219012D02*
X0169375Y0219012D01*
X0166375Y0219012D02*
X0166375Y0222012D01*
X0166375Y0236012D02*
X0166375Y0239012D01*
X0169375Y0239012D01*
X0168501Y0238854D02*
X0168501Y0236886D01*
X0166532Y0236886D01*
X0163777Y0237673D02*
X0163779Y0237729D01*
X0163785Y0237784D01*
X0163795Y0237838D01*
X0163808Y0237892D01*
X0163826Y0237945D01*
X0163847Y0237996D01*
X0163871Y0238046D01*
X0163899Y0238094D01*
X0163931Y0238140D01*
X0163965Y0238184D01*
X0164003Y0238225D01*
X0164043Y0238263D01*
X0164086Y0238298D01*
X0164131Y0238330D01*
X0164179Y0238359D01*
X0164228Y0238385D01*
X0164279Y0238407D01*
X0164331Y0238425D01*
X0164385Y0238439D01*
X0164440Y0238450D01*
X0164495Y0238457D01*
X0164550Y0238460D01*
X0164606Y0238459D01*
X0164661Y0238454D01*
X0164716Y0238445D01*
X0164770Y0238433D01*
X0164823Y0238416D01*
X0164875Y0238396D01*
X0164925Y0238372D01*
X0164973Y0238345D01*
X0165020Y0238315D01*
X0165064Y0238281D01*
X0165106Y0238244D01*
X0165144Y0238204D01*
X0165181Y0238162D01*
X0165214Y0238117D01*
X0165243Y0238071D01*
X0165270Y0238022D01*
X0165292Y0237971D01*
X0165312Y0237919D01*
X0165327Y0237865D01*
X0165339Y0237811D01*
X0165347Y0237756D01*
X0165351Y0237701D01*
X0165351Y0237645D01*
X0165347Y0237590D01*
X0165339Y0237535D01*
X0165327Y0237481D01*
X0165312Y0237427D01*
X0165292Y0237375D01*
X0165270Y0237324D01*
X0165243Y0237275D01*
X0165214Y0237229D01*
X0165181Y0237184D01*
X0165144Y0237142D01*
X0165106Y0237102D01*
X0165064Y0237065D01*
X0165020Y0237031D01*
X0164973Y0237001D01*
X0164925Y0236974D01*
X0164875Y0236950D01*
X0164823Y0236930D01*
X0164770Y0236913D01*
X0164716Y0236901D01*
X0164661Y0236892D01*
X0164606Y0236887D01*
X0164550Y0236886D01*
X0164495Y0236889D01*
X0164440Y0236896D01*
X0164385Y0236907D01*
X0164331Y0236921D01*
X0164279Y0236939D01*
X0164228Y0236961D01*
X0164179Y0236987D01*
X0164131Y0237016D01*
X0164086Y0237048D01*
X0164043Y0237083D01*
X0164003Y0237121D01*
X0163965Y0237162D01*
X0163931Y0237206D01*
X0163899Y0237252D01*
X0163871Y0237300D01*
X0163847Y0237350D01*
X0163826Y0237401D01*
X0163808Y0237454D01*
X0163795Y0237508D01*
X0163785Y0237562D01*
X0163779Y0237617D01*
X0163777Y0237673D01*
X0163779Y0237729D01*
X0163785Y0237784D01*
X0163795Y0237838D01*
X0163808Y0237892D01*
X0163826Y0237945D01*
X0163847Y0237996D01*
X0163871Y0238046D01*
X0163899Y0238094D01*
X0163931Y0238140D01*
X0163965Y0238184D01*
X0164003Y0238225D01*
X0164043Y0238263D01*
X0164086Y0238298D01*
X0164131Y0238330D01*
X0164179Y0238359D01*
X0164228Y0238385D01*
X0164279Y0238407D01*
X0164331Y0238425D01*
X0164385Y0238439D01*
X0164440Y0238450D01*
X0164495Y0238457D01*
X0164550Y0238460D01*
X0164606Y0238459D01*
X0164661Y0238454D01*
X0164716Y0238445D01*
X0164770Y0238433D01*
X0164823Y0238416D01*
X0164875Y0238396D01*
X0164925Y0238372D01*
X0164973Y0238345D01*
X0165020Y0238315D01*
X0165064Y0238281D01*
X0165106Y0238244D01*
X0165144Y0238204D01*
X0165181Y0238162D01*
X0165214Y0238117D01*
X0165243Y0238071D01*
X0165270Y0238022D01*
X0165292Y0237971D01*
X0165312Y0237919D01*
X0165327Y0237865D01*
X0165339Y0237811D01*
X0165347Y0237756D01*
X0165351Y0237701D01*
X0165351Y0237645D01*
X0165347Y0237590D01*
X0165339Y0237535D01*
X0165327Y0237481D01*
X0165312Y0237427D01*
X0165292Y0237375D01*
X0165270Y0237324D01*
X0165243Y0237275D01*
X0165214Y0237229D01*
X0165181Y0237184D01*
X0165144Y0237142D01*
X0165106Y0237102D01*
X0165064Y0237065D01*
X0165020Y0237031D01*
X0164973Y0237001D01*
X0164925Y0236974D01*
X0164875Y0236950D01*
X0164823Y0236930D01*
X0164770Y0236913D01*
X0164716Y0236901D01*
X0164661Y0236892D01*
X0164606Y0236887D01*
X0164550Y0236886D01*
X0164495Y0236889D01*
X0164440Y0236896D01*
X0164385Y0236907D01*
X0164331Y0236921D01*
X0164279Y0236939D01*
X0164228Y0236961D01*
X0164179Y0236987D01*
X0164131Y0237016D01*
X0164086Y0237048D01*
X0164043Y0237083D01*
X0164003Y0237121D01*
X0163965Y0237162D01*
X0163931Y0237206D01*
X0163899Y0237252D01*
X0163871Y0237300D01*
X0163847Y0237350D01*
X0163826Y0237401D01*
X0163808Y0237454D01*
X0163795Y0237508D01*
X0163785Y0237562D01*
X0163779Y0237617D01*
X0163777Y0237673D01*
X0183375Y0239012D02*
X0186375Y0239012D01*
X0186375Y0238854D02*
X0186375Y0236012D01*
X0186375Y0222012D02*
X0186375Y0219012D01*
X0183375Y0219012D01*
X0073619Y0224484D02*
X0049997Y0224484D01*
X0049997Y0250075D01*
X0073619Y0250075D01*
X0073619Y0224484D01*
X0088973Y0075862D02*
X0088973Y0035705D01*
X0109446Y0035705D01*
X0109446Y0075862D01*
X0088973Y0075862D01*
D15*
X0105607Y0039248D03*
D16*
X0129653Y0106794D02*
X0130854Y0106794D01*
X0131455Y0107395D01*
X0131455Y0110398D01*
X0132736Y0109197D02*
X0133937Y0110398D01*
X0133937Y0106794D01*
X0132736Y0106794D02*
X0135138Y0106794D01*
X0129653Y0106794D02*
X0129053Y0107395D01*
X0129053Y0110398D01*
X0117485Y0135275D02*
X0115083Y0135275D01*
X0117485Y0137677D01*
X0117485Y0138277D01*
X0116885Y0138878D01*
X0115684Y0138878D01*
X0115083Y0138277D01*
X0113802Y0138878D02*
X0113802Y0135875D01*
X0113201Y0135275D01*
X0112000Y0135275D01*
X0111400Y0135875D01*
X0111400Y0138878D01*
X0082900Y0177772D02*
X0081699Y0177772D01*
X0081099Y0178373D01*
X0079818Y0178373D02*
X0079217Y0177772D01*
X0078016Y0177772D01*
X0077416Y0178373D01*
X0077416Y0181376D01*
X0079818Y0181376D02*
X0079818Y0178373D01*
X0081099Y0180775D02*
X0081699Y0181376D01*
X0082900Y0181376D01*
X0083501Y0180775D01*
X0083501Y0180174D01*
X0082900Y0179574D01*
X0083501Y0178973D01*
X0083501Y0178373D01*
X0082900Y0177772D01*
X0082900Y0179574D02*
X0082300Y0179574D01*
X0098130Y0191436D02*
X0098130Y0195039D01*
X0099931Y0195039D01*
X0100532Y0194439D01*
X0100532Y0193238D01*
X0099931Y0192637D01*
X0098130Y0192637D01*
X0099331Y0192637D02*
X0100532Y0191436D01*
X0101813Y0191436D02*
X0101813Y0195039D01*
X0104215Y0191436D01*
X0104215Y0195039D01*
X0105496Y0194439D02*
X0106097Y0195039D01*
X0107298Y0195039D01*
X0107898Y0194439D01*
X0107898Y0193838D01*
X0105496Y0191436D01*
X0107898Y0191436D01*
X0104752Y0225192D02*
X0103551Y0225192D01*
X0102951Y0225793D01*
X0101669Y0225192D02*
X0099267Y0228795D01*
X0099267Y0225192D01*
X0097986Y0225192D02*
X0096785Y0226393D01*
X0097386Y0226393D02*
X0095584Y0226393D01*
X0095584Y0225192D02*
X0095584Y0228795D01*
X0097386Y0228795D01*
X0097986Y0228195D01*
X0097986Y0226994D01*
X0097386Y0226393D01*
X0101669Y0225192D02*
X0101669Y0228795D01*
X0102951Y0228195D02*
X0103551Y0228795D01*
X0104752Y0228795D01*
X0105353Y0228195D01*
X0105353Y0227594D01*
X0104752Y0226994D01*
X0105353Y0226393D01*
X0105353Y0225793D01*
X0104752Y0225192D01*
X0104752Y0226994D02*
X0104152Y0226994D01*
X0069112Y0155173D02*
X0069112Y0151570D01*
X0067911Y0151570D02*
X0070313Y0151570D01*
X0067911Y0153972D02*
X0069112Y0155173D01*
X0066630Y0155173D02*
X0066630Y0151570D01*
X0064228Y0155173D01*
X0064228Y0151570D01*
X0062947Y0151570D02*
X0061746Y0152771D01*
X0062346Y0152771D02*
X0060545Y0152771D01*
X0060545Y0151570D02*
X0060545Y0155173D01*
X0062346Y0155173D01*
X0062947Y0154573D01*
X0062947Y0153372D01*
X0062346Y0152771D01*
X0186689Y0096374D02*
X0186689Y0092771D01*
X0189091Y0092771D01*
X0190372Y0092771D02*
X0192774Y0092771D01*
X0191573Y0092771D02*
X0191573Y0096374D01*
X0190372Y0095173D01*
D17*
X0049800Y0156965D02*
X0049111Y0156276D01*
X0048520Y0156866D01*
X0049209Y0157555D01*
X0049800Y0156965D01*
X0049111Y0164150D02*
X0048520Y0164740D01*
X0049209Y0165429D01*
X0049800Y0164839D01*
X0049111Y0164150D01*
X0049209Y0172122D02*
X0048619Y0172713D01*
X0049308Y0173402D01*
X0049898Y0172811D01*
X0049209Y0172122D01*
X0049209Y0179996D02*
X0048619Y0180587D01*
X0049308Y0181276D01*
X0049898Y0180685D01*
X0049209Y0179996D01*
D18*
X0050292Y0179012D03*
X0050292Y0171138D03*
X0048127Y0166413D03*
X0048127Y0158539D03*
D19*
X0118700Y0082968D02*
X0118769Y0082966D01*
X0118837Y0082960D01*
X0118905Y0082950D01*
X0118972Y0082937D01*
X0119038Y0082919D01*
X0119103Y0082898D01*
X0119167Y0082873D01*
X0119229Y0082845D01*
X0119290Y0082813D01*
X0119349Y0082778D01*
X0119405Y0082739D01*
X0119460Y0082697D01*
X0119511Y0082652D01*
X0119561Y0082604D01*
X0119607Y0082554D01*
X0119650Y0082501D01*
X0119691Y0082445D01*
X0119728Y0082388D01*
X0119761Y0082328D01*
X0119792Y0082266D01*
X0119818Y0082203D01*
X0119841Y0082139D01*
X0119861Y0082073D01*
X0119876Y0082006D01*
X0119888Y0081939D01*
X0119896Y0081871D01*
X0119900Y0081802D01*
X0119900Y0081734D01*
X0119896Y0081665D01*
X0119888Y0081597D01*
X0119876Y0081530D01*
X0119861Y0081463D01*
X0119841Y0081397D01*
X0119818Y0081333D01*
X0119792Y0081270D01*
X0119761Y0081208D01*
X0119728Y0081148D01*
X0119691Y0081091D01*
X0119650Y0081035D01*
X0119607Y0080982D01*
X0119561Y0080932D01*
X0119511Y0080884D01*
X0119460Y0080839D01*
X0119405Y0080797D01*
X0119349Y0080758D01*
X0119290Y0080723D01*
X0119229Y0080691D01*
X0119167Y0080663D01*
X0119103Y0080638D01*
X0119038Y0080617D01*
X0118972Y0080599D01*
X0118905Y0080586D01*
X0118837Y0080576D01*
X0118769Y0080570D01*
X0118700Y0080568D01*
D20*
X0082784Y0140390D02*
X0082784Y0146689D01*
X0068784Y0146689D02*
X0068784Y0140390D01*
D21*
X0076434Y0235559D02*
X0075884Y0236109D01*
X0076434Y0235559D02*
X0077535Y0235559D01*
X0078086Y0236109D01*
X0078086Y0236660D01*
X0077535Y0237210D01*
X0076434Y0237210D01*
X0075884Y0237761D01*
X0075884Y0238311D01*
X0076434Y0238861D01*
X0077535Y0238861D01*
X0078086Y0238311D01*
X0079567Y0237761D02*
X0080668Y0238861D01*
X0080668Y0235559D01*
X0079567Y0235559D02*
X0081769Y0235559D01*
M02*
