G75*
%MOIN*%
%OFA0B0*%
%FSLAX25Y25*%
%IPPOS*%
%LPD*%
%AMOC8*
5,1,8,0,0,1.08239X$1,22.5*
%
%ADD10C,0.01600*%
%ADD11C,0.07000*%
%ADD12R,0.07000X0.07000*%
%ADD13C,0.07600*%
%ADD14R,0.07600X0.07600*%
%ADD15C,0.05937*%
%ADD16C,0.00000*%
%ADD17C,0.02781*%
%ADD18C,0.01000*%
%ADD19C,0.03569*%
%ADD20C,0.15000*%
%ADD21R,0.02781X0.02781*%
%ADD22C,0.01200*%
%ADD23C,0.03962*%
%ADD24R,0.03962X0.03962*%
%ADD25C,0.03200*%
%ADD26C,0.02400*%
%ADD27C,0.00630*%
D10*
X0036217Y0038461D02*
X0036217Y0274681D01*
X0036220Y0274919D01*
X0036228Y0275157D01*
X0036243Y0275394D01*
X0036263Y0275631D01*
X0036289Y0275867D01*
X0036320Y0276103D01*
X0036357Y0276338D01*
X0036400Y0276572D01*
X0036449Y0276805D01*
X0036503Y0277037D01*
X0036563Y0277267D01*
X0036628Y0277496D01*
X0036699Y0277723D01*
X0036775Y0277948D01*
X0036857Y0278171D01*
X0036944Y0278393D01*
X0037036Y0278612D01*
X0037134Y0278829D01*
X0037236Y0279043D01*
X0037344Y0279255D01*
X0037458Y0279465D01*
X0037576Y0279671D01*
X0037699Y0279875D01*
X0037827Y0280075D01*
X0037959Y0280272D01*
X0038097Y0280467D01*
X0038239Y0280657D01*
X0038386Y0280845D01*
X0038537Y0281028D01*
X0038692Y0281208D01*
X0038852Y0281384D01*
X0039016Y0281556D01*
X0039185Y0281725D01*
X0039357Y0281889D01*
X0039533Y0282049D01*
X0039713Y0282204D01*
X0039896Y0282355D01*
X0040084Y0282502D01*
X0040274Y0282644D01*
X0040469Y0282782D01*
X0040666Y0282914D01*
X0040866Y0283042D01*
X0041070Y0283165D01*
X0041276Y0283283D01*
X0041486Y0283397D01*
X0041698Y0283505D01*
X0041912Y0283607D01*
X0042129Y0283705D01*
X0042348Y0283797D01*
X0042570Y0283884D01*
X0042793Y0283966D01*
X0043018Y0284042D01*
X0043245Y0284113D01*
X0043474Y0284178D01*
X0043704Y0284238D01*
X0043936Y0284292D01*
X0044169Y0284341D01*
X0044403Y0284384D01*
X0044638Y0284421D01*
X0044874Y0284452D01*
X0045110Y0284478D01*
X0045347Y0284498D01*
X0045584Y0284513D01*
X0045822Y0284521D01*
X0046060Y0284524D01*
X0223225Y0284524D01*
X0223463Y0284521D01*
X0223701Y0284513D01*
X0223938Y0284498D01*
X0224175Y0284478D01*
X0224411Y0284452D01*
X0224647Y0284421D01*
X0224882Y0284384D01*
X0225116Y0284341D01*
X0225349Y0284292D01*
X0225581Y0284238D01*
X0225811Y0284178D01*
X0226040Y0284113D01*
X0226267Y0284042D01*
X0226492Y0283966D01*
X0226715Y0283884D01*
X0226937Y0283797D01*
X0227156Y0283705D01*
X0227373Y0283607D01*
X0227587Y0283505D01*
X0227799Y0283397D01*
X0228009Y0283283D01*
X0228215Y0283165D01*
X0228419Y0283042D01*
X0228619Y0282914D01*
X0228816Y0282782D01*
X0229011Y0282644D01*
X0229201Y0282502D01*
X0229389Y0282355D01*
X0229572Y0282204D01*
X0229752Y0282049D01*
X0229928Y0281889D01*
X0230100Y0281725D01*
X0230269Y0281556D01*
X0230433Y0281384D01*
X0230593Y0281208D01*
X0230748Y0281028D01*
X0230899Y0280845D01*
X0231046Y0280657D01*
X0231188Y0280467D01*
X0231326Y0280272D01*
X0231458Y0280075D01*
X0231586Y0279875D01*
X0231709Y0279671D01*
X0231827Y0279465D01*
X0231941Y0279255D01*
X0232049Y0279043D01*
X0232151Y0278829D01*
X0232249Y0278612D01*
X0232341Y0278393D01*
X0232428Y0278171D01*
X0232510Y0277948D01*
X0232586Y0277723D01*
X0232657Y0277496D01*
X0232722Y0277267D01*
X0232782Y0277037D01*
X0232836Y0276805D01*
X0232885Y0276572D01*
X0232928Y0276338D01*
X0232965Y0276103D01*
X0232996Y0275867D01*
X0233022Y0275631D01*
X0233042Y0275394D01*
X0233057Y0275157D01*
X0233065Y0274919D01*
X0233068Y0274681D01*
X0233068Y0038461D01*
X0233065Y0038223D01*
X0233057Y0037985D01*
X0233042Y0037748D01*
X0233022Y0037511D01*
X0232996Y0037275D01*
X0232965Y0037039D01*
X0232928Y0036804D01*
X0232885Y0036570D01*
X0232836Y0036337D01*
X0232782Y0036105D01*
X0232722Y0035875D01*
X0232657Y0035646D01*
X0232586Y0035419D01*
X0232510Y0035194D01*
X0232428Y0034971D01*
X0232341Y0034749D01*
X0232249Y0034530D01*
X0232151Y0034313D01*
X0232049Y0034099D01*
X0231941Y0033887D01*
X0231827Y0033677D01*
X0231709Y0033471D01*
X0231586Y0033267D01*
X0231458Y0033067D01*
X0231326Y0032870D01*
X0231188Y0032675D01*
X0231046Y0032485D01*
X0230899Y0032297D01*
X0230748Y0032114D01*
X0230593Y0031934D01*
X0230433Y0031758D01*
X0230269Y0031586D01*
X0230100Y0031417D01*
X0229928Y0031253D01*
X0229752Y0031093D01*
X0229572Y0030938D01*
X0229389Y0030787D01*
X0229201Y0030640D01*
X0229011Y0030498D01*
X0228816Y0030360D01*
X0228619Y0030228D01*
X0228419Y0030100D01*
X0228215Y0029977D01*
X0228009Y0029859D01*
X0227799Y0029745D01*
X0227587Y0029637D01*
X0227373Y0029535D01*
X0227156Y0029437D01*
X0226937Y0029345D01*
X0226715Y0029258D01*
X0226492Y0029176D01*
X0226267Y0029100D01*
X0226040Y0029029D01*
X0225811Y0028964D01*
X0225581Y0028904D01*
X0225349Y0028850D01*
X0225116Y0028801D01*
X0224882Y0028758D01*
X0224647Y0028721D01*
X0224411Y0028690D01*
X0224175Y0028664D01*
X0223938Y0028644D01*
X0223701Y0028629D01*
X0223463Y0028621D01*
X0223225Y0028618D01*
X0046060Y0028618D01*
X0045822Y0028621D01*
X0045584Y0028629D01*
X0045347Y0028644D01*
X0045110Y0028664D01*
X0044874Y0028690D01*
X0044638Y0028721D01*
X0044403Y0028758D01*
X0044169Y0028801D01*
X0043936Y0028850D01*
X0043704Y0028904D01*
X0043474Y0028964D01*
X0043245Y0029029D01*
X0043018Y0029100D01*
X0042793Y0029176D01*
X0042570Y0029258D01*
X0042348Y0029345D01*
X0042129Y0029437D01*
X0041912Y0029535D01*
X0041698Y0029637D01*
X0041486Y0029745D01*
X0041276Y0029859D01*
X0041070Y0029977D01*
X0040866Y0030100D01*
X0040666Y0030228D01*
X0040469Y0030360D01*
X0040274Y0030498D01*
X0040084Y0030640D01*
X0039896Y0030787D01*
X0039713Y0030938D01*
X0039533Y0031093D01*
X0039357Y0031253D01*
X0039185Y0031417D01*
X0039016Y0031586D01*
X0038852Y0031758D01*
X0038692Y0031934D01*
X0038537Y0032114D01*
X0038386Y0032297D01*
X0038239Y0032485D01*
X0038097Y0032675D01*
X0037959Y0032870D01*
X0037827Y0033067D01*
X0037699Y0033267D01*
X0037576Y0033471D01*
X0037458Y0033677D01*
X0037344Y0033887D01*
X0037236Y0034099D01*
X0037134Y0034313D01*
X0037036Y0034530D01*
X0036944Y0034749D01*
X0036857Y0034971D01*
X0036775Y0035194D01*
X0036699Y0035419D01*
X0036628Y0035646D01*
X0036563Y0035875D01*
X0036503Y0036105D01*
X0036449Y0036337D01*
X0036400Y0036570D01*
X0036357Y0036804D01*
X0036320Y0037039D01*
X0036289Y0037275D01*
X0036263Y0037511D01*
X0036243Y0037748D01*
X0036228Y0037985D01*
X0036220Y0038223D01*
X0036217Y0038461D01*
D11*
X0061650Y0201295D03*
X0071650Y0201295D03*
X0071650Y0211295D03*
X0061650Y0211295D03*
X0051650Y0211295D03*
D12*
X0051650Y0201295D03*
D13*
X0181965Y0268382D03*
X0191965Y0268382D03*
X0201965Y0268382D03*
X0223383Y0044366D03*
D14*
X0213383Y0044366D03*
X0171965Y0268382D03*
D15*
X0081493Y0265823D03*
X0081493Y0275665D03*
X0071650Y0275665D03*
X0061808Y0275665D03*
X0061808Y0265823D03*
D16*
X0043107Y0270744D02*
X0043109Y0270892D01*
X0043115Y0271040D01*
X0043125Y0271188D01*
X0043139Y0271335D01*
X0043157Y0271482D01*
X0043178Y0271628D01*
X0043204Y0271774D01*
X0043234Y0271919D01*
X0043267Y0272063D01*
X0043305Y0272206D01*
X0043346Y0272348D01*
X0043391Y0272489D01*
X0043439Y0272629D01*
X0043492Y0272768D01*
X0043548Y0272905D01*
X0043608Y0273040D01*
X0043671Y0273174D01*
X0043738Y0273306D01*
X0043809Y0273436D01*
X0043883Y0273564D01*
X0043960Y0273690D01*
X0044041Y0273814D01*
X0044125Y0273936D01*
X0044212Y0274055D01*
X0044303Y0274172D01*
X0044397Y0274287D01*
X0044493Y0274399D01*
X0044593Y0274509D01*
X0044695Y0274615D01*
X0044801Y0274719D01*
X0044909Y0274820D01*
X0045020Y0274918D01*
X0045133Y0275014D01*
X0045249Y0275106D01*
X0045367Y0275195D01*
X0045488Y0275280D01*
X0045611Y0275363D01*
X0045736Y0275442D01*
X0045863Y0275518D01*
X0045992Y0275590D01*
X0046123Y0275659D01*
X0046256Y0275724D01*
X0046391Y0275785D01*
X0046527Y0275843D01*
X0046664Y0275898D01*
X0046803Y0275948D01*
X0046944Y0275995D01*
X0047085Y0276038D01*
X0047228Y0276078D01*
X0047372Y0276113D01*
X0047516Y0276145D01*
X0047662Y0276172D01*
X0047808Y0276196D01*
X0047955Y0276216D01*
X0048102Y0276232D01*
X0048249Y0276244D01*
X0048397Y0276252D01*
X0048545Y0276256D01*
X0048693Y0276256D01*
X0048841Y0276252D01*
X0048989Y0276244D01*
X0049136Y0276232D01*
X0049283Y0276216D01*
X0049430Y0276196D01*
X0049576Y0276172D01*
X0049722Y0276145D01*
X0049866Y0276113D01*
X0050010Y0276078D01*
X0050153Y0276038D01*
X0050294Y0275995D01*
X0050435Y0275948D01*
X0050574Y0275898D01*
X0050711Y0275843D01*
X0050847Y0275785D01*
X0050982Y0275724D01*
X0051115Y0275659D01*
X0051246Y0275590D01*
X0051375Y0275518D01*
X0051502Y0275442D01*
X0051627Y0275363D01*
X0051750Y0275280D01*
X0051871Y0275195D01*
X0051989Y0275106D01*
X0052105Y0275014D01*
X0052218Y0274918D01*
X0052329Y0274820D01*
X0052437Y0274719D01*
X0052543Y0274615D01*
X0052645Y0274509D01*
X0052745Y0274399D01*
X0052841Y0274287D01*
X0052935Y0274172D01*
X0053026Y0274055D01*
X0053113Y0273936D01*
X0053197Y0273814D01*
X0053278Y0273690D01*
X0053355Y0273564D01*
X0053429Y0273436D01*
X0053500Y0273306D01*
X0053567Y0273174D01*
X0053630Y0273040D01*
X0053690Y0272905D01*
X0053746Y0272768D01*
X0053799Y0272629D01*
X0053847Y0272489D01*
X0053892Y0272348D01*
X0053933Y0272206D01*
X0053971Y0272063D01*
X0054004Y0271919D01*
X0054034Y0271774D01*
X0054060Y0271628D01*
X0054081Y0271482D01*
X0054099Y0271335D01*
X0054113Y0271188D01*
X0054123Y0271040D01*
X0054129Y0270892D01*
X0054131Y0270744D01*
X0054129Y0270596D01*
X0054123Y0270448D01*
X0054113Y0270300D01*
X0054099Y0270153D01*
X0054081Y0270006D01*
X0054060Y0269860D01*
X0054034Y0269714D01*
X0054004Y0269569D01*
X0053971Y0269425D01*
X0053933Y0269282D01*
X0053892Y0269140D01*
X0053847Y0268999D01*
X0053799Y0268859D01*
X0053746Y0268720D01*
X0053690Y0268583D01*
X0053630Y0268448D01*
X0053567Y0268314D01*
X0053500Y0268182D01*
X0053429Y0268052D01*
X0053355Y0267924D01*
X0053278Y0267798D01*
X0053197Y0267674D01*
X0053113Y0267552D01*
X0053026Y0267433D01*
X0052935Y0267316D01*
X0052841Y0267201D01*
X0052745Y0267089D01*
X0052645Y0266979D01*
X0052543Y0266873D01*
X0052437Y0266769D01*
X0052329Y0266668D01*
X0052218Y0266570D01*
X0052105Y0266474D01*
X0051989Y0266382D01*
X0051871Y0266293D01*
X0051750Y0266208D01*
X0051627Y0266125D01*
X0051502Y0266046D01*
X0051375Y0265970D01*
X0051246Y0265898D01*
X0051115Y0265829D01*
X0050982Y0265764D01*
X0050847Y0265703D01*
X0050711Y0265645D01*
X0050574Y0265590D01*
X0050435Y0265540D01*
X0050294Y0265493D01*
X0050153Y0265450D01*
X0050010Y0265410D01*
X0049866Y0265375D01*
X0049722Y0265343D01*
X0049576Y0265316D01*
X0049430Y0265292D01*
X0049283Y0265272D01*
X0049136Y0265256D01*
X0048989Y0265244D01*
X0048841Y0265236D01*
X0048693Y0265232D01*
X0048545Y0265232D01*
X0048397Y0265236D01*
X0048249Y0265244D01*
X0048102Y0265256D01*
X0047955Y0265272D01*
X0047808Y0265292D01*
X0047662Y0265316D01*
X0047516Y0265343D01*
X0047372Y0265375D01*
X0047228Y0265410D01*
X0047085Y0265450D01*
X0046944Y0265493D01*
X0046803Y0265540D01*
X0046664Y0265590D01*
X0046527Y0265645D01*
X0046391Y0265703D01*
X0046256Y0265764D01*
X0046123Y0265829D01*
X0045992Y0265898D01*
X0045863Y0265970D01*
X0045736Y0266046D01*
X0045611Y0266125D01*
X0045488Y0266208D01*
X0045367Y0266293D01*
X0045249Y0266382D01*
X0045133Y0266474D01*
X0045020Y0266570D01*
X0044909Y0266668D01*
X0044801Y0266769D01*
X0044695Y0266873D01*
X0044593Y0266979D01*
X0044493Y0267089D01*
X0044397Y0267201D01*
X0044303Y0267316D01*
X0044212Y0267433D01*
X0044125Y0267552D01*
X0044041Y0267674D01*
X0043960Y0267798D01*
X0043883Y0267924D01*
X0043809Y0268052D01*
X0043738Y0268182D01*
X0043671Y0268314D01*
X0043608Y0268448D01*
X0043548Y0268583D01*
X0043492Y0268720D01*
X0043439Y0268859D01*
X0043391Y0268999D01*
X0043346Y0269140D01*
X0043305Y0269282D01*
X0043267Y0269425D01*
X0043234Y0269569D01*
X0043204Y0269714D01*
X0043178Y0269860D01*
X0043157Y0270006D01*
X0043139Y0270153D01*
X0043125Y0270300D01*
X0043115Y0270448D01*
X0043109Y0270596D01*
X0043107Y0270744D01*
X0089170Y0270744D02*
X0089172Y0270892D01*
X0089178Y0271040D01*
X0089188Y0271188D01*
X0089202Y0271335D01*
X0089220Y0271482D01*
X0089241Y0271628D01*
X0089267Y0271774D01*
X0089297Y0271919D01*
X0089330Y0272063D01*
X0089368Y0272206D01*
X0089409Y0272348D01*
X0089454Y0272489D01*
X0089502Y0272629D01*
X0089555Y0272768D01*
X0089611Y0272905D01*
X0089671Y0273040D01*
X0089734Y0273174D01*
X0089801Y0273306D01*
X0089872Y0273436D01*
X0089946Y0273564D01*
X0090023Y0273690D01*
X0090104Y0273814D01*
X0090188Y0273936D01*
X0090275Y0274055D01*
X0090366Y0274172D01*
X0090460Y0274287D01*
X0090556Y0274399D01*
X0090656Y0274509D01*
X0090758Y0274615D01*
X0090864Y0274719D01*
X0090972Y0274820D01*
X0091083Y0274918D01*
X0091196Y0275014D01*
X0091312Y0275106D01*
X0091430Y0275195D01*
X0091551Y0275280D01*
X0091674Y0275363D01*
X0091799Y0275442D01*
X0091926Y0275518D01*
X0092055Y0275590D01*
X0092186Y0275659D01*
X0092319Y0275724D01*
X0092454Y0275785D01*
X0092590Y0275843D01*
X0092727Y0275898D01*
X0092866Y0275948D01*
X0093007Y0275995D01*
X0093148Y0276038D01*
X0093291Y0276078D01*
X0093435Y0276113D01*
X0093579Y0276145D01*
X0093725Y0276172D01*
X0093871Y0276196D01*
X0094018Y0276216D01*
X0094165Y0276232D01*
X0094312Y0276244D01*
X0094460Y0276252D01*
X0094608Y0276256D01*
X0094756Y0276256D01*
X0094904Y0276252D01*
X0095052Y0276244D01*
X0095199Y0276232D01*
X0095346Y0276216D01*
X0095493Y0276196D01*
X0095639Y0276172D01*
X0095785Y0276145D01*
X0095929Y0276113D01*
X0096073Y0276078D01*
X0096216Y0276038D01*
X0096357Y0275995D01*
X0096498Y0275948D01*
X0096637Y0275898D01*
X0096774Y0275843D01*
X0096910Y0275785D01*
X0097045Y0275724D01*
X0097178Y0275659D01*
X0097309Y0275590D01*
X0097438Y0275518D01*
X0097565Y0275442D01*
X0097690Y0275363D01*
X0097813Y0275280D01*
X0097934Y0275195D01*
X0098052Y0275106D01*
X0098168Y0275014D01*
X0098281Y0274918D01*
X0098392Y0274820D01*
X0098500Y0274719D01*
X0098606Y0274615D01*
X0098708Y0274509D01*
X0098808Y0274399D01*
X0098904Y0274287D01*
X0098998Y0274172D01*
X0099089Y0274055D01*
X0099176Y0273936D01*
X0099260Y0273814D01*
X0099341Y0273690D01*
X0099418Y0273564D01*
X0099492Y0273436D01*
X0099563Y0273306D01*
X0099630Y0273174D01*
X0099693Y0273040D01*
X0099753Y0272905D01*
X0099809Y0272768D01*
X0099862Y0272629D01*
X0099910Y0272489D01*
X0099955Y0272348D01*
X0099996Y0272206D01*
X0100034Y0272063D01*
X0100067Y0271919D01*
X0100097Y0271774D01*
X0100123Y0271628D01*
X0100144Y0271482D01*
X0100162Y0271335D01*
X0100176Y0271188D01*
X0100186Y0271040D01*
X0100192Y0270892D01*
X0100194Y0270744D01*
X0100192Y0270596D01*
X0100186Y0270448D01*
X0100176Y0270300D01*
X0100162Y0270153D01*
X0100144Y0270006D01*
X0100123Y0269860D01*
X0100097Y0269714D01*
X0100067Y0269569D01*
X0100034Y0269425D01*
X0099996Y0269282D01*
X0099955Y0269140D01*
X0099910Y0268999D01*
X0099862Y0268859D01*
X0099809Y0268720D01*
X0099753Y0268583D01*
X0099693Y0268448D01*
X0099630Y0268314D01*
X0099563Y0268182D01*
X0099492Y0268052D01*
X0099418Y0267924D01*
X0099341Y0267798D01*
X0099260Y0267674D01*
X0099176Y0267552D01*
X0099089Y0267433D01*
X0098998Y0267316D01*
X0098904Y0267201D01*
X0098808Y0267089D01*
X0098708Y0266979D01*
X0098606Y0266873D01*
X0098500Y0266769D01*
X0098392Y0266668D01*
X0098281Y0266570D01*
X0098168Y0266474D01*
X0098052Y0266382D01*
X0097934Y0266293D01*
X0097813Y0266208D01*
X0097690Y0266125D01*
X0097565Y0266046D01*
X0097438Y0265970D01*
X0097309Y0265898D01*
X0097178Y0265829D01*
X0097045Y0265764D01*
X0096910Y0265703D01*
X0096774Y0265645D01*
X0096637Y0265590D01*
X0096498Y0265540D01*
X0096357Y0265493D01*
X0096216Y0265450D01*
X0096073Y0265410D01*
X0095929Y0265375D01*
X0095785Y0265343D01*
X0095639Y0265316D01*
X0095493Y0265292D01*
X0095346Y0265272D01*
X0095199Y0265256D01*
X0095052Y0265244D01*
X0094904Y0265236D01*
X0094756Y0265232D01*
X0094608Y0265232D01*
X0094460Y0265236D01*
X0094312Y0265244D01*
X0094165Y0265256D01*
X0094018Y0265272D01*
X0093871Y0265292D01*
X0093725Y0265316D01*
X0093579Y0265343D01*
X0093435Y0265375D01*
X0093291Y0265410D01*
X0093148Y0265450D01*
X0093007Y0265493D01*
X0092866Y0265540D01*
X0092727Y0265590D01*
X0092590Y0265645D01*
X0092454Y0265703D01*
X0092319Y0265764D01*
X0092186Y0265829D01*
X0092055Y0265898D01*
X0091926Y0265970D01*
X0091799Y0266046D01*
X0091674Y0266125D01*
X0091551Y0266208D01*
X0091430Y0266293D01*
X0091312Y0266382D01*
X0091196Y0266474D01*
X0091083Y0266570D01*
X0090972Y0266668D01*
X0090864Y0266769D01*
X0090758Y0266873D01*
X0090656Y0266979D01*
X0090556Y0267089D01*
X0090460Y0267201D01*
X0090366Y0267316D01*
X0090275Y0267433D01*
X0090188Y0267552D01*
X0090104Y0267674D01*
X0090023Y0267798D01*
X0089946Y0267924D01*
X0089872Y0268052D01*
X0089801Y0268182D01*
X0089734Y0268314D01*
X0089671Y0268448D01*
X0089611Y0268583D01*
X0089555Y0268720D01*
X0089502Y0268859D01*
X0089454Y0268999D01*
X0089409Y0269140D01*
X0089368Y0269282D01*
X0089330Y0269425D01*
X0089297Y0269569D01*
X0089267Y0269714D01*
X0089241Y0269860D01*
X0089220Y0270006D01*
X0089202Y0270153D01*
X0089188Y0270300D01*
X0089178Y0270448D01*
X0089172Y0270596D01*
X0089170Y0270744D01*
D17*
X0124603Y0244957D03*
X0109642Y0212280D03*
X0099209Y0210902D03*
X0091926Y0201059D03*
X0087792Y0201059D03*
X0077949Y0197909D03*
X0077949Y0193579D03*
X0084642Y0184917D03*
X0092516Y0173500D03*
X0090942Y0169957D03*
X0094879Y0163657D03*
X0099209Y0162870D03*
X0106296Y0166807D03*
X0104721Y0170744D03*
X0114170Y0179012D03*
X0112201Y0186492D03*
X0123619Y0200665D03*
X0097438Y0185311D03*
X0073619Y0164051D03*
X0070469Y0170744D03*
X0074012Y0152634D03*
X0087398Y0156177D03*
X0089760Y0142004D03*
X0086611Y0138854D03*
X0092910Y0138854D03*
X0096060Y0142004D03*
X0099209Y0138854D03*
X0102359Y0142004D03*
X0105509Y0138854D03*
X0108658Y0142004D03*
X0103934Y0152634D03*
X0105509Y0096728D03*
X0113776Y0077043D03*
X0124800Y0084524D03*
X0142910Y0057358D03*
X0135036Y0043579D03*
X0130312Y0043579D03*
X0140154Y0040429D03*
X0154721Y0043579D03*
X0159839Y0043579D03*
X0162398Y0038657D03*
X0169682Y0043579D03*
X0179524Y0043579D03*
X0184249Y0043579D03*
X0189367Y0043579D03*
X0194485Y0043579D03*
X0194485Y0056571D03*
X0159839Y0056571D03*
X0107477Y0049484D03*
X0098816Y0060114D03*
X0079524Y0054602D03*
X0079131Y0050665D03*
X0055509Y0078618D03*
X0048422Y0152240D03*
X0155902Y0204209D03*
X0172438Y0203815D03*
X0180312Y0213657D03*
X0185823Y0216807D03*
X0192123Y0220744D03*
X0192123Y0225469D03*
X0191335Y0233343D03*
X0180312Y0232949D03*
X0180312Y0229012D03*
X0176375Y0229012D03*
X0176375Y0232949D03*
X0172438Y0232949D03*
X0172438Y0229012D03*
X0172438Y0225075D03*
X0176375Y0225075D03*
X0161414Y0236098D03*
X0203934Y0220350D03*
X0203934Y0203815D03*
X0190154Y0179406D03*
X0190154Y0164445D03*
X0181886Y0137280D03*
X0222831Y0242398D03*
X0224406Y0270744D03*
D18*
X0225981Y0269957D01*
X0226375Y0269563D01*
X0226375Y0233736D01*
X0207871Y0215232D01*
X0187398Y0215232D01*
X0185823Y0216807D01*
X0183303Y0216706D02*
X0183303Y0216306D01*
X0183687Y0215379D01*
X0184396Y0214670D01*
X0185322Y0214287D01*
X0186039Y0214287D01*
X0186723Y0213602D01*
X0208546Y0213602D01*
X0209501Y0214557D01*
X0228005Y0233061D01*
X0228005Y0270238D01*
X0227406Y0270837D01*
X0227314Y0271113D01*
X0226946Y0271296D01*
X0226877Y0271366D01*
X0226543Y0272172D01*
X0225834Y0272881D01*
X0224908Y0273265D01*
X0223905Y0273265D01*
X0222978Y0272881D01*
X0222269Y0272172D01*
X0221886Y0271245D01*
X0221886Y0270243D01*
X0222269Y0269316D01*
X0222978Y0268607D01*
X0223905Y0268224D01*
X0224745Y0268224D01*
X0224745Y0244049D01*
X0224259Y0244534D01*
X0223333Y0244918D01*
X0222330Y0244918D01*
X0221404Y0244534D01*
X0220695Y0243825D01*
X0220311Y0242899D01*
X0220311Y0241896D01*
X0220695Y0240970D01*
X0221201Y0240463D01*
X0221201Y0234411D01*
X0206323Y0219533D01*
X0206454Y0219849D01*
X0206454Y0220566D01*
X0214225Y0228337D01*
X0214225Y0247010D01*
X0213270Y0247965D01*
X0210908Y0250327D01*
X0187904Y0250327D01*
X0186949Y0249372D01*
X0186329Y0248752D01*
X0159558Y0248752D01*
X0158603Y0247797D01*
X0154440Y0243634D01*
X0148928Y0243634D01*
X0147973Y0242679D01*
X0138678Y0233384D01*
X0127123Y0244938D01*
X0127123Y0245458D01*
X0126740Y0246384D01*
X0126031Y0247093D01*
X0125104Y0247477D01*
X0124102Y0247477D01*
X0123175Y0247093D01*
X0122466Y0246384D01*
X0122083Y0245458D01*
X0122083Y0244455D01*
X0122466Y0243529D01*
X0123175Y0242820D01*
X0124102Y0242436D01*
X0125015Y0242436D01*
X0136373Y0231079D01*
X0119203Y0213909D01*
X0111577Y0213909D01*
X0111070Y0214416D01*
X0110144Y0214800D01*
X0109141Y0214800D01*
X0108215Y0214416D01*
X0107708Y0213909D01*
X0100838Y0213909D01*
X0100219Y0213951D01*
X0100172Y0213909D01*
X0100109Y0213909D01*
X0099670Y0213470D01*
X0099615Y0213422D01*
X0098708Y0213422D01*
X0097782Y0213038D01*
X0097073Y0212329D01*
X0096689Y0211403D01*
X0096689Y0210400D01*
X0097073Y0209474D01*
X0097782Y0208765D01*
X0098708Y0208381D01*
X0099711Y0208381D01*
X0100637Y0208765D01*
X0101346Y0209474D01*
X0101730Y0210400D01*
X0101730Y0210650D01*
X0107708Y0210650D01*
X0108215Y0210143D01*
X0109141Y0209759D01*
X0110144Y0209759D01*
X0111070Y0210143D01*
X0111577Y0210650D01*
X0120554Y0210650D01*
X0139353Y0229449D01*
X0150278Y0240374D01*
X0150783Y0240374D01*
X0150417Y0240005D01*
X0149942Y0239529D01*
X0149942Y0239525D01*
X0107504Y0196698D01*
X0107028Y0196222D01*
X0107028Y0196218D01*
X0107025Y0196215D01*
X0107028Y0195544D01*
X0107028Y0186098D01*
X0104591Y0186098D01*
X0104591Y0188665D01*
X0103745Y0189512D01*
X0100260Y0192996D01*
X0100260Y0202839D01*
X0099414Y0203685D01*
X0093509Y0209591D01*
X0076126Y0209591D01*
X0076438Y0210343D01*
X0076438Y0212248D01*
X0075709Y0214007D01*
X0074362Y0215354D01*
X0072603Y0216083D01*
X0070698Y0216083D01*
X0068938Y0215354D01*
X0067592Y0214007D01*
X0066863Y0212248D01*
X0066863Y0210343D01*
X0067592Y0208583D01*
X0068553Y0207622D01*
X0066702Y0207622D01*
X0066676Y0207646D01*
X0066108Y0207622D01*
X0065540Y0207622D01*
X0065515Y0207597D01*
X0065480Y0207596D01*
X0065095Y0207177D01*
X0064694Y0206776D01*
X0064694Y0206740D01*
X0063679Y0205637D01*
X0062603Y0206083D01*
X0060698Y0206083D01*
X0058938Y0205354D01*
X0057592Y0204007D01*
X0056863Y0202248D01*
X0056863Y0200343D01*
X0057592Y0198583D01*
X0058938Y0197237D01*
X0060698Y0196508D01*
X0062603Y0196508D01*
X0064362Y0197237D01*
X0065709Y0198583D01*
X0066438Y0200343D01*
X0066438Y0202248D01*
X0065832Y0203709D01*
X0066773Y0204732D01*
X0068317Y0204732D01*
X0067592Y0204007D01*
X0066863Y0202248D01*
X0066863Y0200343D01*
X0067592Y0198583D01*
X0068938Y0197237D01*
X0070698Y0196508D01*
X0072603Y0196508D01*
X0074362Y0197237D01*
X0075709Y0198583D01*
X0076438Y0200343D01*
X0076438Y0202248D01*
X0075709Y0204007D01*
X0074984Y0204732D01*
X0083648Y0204732D01*
X0083406Y0204490D01*
X0082619Y0203703D01*
X0082619Y0194254D01*
X0078062Y0189697D01*
X0078062Y0189697D01*
X0077217Y0188852D01*
X0077217Y0190148D01*
X0078128Y0191058D01*
X0078451Y0191058D01*
X0079377Y0191442D01*
X0080086Y0192151D01*
X0080470Y0193077D01*
X0080470Y0194080D01*
X0080086Y0195006D01*
X0079377Y0195715D01*
X0078451Y0196099D01*
X0077448Y0196099D01*
X0076522Y0195715D01*
X0075813Y0195006D01*
X0075429Y0194080D01*
X0075429Y0193077D01*
X0075461Y0193001D01*
X0074912Y0192453D01*
X0073957Y0191498D01*
X0073957Y0186098D01*
X0059894Y0186098D01*
X0059894Y0195041D01*
X0058713Y0196222D01*
X0057758Y0197177D01*
X0056525Y0197177D01*
X0056548Y0197216D01*
X0056650Y0197598D01*
X0056650Y0200811D01*
X0052135Y0200811D01*
X0052135Y0201780D01*
X0056650Y0201780D01*
X0056650Y0204993D01*
X0056548Y0205374D01*
X0056351Y0205716D01*
X0056071Y0205996D01*
X0055729Y0206193D01*
X0055348Y0206295D01*
X0052135Y0206295D01*
X0052135Y0201780D01*
X0051166Y0201780D01*
X0051166Y0206295D01*
X0047953Y0206295D01*
X0047571Y0206193D01*
X0047229Y0205996D01*
X0046950Y0205716D01*
X0046902Y0205634D01*
X0046902Y0206289D01*
X0048394Y0207781D01*
X0048938Y0207237D01*
X0050698Y0206508D01*
X0052603Y0206508D01*
X0054362Y0207237D01*
X0055709Y0208583D01*
X0056438Y0210343D01*
X0056438Y0212248D01*
X0055709Y0214007D01*
X0054362Y0215354D01*
X0053838Y0215571D01*
X0057983Y0215571D01*
X0058569Y0214985D01*
X0057592Y0214007D01*
X0056863Y0212248D01*
X0056863Y0210343D01*
X0057592Y0208583D01*
X0058938Y0207237D01*
X0060698Y0206508D01*
X0062603Y0206508D01*
X0064362Y0207237D01*
X0065709Y0208583D01*
X0066438Y0210343D01*
X0066438Y0212248D01*
X0065709Y0214007D01*
X0064362Y0215354D01*
X0062603Y0216083D01*
X0062081Y0216083D01*
X0060288Y0217876D01*
X0059333Y0218831D01*
X0048842Y0218831D01*
X0048193Y0218852D01*
X0048171Y0218831D01*
X0048140Y0218831D01*
X0047682Y0218372D01*
X0044091Y0215006D01*
X0044091Y0265099D01*
X0044544Y0264646D01*
X0047188Y0263551D01*
X0050050Y0263551D01*
X0052693Y0264646D01*
X0054717Y0266670D01*
X0055812Y0269313D01*
X0055812Y0272175D01*
X0054717Y0274819D01*
X0052693Y0276842D01*
X0050050Y0277937D01*
X0047188Y0277937D01*
X0044544Y0276842D01*
X0044091Y0276389D01*
X0044091Y0280587D01*
X0227467Y0280587D01*
X0228430Y0279886D01*
X0229131Y0278923D01*
X0229131Y0186098D01*
X0187453Y0186098D01*
X0187453Y0202522D01*
X0186499Y0203476D01*
X0184640Y0205335D01*
X0200438Y0205335D01*
X0201413Y0204220D01*
X0201413Y0203314D01*
X0201797Y0202387D01*
X0202506Y0201678D01*
X0203432Y0201294D01*
X0204435Y0201294D01*
X0205361Y0201678D01*
X0205530Y0201846D01*
X0229131Y0201846D01*
X0229131Y0052240D01*
X0206745Y0052240D01*
X0206745Y0056852D01*
X0183516Y0080081D01*
X0183516Y0135345D01*
X0184023Y0135852D01*
X0184407Y0136778D01*
X0184407Y0137781D01*
X0184023Y0138707D01*
X0183314Y0139416D01*
X0182388Y0139800D01*
X0181385Y0139800D01*
X0180459Y0139416D01*
X0179750Y0138707D01*
X0179579Y0138296D01*
X0179579Y0140148D01*
X0187453Y0148022D01*
X0187453Y0201846D01*
X0202338Y0201846D01*
X0202506Y0201678D01*
X0203432Y0201294D01*
X0204435Y0201294D01*
X0205361Y0201678D01*
X0206070Y0202387D01*
X0206454Y0203314D01*
X0206454Y0204316D01*
X0206070Y0205243D01*
X0205361Y0205952D01*
X0204435Y0206335D01*
X0203894Y0206335D01*
X0202808Y0207577D01*
X0202808Y0207640D01*
X0202369Y0208079D01*
X0201960Y0208546D01*
X0201897Y0208550D01*
X0201853Y0208594D01*
X0201232Y0208594D01*
X0200613Y0208636D01*
X0200565Y0208594D01*
X0183349Y0208594D01*
X0180806Y0211137D01*
X0180813Y0211137D01*
X0181739Y0211521D01*
X0182448Y0212230D01*
X0182832Y0213156D01*
X0182832Y0214159D01*
X0182448Y0215085D01*
X0182065Y0215468D01*
X0183303Y0216706D01*
X0183303Y0216338D02*
X0182935Y0216338D01*
X0182194Y0215340D02*
X0183726Y0215340D01*
X0182757Y0214341D02*
X0185190Y0214341D01*
X0182832Y0213343D02*
X0229131Y0213343D01*
X0229131Y0214341D02*
X0209285Y0214341D01*
X0210283Y0215340D02*
X0229131Y0215340D01*
X0229131Y0216338D02*
X0211282Y0216338D01*
X0212280Y0217337D02*
X0229131Y0217337D01*
X0229131Y0218335D02*
X0213279Y0218335D01*
X0214277Y0219334D02*
X0229131Y0219334D01*
X0229131Y0220332D02*
X0215276Y0220332D01*
X0216274Y0221331D02*
X0229131Y0221331D01*
X0229131Y0222329D02*
X0217273Y0222329D01*
X0218271Y0223328D02*
X0229131Y0223328D01*
X0229131Y0224326D02*
X0219270Y0224326D01*
X0220268Y0225325D02*
X0229131Y0225325D01*
X0229131Y0226323D02*
X0221267Y0226323D01*
X0222265Y0227322D02*
X0229131Y0227322D01*
X0229131Y0228320D02*
X0223264Y0228320D01*
X0224262Y0229319D02*
X0229131Y0229319D01*
X0229131Y0230317D02*
X0225261Y0230317D01*
X0226259Y0231316D02*
X0229131Y0231316D01*
X0229131Y0232314D02*
X0227258Y0232314D01*
X0228005Y0233313D02*
X0229131Y0233313D01*
X0229131Y0234311D02*
X0228005Y0234311D01*
X0228005Y0235310D02*
X0229131Y0235310D01*
X0229131Y0236308D02*
X0228005Y0236308D01*
X0228005Y0237307D02*
X0229131Y0237307D01*
X0229131Y0238305D02*
X0228005Y0238305D01*
X0228005Y0239304D02*
X0229131Y0239304D01*
X0229131Y0240303D02*
X0228005Y0240303D01*
X0228005Y0241301D02*
X0229131Y0241301D01*
X0229131Y0242300D02*
X0228005Y0242300D01*
X0228005Y0243298D02*
X0229131Y0243298D01*
X0229131Y0244297D02*
X0228005Y0244297D01*
X0228005Y0245295D02*
X0229131Y0245295D01*
X0229131Y0246294D02*
X0228005Y0246294D01*
X0228005Y0247292D02*
X0229131Y0247292D01*
X0229131Y0248291D02*
X0228005Y0248291D01*
X0228005Y0249289D02*
X0229131Y0249289D01*
X0229131Y0250288D02*
X0228005Y0250288D01*
X0228005Y0251286D02*
X0229131Y0251286D01*
X0229131Y0252285D02*
X0228005Y0252285D01*
X0228005Y0253283D02*
X0229131Y0253283D01*
X0229131Y0254282D02*
X0228005Y0254282D01*
X0228005Y0255280D02*
X0229131Y0255280D01*
X0229131Y0256279D02*
X0228005Y0256279D01*
X0228005Y0257277D02*
X0229131Y0257277D01*
X0229131Y0258276D02*
X0228005Y0258276D01*
X0228005Y0259274D02*
X0229131Y0259274D01*
X0229131Y0260273D02*
X0228005Y0260273D01*
X0228005Y0261271D02*
X0229131Y0261271D01*
X0229131Y0262270D02*
X0228005Y0262270D01*
X0228005Y0263268D02*
X0229131Y0263268D01*
X0229131Y0264267D02*
X0228005Y0264267D01*
X0228005Y0265265D02*
X0229131Y0265265D01*
X0229131Y0266264D02*
X0228005Y0266264D01*
X0228005Y0267262D02*
X0229131Y0267262D01*
X0229131Y0268261D02*
X0228005Y0268261D01*
X0228005Y0269259D02*
X0229131Y0269259D01*
X0229131Y0270258D02*
X0227985Y0270258D01*
X0227026Y0271256D02*
X0229131Y0271256D01*
X0229131Y0272255D02*
X0226460Y0272255D01*
X0224934Y0273253D02*
X0229131Y0273253D01*
X0229131Y0274252D02*
X0101014Y0274252D01*
X0100780Y0274819D02*
X0098756Y0276842D01*
X0096113Y0277937D01*
X0093251Y0277937D01*
X0090607Y0276842D01*
X0088584Y0274819D01*
X0087489Y0272175D01*
X0087489Y0269313D01*
X0088584Y0266670D01*
X0090607Y0264646D01*
X0093251Y0263551D01*
X0096113Y0263551D01*
X0098756Y0264646D01*
X0100780Y0266670D01*
X0101875Y0269313D01*
X0101875Y0272175D01*
X0100780Y0274819D01*
X0100348Y0275250D02*
X0229131Y0275250D01*
X0229131Y0276249D02*
X0099349Y0276249D01*
X0097777Y0277247D02*
X0229131Y0277247D01*
X0229131Y0278246D02*
X0084931Y0278246D01*
X0085101Y0278076D02*
X0083904Y0279273D01*
X0082339Y0279921D01*
X0080646Y0279921D01*
X0079082Y0279273D01*
X0077885Y0278076D01*
X0077237Y0276512D01*
X0077237Y0274819D01*
X0077885Y0273255D01*
X0079082Y0272057D01*
X0080646Y0271409D01*
X0082339Y0271409D01*
X0083904Y0272057D01*
X0085101Y0273255D01*
X0085749Y0274819D01*
X0085749Y0276512D01*
X0085101Y0278076D01*
X0085444Y0277247D02*
X0091586Y0277247D01*
X0090014Y0276249D02*
X0085749Y0276249D01*
X0085749Y0275250D02*
X0089016Y0275250D01*
X0088349Y0274252D02*
X0085514Y0274252D01*
X0085100Y0273253D02*
X0087936Y0273253D01*
X0087522Y0272255D02*
X0084101Y0272255D01*
X0082339Y0270079D02*
X0083904Y0269431D01*
X0085101Y0268234D01*
X0085749Y0266669D01*
X0085749Y0264976D01*
X0085101Y0263412D01*
X0083904Y0262215D01*
X0082339Y0261567D01*
X0080646Y0261567D01*
X0079082Y0262215D01*
X0077885Y0263412D01*
X0077237Y0264976D01*
X0077237Y0266669D01*
X0077885Y0268234D01*
X0079082Y0269431D01*
X0080646Y0270079D01*
X0082339Y0270079D01*
X0084075Y0269259D02*
X0087511Y0269259D01*
X0087489Y0270258D02*
X0062371Y0270258D01*
X0062292Y0270258D02*
X0061323Y0270258D01*
X0061323Y0270270D02*
X0060761Y0270181D01*
X0060092Y0269964D01*
X0059466Y0269645D01*
X0058897Y0269231D01*
X0058399Y0268734D01*
X0057986Y0268165D01*
X0057667Y0267538D01*
X0057449Y0266869D01*
X0057360Y0266307D01*
X0061323Y0266307D01*
X0061323Y0265339D01*
X0057360Y0265339D01*
X0057449Y0264776D01*
X0057667Y0264108D01*
X0057986Y0263481D01*
X0058399Y0262912D01*
X0058897Y0262414D01*
X0059466Y0262001D01*
X0060092Y0261682D01*
X0060761Y0261464D01*
X0061323Y0261375D01*
X0061323Y0265338D01*
X0062292Y0265338D01*
X0062292Y0261375D01*
X0062854Y0261464D01*
X0063523Y0261682D01*
X0064150Y0262001D01*
X0064719Y0262414D01*
X0065216Y0262912D01*
X0065630Y0263481D01*
X0065949Y0264108D01*
X0066166Y0264776D01*
X0066255Y0265339D01*
X0062292Y0265339D01*
X0062292Y0266307D01*
X0066255Y0266307D01*
X0066166Y0266869D01*
X0065949Y0267538D01*
X0065630Y0268165D01*
X0065216Y0268734D01*
X0064719Y0269231D01*
X0064150Y0269645D01*
X0063523Y0269964D01*
X0062854Y0270181D01*
X0062292Y0270270D01*
X0062292Y0266307D01*
X0061323Y0266307D01*
X0061323Y0270270D01*
X0061245Y0270258D02*
X0055812Y0270258D01*
X0055812Y0271256D02*
X0070923Y0271256D01*
X0071166Y0271256D02*
X0072135Y0271256D01*
X0072135Y0271218D02*
X0072697Y0271307D01*
X0073366Y0271524D01*
X0073992Y0271844D01*
X0074561Y0272257D01*
X0075059Y0272754D01*
X0075472Y0273323D01*
X0075791Y0273950D01*
X0076009Y0274619D01*
X0076098Y0275181D01*
X0072135Y0275181D01*
X0072135Y0276150D01*
X0076098Y0276150D01*
X0076009Y0276712D01*
X0075791Y0277381D01*
X0075472Y0278007D01*
X0075059Y0278576D01*
X0074561Y0279074D01*
X0073992Y0279487D01*
X0073366Y0279806D01*
X0072697Y0280024D01*
X0072135Y0280113D01*
X0072135Y0276150D01*
X0071166Y0276150D01*
X0071166Y0280113D01*
X0070604Y0280024D01*
X0069935Y0279806D01*
X0069308Y0279487D01*
X0068739Y0279074D01*
X0068242Y0278576D01*
X0067828Y0278007D01*
X0067509Y0277381D01*
X0067292Y0276712D01*
X0067203Y0276150D01*
X0071166Y0276150D01*
X0071166Y0275181D01*
X0072135Y0275181D01*
X0072135Y0271218D01*
X0072378Y0271256D02*
X0087489Y0271256D01*
X0087925Y0268261D02*
X0085074Y0268261D01*
X0085503Y0267262D02*
X0088338Y0267262D01*
X0088990Y0266264D02*
X0085749Y0266264D01*
X0085749Y0265265D02*
X0089988Y0265265D01*
X0091523Y0264267D02*
X0085455Y0264267D01*
X0084957Y0263268D02*
X0224745Y0263268D01*
X0224745Y0262270D02*
X0083958Y0262270D01*
X0079027Y0262270D02*
X0064520Y0262270D01*
X0065475Y0263268D02*
X0078029Y0263268D01*
X0077531Y0264267D02*
X0066001Y0264267D01*
X0066244Y0265265D02*
X0077237Y0265265D01*
X0077237Y0266264D02*
X0062292Y0266264D01*
X0061323Y0266264D02*
X0054311Y0266264D01*
X0054962Y0267262D02*
X0057577Y0267262D01*
X0058056Y0268261D02*
X0055376Y0268261D01*
X0055789Y0269259D02*
X0058935Y0269259D01*
X0061323Y0269259D02*
X0062292Y0269259D01*
X0062292Y0268261D02*
X0061323Y0268261D01*
X0061323Y0267262D02*
X0062292Y0267262D01*
X0062292Y0265265D02*
X0061323Y0265265D01*
X0061323Y0264267D02*
X0062292Y0264267D01*
X0062292Y0263268D02*
X0061323Y0263268D01*
X0061323Y0262270D02*
X0062292Y0262270D01*
X0059096Y0262270D02*
X0044091Y0262270D01*
X0044091Y0263268D02*
X0058140Y0263268D01*
X0057615Y0264267D02*
X0051777Y0264267D01*
X0053312Y0265265D02*
X0057372Y0265265D01*
X0059397Y0272057D02*
X0060961Y0271409D01*
X0062654Y0271409D01*
X0064219Y0272057D01*
X0065416Y0273255D01*
X0066064Y0274819D01*
X0066064Y0276512D01*
X0065416Y0278076D01*
X0064219Y0279273D01*
X0062654Y0279921D01*
X0060961Y0279921D01*
X0059397Y0279273D01*
X0058200Y0278076D01*
X0057552Y0276512D01*
X0057552Y0274819D01*
X0058200Y0273255D01*
X0059397Y0272057D01*
X0059199Y0272255D02*
X0055779Y0272255D01*
X0055365Y0273253D02*
X0058201Y0273253D01*
X0057787Y0274252D02*
X0054951Y0274252D01*
X0054285Y0275250D02*
X0057552Y0275250D01*
X0057552Y0276249D02*
X0053286Y0276249D01*
X0051714Y0277247D02*
X0057857Y0277247D01*
X0058370Y0278246D02*
X0044091Y0278246D01*
X0044091Y0279244D02*
X0059368Y0279244D01*
X0064247Y0279244D02*
X0068974Y0279244D01*
X0068002Y0278246D02*
X0065246Y0278246D01*
X0065759Y0277247D02*
X0067466Y0277247D01*
X0067218Y0276249D02*
X0066064Y0276249D01*
X0066064Y0275250D02*
X0071166Y0275250D01*
X0071166Y0275181D02*
X0067203Y0275181D01*
X0067292Y0274619D01*
X0067509Y0273950D01*
X0067828Y0273323D01*
X0068242Y0272754D01*
X0068739Y0272257D01*
X0069308Y0271844D01*
X0069935Y0271524D01*
X0070604Y0271307D01*
X0071166Y0271218D01*
X0071166Y0275181D01*
X0071166Y0274252D02*
X0072135Y0274252D01*
X0072135Y0275250D02*
X0077237Y0275250D01*
X0077237Y0276249D02*
X0076082Y0276249D01*
X0075835Y0277247D02*
X0077542Y0277247D01*
X0078055Y0278246D02*
X0075299Y0278246D01*
X0074326Y0279244D02*
X0079053Y0279244D01*
X0083932Y0279244D02*
X0228897Y0279244D01*
X0227940Y0280243D02*
X0044091Y0280243D01*
X0044091Y0277247D02*
X0045523Y0277247D01*
X0045460Y0264267D02*
X0044091Y0264267D01*
X0044091Y0261271D02*
X0224745Y0261271D01*
X0224745Y0260273D02*
X0044091Y0260273D01*
X0044091Y0259274D02*
X0224745Y0259274D01*
X0224745Y0258276D02*
X0044091Y0258276D01*
X0044091Y0257277D02*
X0224745Y0257277D01*
X0224745Y0256279D02*
X0044091Y0256279D01*
X0044091Y0255280D02*
X0224745Y0255280D01*
X0224745Y0254282D02*
X0044091Y0254282D01*
X0044091Y0253283D02*
X0224745Y0253283D01*
X0224745Y0252285D02*
X0044091Y0252285D01*
X0044091Y0251286D02*
X0224745Y0251286D01*
X0224745Y0250288D02*
X0210947Y0250288D01*
X0211946Y0249289D02*
X0224745Y0249289D01*
X0224745Y0248291D02*
X0212944Y0248291D01*
X0213943Y0247292D02*
X0224745Y0247292D01*
X0224745Y0246294D02*
X0214225Y0246294D01*
X0214225Y0245295D02*
X0224745Y0245295D01*
X0224745Y0244297D02*
X0224497Y0244297D01*
X0222831Y0242398D02*
X0222831Y0233736D01*
X0206296Y0217201D01*
X0189760Y0217201D01*
X0187398Y0219957D01*
X0184249Y0219957D01*
X0180312Y0216020D01*
X0180312Y0213657D01*
X0181317Y0211346D02*
X0229131Y0211346D01*
X0229131Y0212344D02*
X0182496Y0212344D01*
X0181596Y0210347D02*
X0229131Y0210347D01*
X0229131Y0209349D02*
X0182595Y0209349D01*
X0182674Y0206965D02*
X0201178Y0206965D01*
X0203934Y0203815D01*
X0203879Y0206353D02*
X0229131Y0206353D01*
X0229131Y0205355D02*
X0205959Y0205355D01*
X0206438Y0204356D02*
X0229131Y0204356D01*
X0229131Y0203358D02*
X0206454Y0203358D01*
X0206042Y0202359D02*
X0229131Y0202359D01*
X0229131Y0201361D02*
X0204595Y0201361D01*
X0229131Y0201361D01*
X0229131Y0200362D02*
X0187453Y0200362D01*
X0229131Y0200362D01*
X0229131Y0199364D02*
X0187453Y0199364D01*
X0229131Y0199364D01*
X0229131Y0198365D02*
X0187453Y0198365D01*
X0229131Y0198365D01*
X0229131Y0197367D02*
X0187453Y0197367D01*
X0229131Y0197367D01*
X0229131Y0196368D02*
X0187453Y0196368D01*
X0229131Y0196368D01*
X0229131Y0195370D02*
X0187453Y0195370D01*
X0229131Y0195370D01*
X0229131Y0194371D02*
X0187453Y0194371D01*
X0229131Y0194371D01*
X0229131Y0193372D02*
X0187453Y0193372D01*
X0229131Y0193372D01*
X0229131Y0192374D02*
X0187453Y0192374D01*
X0229131Y0192374D01*
X0229131Y0191375D02*
X0187453Y0191375D01*
X0229131Y0191375D01*
X0229131Y0190377D02*
X0187453Y0190377D01*
X0229131Y0190377D01*
X0229131Y0189378D02*
X0187453Y0189378D01*
X0229131Y0189378D01*
X0229131Y0188380D02*
X0187453Y0188380D01*
X0229131Y0188380D01*
X0229131Y0187381D02*
X0187453Y0187381D01*
X0229131Y0187381D01*
X0229131Y0186383D02*
X0187453Y0186383D01*
X0229131Y0186383D01*
X0229131Y0185384D02*
X0187453Y0185384D01*
X0187453Y0184386D02*
X0229131Y0184386D01*
X0229131Y0183387D02*
X0187453Y0183387D01*
X0187453Y0182389D02*
X0229131Y0182389D01*
X0229131Y0181390D02*
X0191734Y0181390D01*
X0191582Y0181542D02*
X0190656Y0181926D01*
X0189653Y0181926D01*
X0188726Y0181542D01*
X0188017Y0180833D01*
X0187634Y0179907D01*
X0187634Y0178904D01*
X0188017Y0177978D01*
X0188524Y0177471D01*
X0188524Y0166379D01*
X0188017Y0165873D01*
X0187634Y0164946D01*
X0187634Y0163944D01*
X0188017Y0163017D01*
X0188726Y0162308D01*
X0189653Y0161924D01*
X0190656Y0161924D01*
X0191582Y0162308D01*
X0192291Y0163017D01*
X0192675Y0163944D01*
X0192675Y0164946D01*
X0192291Y0165873D01*
X0191784Y0166379D01*
X0191784Y0177471D01*
X0192291Y0177978D01*
X0192675Y0178904D01*
X0192675Y0179907D01*
X0192291Y0180833D01*
X0191582Y0181542D01*
X0192474Y0180392D02*
X0229131Y0180392D01*
X0229131Y0179393D02*
X0192675Y0179393D01*
X0192464Y0178395D02*
X0229131Y0178395D01*
X0229131Y0177396D02*
X0191784Y0177396D01*
X0191784Y0176398D02*
X0229131Y0176398D01*
X0229131Y0175399D02*
X0191784Y0175399D01*
X0191784Y0174401D02*
X0229131Y0174401D01*
X0229131Y0173402D02*
X0191784Y0173402D01*
X0191784Y0172404D02*
X0229131Y0172404D01*
X0229131Y0171405D02*
X0191784Y0171405D01*
X0191784Y0170407D02*
X0229131Y0170407D01*
X0229131Y0169408D02*
X0191784Y0169408D01*
X0191784Y0168410D02*
X0229131Y0168410D01*
X0229131Y0167411D02*
X0191784Y0167411D01*
X0191784Y0166413D02*
X0229131Y0166413D01*
X0229131Y0165414D02*
X0192481Y0165414D01*
X0192675Y0164416D02*
X0229131Y0164416D01*
X0229131Y0163417D02*
X0192457Y0163417D01*
X0191692Y0162419D02*
X0229131Y0162419D01*
X0229131Y0161420D02*
X0187453Y0161420D01*
X0187453Y0160422D02*
X0229131Y0160422D01*
X0229131Y0159423D02*
X0187453Y0159423D01*
X0187453Y0158425D02*
X0229131Y0158425D01*
X0229131Y0157426D02*
X0187453Y0157426D01*
X0187453Y0156428D02*
X0229131Y0156428D01*
X0229131Y0155429D02*
X0187453Y0155429D01*
X0187453Y0154431D02*
X0229131Y0154431D01*
X0229131Y0153432D02*
X0187453Y0153432D01*
X0187453Y0152434D02*
X0229131Y0152434D01*
X0229131Y0151435D02*
X0187453Y0151435D01*
X0187453Y0150436D02*
X0229131Y0150436D01*
X0229131Y0149438D02*
X0187453Y0149438D01*
X0187453Y0148439D02*
X0229131Y0148439D01*
X0229131Y0147441D02*
X0186873Y0147441D01*
X0185874Y0146442D02*
X0229131Y0146442D01*
X0229131Y0145444D02*
X0184876Y0145444D01*
X0183877Y0144445D02*
X0229131Y0144445D01*
X0229131Y0143447D02*
X0182879Y0143447D01*
X0181880Y0142448D02*
X0229131Y0142448D01*
X0229131Y0141450D02*
X0180882Y0141450D01*
X0179883Y0140451D02*
X0229131Y0140451D01*
X0229131Y0139453D02*
X0183226Y0139453D01*
X0184128Y0138454D02*
X0229131Y0138454D01*
X0229131Y0137456D02*
X0184407Y0137456D01*
X0184274Y0136457D02*
X0229131Y0136457D01*
X0229131Y0135459D02*
X0183630Y0135459D01*
X0183516Y0134460D02*
X0229131Y0134460D01*
X0229131Y0133462D02*
X0183516Y0133462D01*
X0183516Y0132463D02*
X0229131Y0132463D01*
X0229131Y0131465D02*
X0183516Y0131465D01*
X0183516Y0130466D02*
X0229131Y0130466D01*
X0229131Y0129468D02*
X0183516Y0129468D01*
X0183516Y0128469D02*
X0229131Y0128469D01*
X0229131Y0127471D02*
X0183516Y0127471D01*
X0183516Y0126472D02*
X0229131Y0126472D01*
X0229131Y0125474D02*
X0183516Y0125474D01*
X0183516Y0124475D02*
X0229131Y0124475D01*
X0229131Y0123477D02*
X0183516Y0123477D01*
X0183516Y0122478D02*
X0229131Y0122478D01*
X0229131Y0121480D02*
X0183516Y0121480D01*
X0183516Y0120481D02*
X0229131Y0120481D01*
X0229131Y0119483D02*
X0183516Y0119483D01*
X0183516Y0118484D02*
X0229131Y0118484D01*
X0229131Y0117486D02*
X0183516Y0117486D01*
X0183516Y0116487D02*
X0229131Y0116487D01*
X0229131Y0115489D02*
X0183516Y0115489D01*
X0183516Y0114490D02*
X0229131Y0114490D01*
X0229131Y0113492D02*
X0183516Y0113492D01*
X0183516Y0112493D02*
X0229131Y0112493D01*
X0229131Y0111495D02*
X0183516Y0111495D01*
X0183516Y0110496D02*
X0229131Y0110496D01*
X0229131Y0109498D02*
X0183516Y0109498D01*
X0183516Y0108499D02*
X0229131Y0108499D01*
X0229131Y0107501D02*
X0183516Y0107501D01*
X0183516Y0106502D02*
X0229131Y0106502D01*
X0229131Y0105503D02*
X0183516Y0105503D01*
X0183516Y0104505D02*
X0229131Y0104505D01*
X0229131Y0103506D02*
X0183516Y0103506D01*
X0183516Y0102508D02*
X0229131Y0102508D01*
X0229131Y0101509D02*
X0183516Y0101509D01*
X0183516Y0100511D02*
X0229131Y0100511D01*
X0229131Y0099512D02*
X0183516Y0099512D01*
X0183516Y0098514D02*
X0229131Y0098514D01*
X0229131Y0097515D02*
X0183516Y0097515D01*
X0183516Y0096517D02*
X0229131Y0096517D01*
X0229131Y0095518D02*
X0183516Y0095518D01*
X0183516Y0094520D02*
X0229131Y0094520D01*
X0229131Y0093521D02*
X0183516Y0093521D01*
X0183516Y0092523D02*
X0229131Y0092523D01*
X0229131Y0091524D02*
X0183516Y0091524D01*
X0183516Y0090526D02*
X0229131Y0090526D01*
X0229131Y0089527D02*
X0183516Y0089527D01*
X0183516Y0088529D02*
X0229131Y0088529D01*
X0229131Y0087530D02*
X0183516Y0087530D01*
X0183516Y0086532D02*
X0229131Y0086532D01*
X0229131Y0085533D02*
X0183516Y0085533D01*
X0183516Y0084535D02*
X0229131Y0084535D01*
X0229131Y0083536D02*
X0183516Y0083536D01*
X0183516Y0082538D02*
X0229131Y0082538D01*
X0229131Y0081539D02*
X0183516Y0081539D01*
X0183516Y0080541D02*
X0229131Y0080541D01*
X0229131Y0079542D02*
X0184055Y0079542D01*
X0185053Y0078544D02*
X0229131Y0078544D01*
X0229131Y0077545D02*
X0186052Y0077545D01*
X0187050Y0076547D02*
X0229131Y0076547D01*
X0229131Y0075548D02*
X0188049Y0075548D01*
X0189047Y0074550D02*
X0229131Y0074550D01*
X0229131Y0073551D02*
X0190046Y0073551D01*
X0191044Y0072553D02*
X0229131Y0072553D01*
X0229131Y0071554D02*
X0192043Y0071554D01*
X0193041Y0070556D02*
X0229131Y0070556D01*
X0229131Y0069557D02*
X0194040Y0069557D01*
X0195038Y0068559D02*
X0229131Y0068559D01*
X0229131Y0067560D02*
X0196037Y0067560D01*
X0197035Y0066562D02*
X0229131Y0066562D01*
X0229131Y0065563D02*
X0198034Y0065563D01*
X0199033Y0064565D02*
X0229131Y0064565D01*
X0229131Y0063566D02*
X0200031Y0063566D01*
X0201030Y0062567D02*
X0229131Y0062567D01*
X0229131Y0061569D02*
X0202028Y0061569D01*
X0203027Y0060570D02*
X0229131Y0060570D01*
X0229131Y0059572D02*
X0204025Y0059572D01*
X0205024Y0058573D02*
X0229131Y0058573D01*
X0229131Y0057575D02*
X0206022Y0057575D01*
X0206745Y0056576D02*
X0229131Y0056576D01*
X0229131Y0055578D02*
X0206745Y0055578D01*
X0206745Y0054579D02*
X0229131Y0054579D01*
X0229131Y0053581D02*
X0206745Y0053581D01*
X0206745Y0052582D02*
X0229131Y0052582D01*
X0205115Y0056177D02*
X0205115Y0041610D01*
X0199209Y0035705D01*
X0088973Y0035705D01*
X0055509Y0069169D01*
X0055509Y0078618D01*
X0051178Y0064051D02*
X0057477Y0057752D01*
X0057477Y0053421D01*
X0073619Y0056177D02*
X0073619Y0116020D01*
X0061414Y0128224D01*
X0061414Y0158146D01*
X0067713Y0164051D01*
X0073619Y0164051D01*
X0075194Y0160902D02*
X0076768Y0162476D01*
X0076768Y0167988D01*
X0074012Y0170744D01*
X0070469Y0170744D01*
X0068501Y0160902D02*
X0075194Y0160902D01*
X0076375Y0158146D02*
X0080705Y0162476D01*
X0080705Y0179799D01*
X0078737Y0181768D01*
X0078737Y0188067D01*
X0084249Y0193579D01*
X0084249Y0203028D01*
X0085036Y0203815D01*
X0089367Y0203815D01*
X0091926Y0201059D01*
X0087792Y0201059D02*
X0087792Y0193185D01*
X0081493Y0186886D01*
X0081493Y0182949D01*
X0083855Y0180587D01*
X0083855Y0160508D01*
X0078737Y0155390D01*
X0071650Y0155390D01*
X0070863Y0154602D01*
X0070863Y0129406D01*
X0099997Y0100272D01*
X0099997Y0098303D01*
X0107477Y0090823D01*
X0107477Y0049484D01*
X0105120Y0048588D02*
X0080814Y0048588D01*
X0080716Y0048686D02*
X0081267Y0049238D01*
X0081651Y0050164D01*
X0081651Y0051167D01*
X0081267Y0052093D01*
X0080912Y0052449D01*
X0080952Y0052466D01*
X0081661Y0053175D01*
X0082045Y0054101D01*
X0082045Y0055104D01*
X0081661Y0056030D01*
X0080952Y0056739D01*
X0080026Y0057123D01*
X0079309Y0057123D01*
X0078737Y0057695D01*
X0078737Y0099091D01*
X0088186Y0099091D01*
X0089128Y0098148D01*
X0089258Y0097834D01*
X0089399Y0097693D01*
X0089399Y0065334D01*
X0089092Y0065026D01*
X0088618Y0063883D01*
X0088618Y0062645D01*
X0089092Y0061502D01*
X0089967Y0060626D01*
X0091110Y0060153D01*
X0092348Y0060153D01*
X0093491Y0060626D01*
X0094366Y0061502D01*
X0094840Y0062645D01*
X0094840Y0063883D01*
X0094366Y0065026D01*
X0094059Y0065334D01*
X0094059Y0093217D01*
X0095272Y0092004D01*
X0100054Y0092004D01*
X0101910Y0090148D01*
X0101910Y0065514D01*
X0099031Y0062635D01*
X0098314Y0062635D01*
X0097388Y0062251D01*
X0096679Y0061542D01*
X0096295Y0060616D01*
X0096295Y0059613D01*
X0096679Y0058686D01*
X0097388Y0057977D01*
X0098314Y0057594D01*
X0099317Y0057594D01*
X0100243Y0057977D01*
X0100952Y0058686D01*
X0101336Y0059613D01*
X0101336Y0060330D01*
X0105170Y0064163D01*
X0105170Y0090825D01*
X0105847Y0090148D01*
X0105847Y0051419D01*
X0105340Y0050912D01*
X0104957Y0049986D01*
X0104957Y0048983D01*
X0105340Y0048057D01*
X0106049Y0047348D01*
X0106976Y0046964D01*
X0107978Y0046964D01*
X0108905Y0047348D01*
X0109614Y0048057D01*
X0109997Y0048983D01*
X0109997Y0049986D01*
X0109614Y0050912D01*
X0109107Y0051419D01*
X0109107Y0091498D01*
X0108601Y0092004D01*
X0112146Y0092004D01*
X0112146Y0078978D01*
X0111639Y0078471D01*
X0111256Y0077545D01*
X0109107Y0077545D01*
X0109107Y0076547D02*
X0111256Y0076547D01*
X0111256Y0076542D02*
X0111639Y0075616D01*
X0112348Y0074907D01*
X0113275Y0074523D01*
X0114278Y0074523D01*
X0115204Y0074907D01*
X0115913Y0075616D01*
X0116297Y0076542D01*
X0116297Y0077545D01*
X0115913Y0078471D01*
X0115406Y0078978D01*
X0115406Y0088799D01*
X0119627Y0084579D01*
X0119627Y0083061D01*
X0120581Y0082106D01*
X0122944Y0079744D01*
X0125306Y0079744D01*
X0136949Y0068100D01*
X0136949Y0058427D01*
X0130763Y0052240D01*
X0118894Y0052240D01*
X0118894Y0089699D01*
X0119627Y0088967D01*
X0119627Y0083061D01*
X0120581Y0082106D01*
X0122944Y0079744D01*
X0124461Y0079744D01*
X0136611Y0067594D01*
X0136949Y0060145D01*
X0136949Y0058427D01*
X0128682Y0050159D01*
X0128682Y0048809D01*
X0128682Y0045513D01*
X0128175Y0045006D01*
X0127791Y0044080D01*
X0127791Y0043077D01*
X0128175Y0042151D01*
X0128884Y0041442D01*
X0129810Y0041058D01*
X0130813Y0041058D01*
X0131739Y0041442D01*
X0132448Y0042151D01*
X0132674Y0042695D01*
X0132899Y0042151D01*
X0133608Y0041442D01*
X0134535Y0041058D01*
X0135537Y0041058D01*
X0136464Y0041442D01*
X0136971Y0041949D01*
X0146453Y0041949D01*
X0146453Y0038461D01*
X0090942Y0038461D01*
X0080716Y0048686D01*
X0081412Y0049587D02*
X0104957Y0049587D01*
X0105205Y0050585D02*
X0081651Y0050585D01*
X0081478Y0051584D02*
X0105847Y0051584D01*
X0105847Y0052582D02*
X0081069Y0052582D01*
X0081829Y0053581D02*
X0105847Y0053581D01*
X0105847Y0054579D02*
X0082045Y0054579D01*
X0081848Y0055578D02*
X0105847Y0055578D01*
X0105847Y0056576D02*
X0081115Y0056576D01*
X0078857Y0057575D02*
X0105847Y0057575D01*
X0105847Y0058573D02*
X0100839Y0058573D01*
X0101319Y0059572D02*
X0105847Y0059572D01*
X0105847Y0060570D02*
X0101577Y0060570D01*
X0102575Y0061569D02*
X0105847Y0061569D01*
X0105847Y0062567D02*
X0103574Y0062567D01*
X0104573Y0063566D02*
X0105847Y0063566D01*
X0105847Y0064565D02*
X0105170Y0064565D01*
X0105170Y0065563D02*
X0105847Y0065563D01*
X0105847Y0066562D02*
X0105170Y0066562D01*
X0105170Y0067560D02*
X0105847Y0067560D01*
X0105847Y0068559D02*
X0105170Y0068559D01*
X0105170Y0069557D02*
X0105847Y0069557D01*
X0105847Y0070556D02*
X0105170Y0070556D01*
X0105170Y0071554D02*
X0105847Y0071554D01*
X0105847Y0072553D02*
X0105170Y0072553D01*
X0105170Y0073551D02*
X0105847Y0073551D01*
X0105847Y0074550D02*
X0105170Y0074550D01*
X0105170Y0075548D02*
X0105847Y0075548D01*
X0105847Y0076547D02*
X0105170Y0076547D01*
X0105170Y0077545D02*
X0105847Y0077545D01*
X0105847Y0078544D02*
X0105170Y0078544D01*
X0105170Y0079542D02*
X0105847Y0079542D01*
X0105847Y0080541D02*
X0105170Y0080541D01*
X0105170Y0081539D02*
X0105847Y0081539D01*
X0105847Y0082538D02*
X0105170Y0082538D01*
X0105170Y0083536D02*
X0105847Y0083536D01*
X0105847Y0084535D02*
X0105170Y0084535D01*
X0105170Y0085533D02*
X0105847Y0085533D01*
X0105847Y0086532D02*
X0105170Y0086532D01*
X0105170Y0087530D02*
X0105847Y0087530D01*
X0105847Y0088529D02*
X0105170Y0088529D01*
X0105170Y0089527D02*
X0105847Y0089527D01*
X0105469Y0090526D02*
X0105170Y0090526D01*
X0103540Y0090823D02*
X0103540Y0064839D01*
X0098816Y0060114D01*
X0098152Y0062567D02*
X0094808Y0062567D01*
X0094840Y0063566D02*
X0099962Y0063566D01*
X0100961Y0064565D02*
X0094558Y0064565D01*
X0094059Y0065563D02*
X0101910Y0065563D01*
X0101910Y0066562D02*
X0094059Y0066562D01*
X0094059Y0067560D02*
X0101910Y0067560D01*
X0101910Y0068559D02*
X0094059Y0068559D01*
X0094059Y0069557D02*
X0101910Y0069557D01*
X0101910Y0070556D02*
X0094059Y0070556D01*
X0094059Y0071554D02*
X0101910Y0071554D01*
X0101910Y0072553D02*
X0094059Y0072553D01*
X0094059Y0073551D02*
X0101910Y0073551D01*
X0101910Y0074550D02*
X0094059Y0074550D01*
X0094059Y0075548D02*
X0101910Y0075548D01*
X0101910Y0076547D02*
X0094059Y0076547D01*
X0094059Y0077545D02*
X0101910Y0077545D01*
X0101910Y0078544D02*
X0094059Y0078544D01*
X0094059Y0079542D02*
X0101910Y0079542D01*
X0101910Y0080541D02*
X0094059Y0080541D01*
X0094059Y0081539D02*
X0101910Y0081539D01*
X0101910Y0082538D02*
X0094059Y0082538D01*
X0094059Y0083536D02*
X0101910Y0083536D01*
X0101910Y0084535D02*
X0094059Y0084535D01*
X0094059Y0085533D02*
X0101910Y0085533D01*
X0101910Y0086532D02*
X0094059Y0086532D01*
X0094059Y0087530D02*
X0101910Y0087530D01*
X0101910Y0088529D02*
X0094059Y0088529D01*
X0094059Y0089527D02*
X0101910Y0089527D01*
X0101532Y0090526D02*
X0094059Y0090526D01*
X0094059Y0091524D02*
X0100533Y0091524D01*
X0103540Y0090823D02*
X0097241Y0097122D01*
X0097241Y0099484D01*
X0067713Y0129012D01*
X0067713Y0156177D01*
X0069682Y0158146D01*
X0076375Y0158146D01*
X0074012Y0152634D02*
X0079918Y0152634D01*
X0083461Y0156177D01*
X0087398Y0156177D01*
X0083855Y0152634D02*
X0074012Y0142791D01*
X0074012Y0129799D01*
X0102753Y0101059D01*
X0102753Y0099484D01*
X0105509Y0096728D01*
X0109081Y0091524D02*
X0112146Y0091524D01*
X0112146Y0090526D02*
X0109107Y0090526D01*
X0109107Y0089527D02*
X0112146Y0089527D01*
X0112146Y0088529D02*
X0109107Y0088529D01*
X0109107Y0087530D02*
X0112146Y0087530D01*
X0112146Y0086532D02*
X0109107Y0086532D01*
X0109107Y0085533D02*
X0112146Y0085533D01*
X0112146Y0084535D02*
X0109107Y0084535D01*
X0109107Y0083536D02*
X0112146Y0083536D01*
X0112146Y0082538D02*
X0109107Y0082538D01*
X0109107Y0081539D02*
X0112146Y0081539D01*
X0112146Y0080541D02*
X0109107Y0080541D01*
X0109107Y0079542D02*
X0112146Y0079542D01*
X0111712Y0078544D02*
X0109107Y0078544D01*
X0111256Y0077545D02*
X0111256Y0076542D01*
X0111707Y0075548D02*
X0109107Y0075548D01*
X0109107Y0074550D02*
X0113210Y0074550D01*
X0114342Y0074550D02*
X0129656Y0074550D01*
X0130500Y0074550D02*
X0118894Y0074550D01*
X0118894Y0075548D02*
X0129502Y0075548D01*
X0128657Y0075548D02*
X0115846Y0075548D01*
X0116297Y0076547D02*
X0127659Y0076547D01*
X0128503Y0076547D02*
X0118894Y0076547D01*
X0118894Y0077545D02*
X0127505Y0077545D01*
X0126660Y0077545D02*
X0116297Y0077545D01*
X0115840Y0078544D02*
X0125662Y0078544D01*
X0126506Y0078544D02*
X0118894Y0078544D01*
X0118894Y0079542D02*
X0125508Y0079542D01*
X0124663Y0079542D02*
X0115406Y0079542D01*
X0115406Y0080541D02*
X0122147Y0080541D01*
X0118894Y0080541D01*
X0118894Y0081539D02*
X0121148Y0081539D01*
X0115406Y0081539D01*
X0115406Y0082538D02*
X0120150Y0082538D01*
X0118894Y0082538D01*
X0118894Y0083536D02*
X0119627Y0083536D01*
X0115406Y0083536D01*
X0115406Y0084535D02*
X0119627Y0084535D01*
X0118894Y0084535D01*
X0118894Y0085533D02*
X0119627Y0085533D01*
X0118672Y0085533D02*
X0115406Y0085533D01*
X0115406Y0086532D02*
X0117674Y0086532D01*
X0118894Y0086532D02*
X0119627Y0086532D01*
X0119627Y0087530D02*
X0118894Y0087530D01*
X0118894Y0088529D02*
X0119627Y0088529D01*
X0119066Y0089527D02*
X0118894Y0089527D01*
X0121257Y0089642D02*
X0080312Y0130587D01*
X0080312Y0141610D01*
X0085823Y0147122D01*
X0104721Y0147122D01*
X0107477Y0149878D01*
X0107477Y0161295D01*
X0102359Y0166413D01*
X0102359Y0168382D01*
X0104721Y0170744D01*
X0106296Y0166807D02*
X0110233Y0162870D01*
X0110233Y0148303D01*
X0106690Y0144760D01*
X0087005Y0144760D01*
X0083461Y0141217D01*
X0083461Y0130980D01*
X0146453Y0067988D01*
X0146453Y0043579D01*
X0135036Y0043579D01*
X0132714Y0042597D02*
X0132633Y0042597D01*
X0131896Y0041599D02*
X0133452Y0041599D01*
X0130312Y0043579D02*
X0130312Y0049484D01*
X0138579Y0057752D01*
X0138579Y0068776D01*
X0125981Y0081374D01*
X0123619Y0081374D01*
X0121257Y0083736D01*
X0121257Y0089642D01*
X0116675Y0087530D02*
X0115406Y0087530D01*
X0115406Y0088529D02*
X0115677Y0088529D01*
X0113776Y0093579D02*
X0077162Y0130193D01*
X0077162Y0142004D01*
X0085036Y0149878D01*
X0096847Y0149878D01*
X0099209Y0152240D01*
X0099209Y0162870D01*
X0094879Y0163657D02*
X0094879Y0154209D01*
X0092910Y0152634D01*
X0083855Y0152634D01*
X0089760Y0142004D02*
X0089760Y0131768D01*
X0154721Y0066807D01*
X0154721Y0043579D01*
X0151572Y0040429D02*
X0149997Y0042004D01*
X0149997Y0067988D01*
X0086611Y0131374D01*
X0086611Y0138854D01*
X0092910Y0138854D02*
X0092910Y0132161D01*
X0159839Y0065232D01*
X0159839Y0056571D01*
X0164957Y0063657D02*
X0164957Y0043579D01*
X0168501Y0040429D01*
X0181099Y0040429D01*
X0184249Y0043579D01*
X0179524Y0043579D02*
X0179524Y0056177D01*
X0102359Y0133343D01*
X0102359Y0142004D01*
X0105509Y0138854D02*
X0105509Y0133736D01*
X0189367Y0049878D01*
X0189367Y0043579D01*
X0194485Y0043579D02*
X0194485Y0048303D01*
X0108658Y0134130D01*
X0108658Y0142004D01*
X0114957Y0131768D02*
X0114957Y0178224D01*
X0114170Y0179012D01*
X0118894Y0179393D02*
X0184194Y0179393D01*
X0184194Y0178395D02*
X0118894Y0178395D01*
X0118894Y0177396D02*
X0184194Y0177396D01*
X0184194Y0176398D02*
X0118894Y0176398D01*
X0118894Y0175399D02*
X0184194Y0175399D01*
X0184194Y0174401D02*
X0118894Y0174401D01*
X0118894Y0173402D02*
X0184194Y0173402D01*
X0184194Y0172404D02*
X0118894Y0172404D01*
X0118894Y0171405D02*
X0184194Y0171405D01*
X0184194Y0170407D02*
X0118894Y0170407D01*
X0118894Y0169408D02*
X0184194Y0169408D01*
X0184194Y0168410D02*
X0118894Y0168410D01*
X0118894Y0167411D02*
X0184194Y0167411D01*
X0184194Y0166413D02*
X0118894Y0166413D01*
X0118894Y0165414D02*
X0184194Y0165414D01*
X0184194Y0164416D02*
X0118894Y0164416D01*
X0118894Y0163417D02*
X0184194Y0163417D01*
X0184194Y0162419D02*
X0118894Y0162419D01*
X0118894Y0161420D02*
X0184194Y0161420D01*
X0184194Y0160422D02*
X0118894Y0160422D01*
X0118894Y0159423D02*
X0184194Y0159423D01*
X0184194Y0158425D02*
X0118894Y0158425D01*
X0118894Y0157426D02*
X0184194Y0157426D01*
X0184194Y0156428D02*
X0118894Y0156428D01*
X0118894Y0155429D02*
X0184194Y0155429D01*
X0184194Y0154431D02*
X0118894Y0154431D01*
X0118894Y0153432D02*
X0184194Y0153432D01*
X0184194Y0152434D02*
X0118894Y0152434D01*
X0118894Y0151435D02*
X0184194Y0151435D01*
X0184194Y0150436D02*
X0118894Y0150436D01*
X0118894Y0149438D02*
X0184194Y0149438D01*
X0184194Y0149372D02*
X0177274Y0142453D01*
X0176320Y0141498D01*
X0176320Y0077943D01*
X0177274Y0076988D01*
X0195302Y0058961D01*
X0194986Y0059091D01*
X0193984Y0059091D01*
X0193057Y0058708D01*
X0192550Y0058201D01*
X0190438Y0058201D01*
X0118894Y0130121D01*
X0118894Y0185368D01*
X0119176Y0185650D01*
X0120131Y0186604D01*
X0120131Y0194872D01*
X0123403Y0198145D01*
X0124120Y0198145D01*
X0125046Y0198529D01*
X0125755Y0199238D01*
X0126139Y0200164D01*
X0126139Y0200881D01*
X0127105Y0201846D01*
X0155019Y0201846D01*
X0155401Y0201688D01*
X0156404Y0201688D01*
X0156786Y0201846D01*
X0170842Y0201846D01*
X0171010Y0201678D01*
X0171936Y0201294D01*
X0172939Y0201294D01*
X0173865Y0201678D01*
X0174034Y0201846D01*
X0183518Y0201846D01*
X0184194Y0201171D01*
X0184194Y0149372D01*
X0183261Y0148439D02*
X0118894Y0148439D01*
X0118894Y0147441D02*
X0182263Y0147441D01*
X0181264Y0146442D02*
X0118894Y0146442D01*
X0118894Y0145444D02*
X0180266Y0145444D01*
X0179267Y0144445D02*
X0118894Y0144445D01*
X0118894Y0143447D02*
X0178268Y0143447D01*
X0177270Y0142448D02*
X0118894Y0142448D01*
X0118894Y0141450D02*
X0176320Y0141450D01*
X0176320Y0140451D02*
X0118894Y0140451D01*
X0118894Y0139453D02*
X0176320Y0139453D01*
X0176320Y0138454D02*
X0118894Y0138454D01*
X0118894Y0137456D02*
X0176320Y0137456D01*
X0176320Y0136457D02*
X0118894Y0136457D01*
X0118894Y0135459D02*
X0176320Y0135459D01*
X0176320Y0134460D02*
X0118894Y0134460D01*
X0118894Y0133462D02*
X0176320Y0133462D01*
X0176320Y0132463D02*
X0118894Y0132463D01*
X0118894Y0131465D02*
X0176320Y0131465D01*
X0176320Y0130466D02*
X0118894Y0130466D01*
X0119544Y0129468D02*
X0176320Y0129468D01*
X0176320Y0128469D02*
X0120538Y0128469D01*
X0121531Y0127471D02*
X0176320Y0127471D01*
X0176320Y0126472D02*
X0122524Y0126472D01*
X0123517Y0125474D02*
X0176320Y0125474D01*
X0176320Y0124475D02*
X0124511Y0124475D01*
X0125504Y0123477D02*
X0176320Y0123477D01*
X0176320Y0122478D02*
X0126497Y0122478D01*
X0127491Y0121480D02*
X0176320Y0121480D01*
X0176320Y0120481D02*
X0128484Y0120481D01*
X0129477Y0119483D02*
X0176320Y0119483D01*
X0176320Y0118484D02*
X0130470Y0118484D01*
X0131464Y0117486D02*
X0176320Y0117486D01*
X0176320Y0116487D02*
X0132457Y0116487D01*
X0133450Y0115489D02*
X0176320Y0115489D01*
X0176320Y0114490D02*
X0134444Y0114490D01*
X0135437Y0113492D02*
X0176320Y0113492D01*
X0176320Y0112493D02*
X0136430Y0112493D01*
X0137423Y0111495D02*
X0176320Y0111495D01*
X0176320Y0110496D02*
X0138417Y0110496D01*
X0139410Y0109498D02*
X0176320Y0109498D01*
X0176320Y0108499D02*
X0140403Y0108499D01*
X0141397Y0107501D02*
X0176320Y0107501D01*
X0176320Y0106502D02*
X0142390Y0106502D01*
X0143383Y0105503D02*
X0176320Y0105503D01*
X0176320Y0104505D02*
X0144376Y0104505D01*
X0145370Y0103506D02*
X0176320Y0103506D01*
X0176320Y0102508D02*
X0146363Y0102508D01*
X0147356Y0101509D02*
X0176320Y0101509D01*
X0176320Y0100511D02*
X0148350Y0100511D01*
X0149343Y0099512D02*
X0176320Y0099512D01*
X0176320Y0098514D02*
X0150336Y0098514D01*
X0151329Y0097515D02*
X0176320Y0097515D01*
X0176320Y0096517D02*
X0152323Y0096517D01*
X0153316Y0095518D02*
X0176320Y0095518D01*
X0176320Y0094520D02*
X0154309Y0094520D01*
X0155302Y0093521D02*
X0176320Y0093521D01*
X0176320Y0092523D02*
X0156296Y0092523D01*
X0157289Y0091524D02*
X0176320Y0091524D01*
X0176320Y0090526D02*
X0158282Y0090526D01*
X0159276Y0089527D02*
X0176320Y0089527D01*
X0176320Y0088529D02*
X0160269Y0088529D01*
X0161262Y0087530D02*
X0176320Y0087530D01*
X0176320Y0086532D02*
X0162255Y0086532D01*
X0163249Y0085533D02*
X0176320Y0085533D01*
X0176320Y0084535D02*
X0164242Y0084535D01*
X0165235Y0083536D02*
X0176320Y0083536D01*
X0176320Y0082538D02*
X0166229Y0082538D01*
X0167222Y0081539D02*
X0176320Y0081539D01*
X0176320Y0080541D02*
X0168215Y0080541D01*
X0169208Y0079542D02*
X0176320Y0079542D01*
X0176320Y0078544D02*
X0170202Y0078544D01*
X0171195Y0077545D02*
X0176717Y0077545D01*
X0177716Y0076547D02*
X0172188Y0076547D01*
X0173182Y0075548D02*
X0178714Y0075548D01*
X0179713Y0074550D02*
X0174175Y0074550D01*
X0175168Y0073551D02*
X0180711Y0073551D01*
X0181710Y0072553D02*
X0176161Y0072553D01*
X0177155Y0071554D02*
X0182708Y0071554D01*
X0183707Y0070556D02*
X0178148Y0070556D01*
X0179141Y0069557D02*
X0184705Y0069557D01*
X0185704Y0068559D02*
X0180135Y0068559D01*
X0181128Y0067560D02*
X0186702Y0067560D01*
X0187701Y0066562D02*
X0182121Y0066562D01*
X0183114Y0065563D02*
X0188699Y0065563D01*
X0189698Y0064565D02*
X0184108Y0064565D01*
X0185101Y0063566D02*
X0190697Y0063566D01*
X0191695Y0062567D02*
X0186094Y0062567D01*
X0187088Y0061569D02*
X0192694Y0061569D01*
X0193692Y0060570D02*
X0188081Y0060570D01*
X0189074Y0059572D02*
X0194691Y0059572D01*
X0192923Y0058573D02*
X0190067Y0058573D01*
X0189760Y0056571D02*
X0114957Y0131768D01*
X0099209Y0132949D02*
X0169682Y0062476D01*
X0169682Y0043579D01*
X0162989Y0038067D02*
X0162398Y0038657D01*
X0162989Y0038067D02*
X0195863Y0038067D01*
X0201572Y0043972D01*
X0201572Y0054996D01*
X0177949Y0078618D01*
X0177949Y0140823D01*
X0185823Y0148697D01*
X0185823Y0201846D01*
X0183855Y0203815D01*
X0172438Y0203815D01*
X0174372Y0205445D02*
X0173865Y0205952D01*
X0172939Y0206335D01*
X0171936Y0206335D01*
X0171010Y0205952D01*
X0170301Y0205243D01*
X0169917Y0204316D01*
X0169917Y0203314D01*
X0170301Y0202387D01*
X0171010Y0201678D01*
X0171936Y0201294D01*
X0172939Y0201294D01*
X0173865Y0201678D01*
X0174372Y0202185D01*
X0183180Y0202185D01*
X0184194Y0201171D01*
X0184194Y0186098D01*
X0119625Y0186098D01*
X0120131Y0186604D01*
X0120131Y0194872D01*
X0123403Y0198145D01*
X0124120Y0198145D01*
X0125046Y0198529D01*
X0125755Y0199238D01*
X0126139Y0200164D01*
X0126139Y0200881D01*
X0127837Y0202579D01*
X0153968Y0202579D01*
X0154474Y0202072D01*
X0155401Y0201688D01*
X0156404Y0201688D01*
X0157330Y0202072D01*
X0158039Y0202781D01*
X0158423Y0203707D01*
X0158423Y0204710D01*
X0158039Y0205636D01*
X0157532Y0206143D01*
X0157532Y0227943D01*
X0159727Y0230138D01*
X0164845Y0230138D01*
X0165800Y0231093D01*
X0169569Y0234862D01*
X0182786Y0234862D01*
X0183800Y0233848D01*
X0183800Y0230699D01*
X0184755Y0229744D01*
X0187400Y0227098D01*
X0186477Y0227098D01*
X0186462Y0227113D01*
X0185806Y0227098D01*
X0185148Y0227098D01*
X0185133Y0227083D01*
X0185112Y0227083D01*
X0184658Y0226608D01*
X0184194Y0226144D01*
X0184194Y0226123D01*
X0175997Y0217553D01*
X0175532Y0217089D01*
X0175532Y0217067D01*
X0175518Y0217052D01*
X0175532Y0216395D01*
X0175532Y0211801D01*
X0181044Y0206289D01*
X0181889Y0205445D01*
X0174372Y0205445D01*
X0177985Y0209349D02*
X0157532Y0209349D01*
X0157532Y0210347D02*
X0176986Y0210347D01*
X0175988Y0211346D02*
X0157532Y0211346D01*
X0157532Y0212344D02*
X0175532Y0212344D01*
X0175532Y0213343D02*
X0157532Y0213343D01*
X0157532Y0214341D02*
X0175532Y0214341D01*
X0175532Y0215340D02*
X0157532Y0215340D01*
X0157532Y0216338D02*
X0175532Y0216338D01*
X0175780Y0217337D02*
X0157532Y0217337D01*
X0157532Y0218335D02*
X0176745Y0218335D01*
X0177700Y0219334D02*
X0157532Y0219334D01*
X0157532Y0220332D02*
X0178655Y0220332D01*
X0179610Y0221331D02*
X0157532Y0221331D01*
X0157532Y0222329D02*
X0180565Y0222329D01*
X0181520Y0223328D02*
X0157532Y0223328D01*
X0157532Y0224326D02*
X0182475Y0224326D01*
X0183431Y0225325D02*
X0157532Y0225325D01*
X0157532Y0226323D02*
X0184373Y0226323D01*
X0185823Y0225469D02*
X0177162Y0216413D01*
X0177162Y0212476D01*
X0182674Y0206965D01*
X0180980Y0206353D02*
X0157532Y0206353D01*
X0157532Y0207352D02*
X0179982Y0207352D01*
X0178983Y0208350D02*
X0157532Y0208350D01*
X0158156Y0205355D02*
X0170413Y0205355D01*
X0169934Y0204356D02*
X0158423Y0204356D01*
X0158278Y0203358D02*
X0169917Y0203358D01*
X0170329Y0202359D02*
X0157617Y0202359D01*
X0155902Y0204209D02*
X0155902Y0228618D01*
X0159052Y0231768D01*
X0164170Y0231768D01*
X0168894Y0236492D01*
X0183461Y0236492D01*
X0185430Y0234524D01*
X0185430Y0231374D01*
X0188186Y0228618D01*
X0193304Y0228618D01*
X0195272Y0226650D01*
X0195272Y0224287D01*
X0192123Y0220744D01*
X0193774Y0218831D02*
X0194259Y0219316D01*
X0194643Y0220243D01*
X0194643Y0221126D01*
X0196459Y0223169D01*
X0196902Y0223612D01*
X0196902Y0223668D01*
X0196939Y0223709D01*
X0196902Y0224335D01*
X0196902Y0227325D01*
X0195947Y0228280D01*
X0193979Y0230248D01*
X0188861Y0230248D01*
X0187060Y0232049D01*
X0187060Y0235199D01*
X0185091Y0237167D01*
X0185034Y0237224D01*
X0187511Y0237224D01*
X0189582Y0235153D01*
X0189199Y0234770D01*
X0188815Y0233844D01*
X0188815Y0232841D01*
X0189199Y0231915D01*
X0189908Y0231206D01*
X0190834Y0230822D01*
X0191837Y0230822D01*
X0192763Y0231206D01*
X0193472Y0231915D01*
X0193856Y0232841D01*
X0193856Y0233844D01*
X0193472Y0234770D01*
X0192965Y0235277D01*
X0192965Y0236380D01*
X0192010Y0237335D01*
X0189233Y0240112D01*
X0189475Y0240353D01*
X0189919Y0241424D01*
X0189919Y0241458D01*
X0191030Y0242430D01*
X0205014Y0242430D01*
X0205321Y0242122D01*
X0206464Y0241649D01*
X0207702Y0241649D01*
X0208846Y0242122D01*
X0209721Y0242998D01*
X0210194Y0244141D01*
X0210194Y0245379D01*
X0209721Y0246522D01*
X0209176Y0247067D01*
X0209558Y0247067D01*
X0210965Y0245659D01*
X0210965Y0229687D01*
X0204149Y0222871D01*
X0203432Y0222871D01*
X0202506Y0222487D01*
X0201797Y0221778D01*
X0201413Y0220852D01*
X0201413Y0219849D01*
X0201797Y0218923D01*
X0201889Y0218831D01*
X0193774Y0218831D01*
X0194267Y0219334D02*
X0201627Y0219334D01*
X0201413Y0220332D02*
X0194643Y0220332D01*
X0194825Y0221331D02*
X0201612Y0221331D01*
X0202348Y0222329D02*
X0195713Y0222329D01*
X0196618Y0223328D02*
X0204606Y0223328D01*
X0205605Y0224326D02*
X0196903Y0224326D01*
X0196902Y0225325D02*
X0206603Y0225325D01*
X0207602Y0226323D02*
X0196902Y0226323D01*
X0196902Y0227322D02*
X0208600Y0227322D01*
X0209599Y0228320D02*
X0195907Y0228320D01*
X0194908Y0229319D02*
X0210597Y0229319D01*
X0210965Y0230317D02*
X0188791Y0230317D01*
X0187793Y0231316D02*
X0189797Y0231316D01*
X0189033Y0232314D02*
X0187060Y0232314D01*
X0187060Y0233313D02*
X0188815Y0233313D01*
X0189009Y0234311D02*
X0187060Y0234311D01*
X0186948Y0235310D02*
X0189425Y0235310D01*
X0188426Y0236308D02*
X0185950Y0236308D01*
X0183337Y0234311D02*
X0169019Y0234311D01*
X0168020Y0233313D02*
X0183800Y0233313D01*
X0183800Y0232314D02*
X0167022Y0232314D01*
X0166023Y0231316D02*
X0183800Y0231316D01*
X0184181Y0230317D02*
X0165025Y0230317D01*
X0163495Y0233398D02*
X0158377Y0233398D01*
X0154272Y0229293D01*
X0154272Y0227943D01*
X0154272Y0206143D01*
X0153968Y0205839D01*
X0126487Y0205839D01*
X0123834Y0203186D01*
X0123117Y0203186D01*
X0122191Y0202802D01*
X0121482Y0202093D01*
X0121098Y0201167D01*
X0121098Y0200450D01*
X0116871Y0196222D01*
X0116871Y0187955D01*
X0115014Y0186098D01*
X0114722Y0186098D01*
X0114722Y0186993D01*
X0114338Y0187920D01*
X0113831Y0188427D01*
X0113831Y0194478D01*
X0154215Y0234862D01*
X0159198Y0234862D01*
X0159277Y0234671D01*
X0159986Y0233962D01*
X0160913Y0233578D01*
X0161915Y0233578D01*
X0162842Y0233962D01*
X0163551Y0234671D01*
X0163934Y0235597D01*
X0163934Y0236600D01*
X0163676Y0237224D01*
X0167322Y0237224D01*
X0163495Y0233398D01*
X0163192Y0234311D02*
X0164409Y0234311D01*
X0163816Y0235310D02*
X0165407Y0235310D01*
X0166406Y0236308D02*
X0163934Y0236308D01*
X0161414Y0236098D02*
X0161020Y0236492D01*
X0153540Y0236492D01*
X0112201Y0195154D01*
X0112201Y0186492D01*
X0114561Y0187381D02*
X0116297Y0187381D01*
X0116871Y0188380D02*
X0113878Y0188380D01*
X0113831Y0189378D02*
X0116871Y0189378D01*
X0116871Y0190377D02*
X0113831Y0190377D01*
X0113831Y0191375D02*
X0116871Y0191375D01*
X0116871Y0192374D02*
X0113831Y0192374D01*
X0113831Y0193372D02*
X0116871Y0193372D01*
X0116871Y0194371D02*
X0113831Y0194371D01*
X0114722Y0195370D02*
X0116871Y0195370D01*
X0117016Y0196368D02*
X0115721Y0196368D01*
X0116719Y0197367D02*
X0118015Y0197367D01*
X0117718Y0198365D02*
X0119013Y0198365D01*
X0118716Y0199364D02*
X0120012Y0199364D01*
X0119715Y0200362D02*
X0121010Y0200362D01*
X0121179Y0201361D02*
X0120714Y0201361D01*
X0121712Y0202359D02*
X0121748Y0202359D01*
X0122711Y0203358D02*
X0124006Y0203358D01*
X0123709Y0204356D02*
X0125004Y0204356D01*
X0124708Y0205355D02*
X0126003Y0205355D01*
X0125706Y0206353D02*
X0154272Y0206353D01*
X0154272Y0207352D02*
X0126705Y0207352D01*
X0127703Y0208350D02*
X0154272Y0208350D01*
X0154272Y0209349D02*
X0128702Y0209349D01*
X0129700Y0210347D02*
X0154272Y0210347D01*
X0154272Y0211346D02*
X0130699Y0211346D01*
X0131697Y0212344D02*
X0154272Y0212344D01*
X0154272Y0213343D02*
X0132696Y0213343D01*
X0133694Y0214341D02*
X0154272Y0214341D01*
X0154272Y0215340D02*
X0134693Y0215340D01*
X0135691Y0216338D02*
X0154272Y0216338D01*
X0154272Y0217337D02*
X0136690Y0217337D01*
X0137688Y0218335D02*
X0154272Y0218335D01*
X0154272Y0219334D02*
X0138687Y0219334D01*
X0139685Y0220332D02*
X0154272Y0220332D01*
X0154272Y0221331D02*
X0140684Y0221331D01*
X0141682Y0222329D02*
X0154272Y0222329D01*
X0154272Y0223328D02*
X0142681Y0223328D01*
X0143679Y0224326D02*
X0154272Y0224326D01*
X0154272Y0225325D02*
X0144678Y0225325D01*
X0145676Y0226323D02*
X0154272Y0226323D01*
X0154272Y0227322D02*
X0146675Y0227322D01*
X0147673Y0228320D02*
X0154272Y0228320D01*
X0154298Y0229319D02*
X0148672Y0229319D01*
X0149670Y0230317D02*
X0155296Y0230317D01*
X0156295Y0231316D02*
X0150669Y0231316D01*
X0151667Y0232314D02*
X0157293Y0232314D01*
X0158292Y0233313D02*
X0152666Y0233313D01*
X0153664Y0234311D02*
X0159637Y0234311D01*
X0158908Y0229319D02*
X0185180Y0229319D01*
X0184755Y0229744D02*
X0184755Y0229744D01*
X0186178Y0228320D02*
X0157910Y0228320D01*
X0157532Y0227322D02*
X0187177Y0227322D01*
X0185823Y0225469D02*
X0192123Y0225469D01*
X0192873Y0231316D02*
X0210965Y0231316D01*
X0210965Y0232314D02*
X0193638Y0232314D01*
X0193856Y0233313D02*
X0210965Y0233313D01*
X0210965Y0234311D02*
X0193662Y0234311D01*
X0192965Y0235310D02*
X0210965Y0235310D01*
X0210965Y0236308D02*
X0192965Y0236308D01*
X0192038Y0237307D02*
X0210965Y0237307D01*
X0210965Y0238305D02*
X0191040Y0238305D01*
X0190041Y0239304D02*
X0210965Y0239304D01*
X0210965Y0240303D02*
X0189424Y0240303D01*
X0189868Y0241301D02*
X0210965Y0241301D01*
X0210965Y0242300D02*
X0209023Y0242300D01*
X0209845Y0243298D02*
X0210965Y0243298D01*
X0210965Y0244297D02*
X0210194Y0244297D01*
X0210194Y0245295D02*
X0210965Y0245295D01*
X0210331Y0246294D02*
X0209815Y0246294D01*
X0210233Y0248697D02*
X0212595Y0246335D01*
X0212595Y0229012D01*
X0203934Y0220350D01*
X0206454Y0220332D02*
X0207122Y0220332D01*
X0207219Y0221331D02*
X0208121Y0221331D01*
X0208218Y0222329D02*
X0209119Y0222329D01*
X0209216Y0223328D02*
X0210118Y0223328D01*
X0210215Y0224326D02*
X0211116Y0224326D01*
X0211213Y0225325D02*
X0212115Y0225325D01*
X0212212Y0226323D02*
X0213113Y0226323D01*
X0213210Y0227322D02*
X0214112Y0227322D01*
X0214209Y0228320D02*
X0215110Y0228320D01*
X0214225Y0229319D02*
X0216109Y0229319D01*
X0217107Y0230317D02*
X0214225Y0230317D01*
X0214225Y0231316D02*
X0218106Y0231316D01*
X0219105Y0232314D02*
X0214225Y0232314D01*
X0214225Y0233313D02*
X0220103Y0233313D01*
X0221102Y0234311D02*
X0214225Y0234311D01*
X0214225Y0235310D02*
X0221201Y0235310D01*
X0221201Y0236308D02*
X0214225Y0236308D01*
X0214225Y0237307D02*
X0221201Y0237307D01*
X0221201Y0238305D02*
X0214225Y0238305D01*
X0214225Y0239304D02*
X0221201Y0239304D01*
X0221201Y0240303D02*
X0214225Y0240303D01*
X0214225Y0241301D02*
X0220557Y0241301D01*
X0220311Y0242300D02*
X0214225Y0242300D01*
X0214225Y0243298D02*
X0220476Y0243298D01*
X0221166Y0244297D02*
X0214225Y0244297D01*
X0210233Y0248697D02*
X0188579Y0248697D01*
X0187005Y0247122D01*
X0160233Y0247122D01*
X0155115Y0242004D01*
X0149603Y0242004D01*
X0138678Y0231079D01*
X0124800Y0244957D01*
X0124603Y0244957D01*
X0123655Y0247292D02*
X0044091Y0247292D01*
X0044091Y0246294D02*
X0122429Y0246294D01*
X0122083Y0245295D02*
X0044091Y0245295D01*
X0044091Y0244297D02*
X0122148Y0244297D01*
X0122697Y0243298D02*
X0044091Y0243298D01*
X0044091Y0242300D02*
X0125152Y0242300D01*
X0126150Y0241301D02*
X0044091Y0241301D01*
X0044091Y0240303D02*
X0127149Y0240303D01*
X0128147Y0239304D02*
X0044091Y0239304D01*
X0044091Y0238305D02*
X0129146Y0238305D01*
X0130145Y0237307D02*
X0044091Y0237307D01*
X0044091Y0236308D02*
X0131143Y0236308D01*
X0132142Y0235310D02*
X0044091Y0235310D01*
X0044091Y0234311D02*
X0133140Y0234311D01*
X0134139Y0233313D02*
X0044091Y0233313D01*
X0044091Y0232314D02*
X0135137Y0232314D01*
X0136136Y0231316D02*
X0044091Y0231316D01*
X0044091Y0230317D02*
X0135611Y0230317D01*
X0134613Y0229319D02*
X0044091Y0229319D01*
X0044091Y0228320D02*
X0133614Y0228320D01*
X0132616Y0227322D02*
X0044091Y0227322D01*
X0044091Y0226323D02*
X0131617Y0226323D01*
X0130619Y0225325D02*
X0044091Y0225325D01*
X0044091Y0224326D02*
X0129620Y0224326D01*
X0128622Y0223328D02*
X0044091Y0223328D01*
X0044091Y0222329D02*
X0127623Y0222329D01*
X0126625Y0221331D02*
X0044091Y0221331D01*
X0044091Y0220332D02*
X0125626Y0220332D01*
X0124628Y0219334D02*
X0044091Y0219334D01*
X0044091Y0218335D02*
X0047643Y0218335D01*
X0046578Y0217337D02*
X0044091Y0217337D01*
X0044091Y0216338D02*
X0045512Y0216338D01*
X0044447Y0215340D02*
X0044091Y0215340D01*
X0042516Y0211295D02*
X0042516Y0189248D01*
X0048422Y0182949D01*
X0048422Y0152240D01*
X0064564Y0156965D02*
X0068501Y0160902D01*
X0064564Y0156965D02*
X0064564Y0128618D01*
X0076768Y0116413D01*
X0076768Y0057358D01*
X0079524Y0054602D01*
X0079131Y0050665D02*
X0073619Y0056177D01*
X0078737Y0058573D02*
X0096792Y0058573D01*
X0096312Y0059572D02*
X0078737Y0059572D01*
X0078737Y0060570D02*
X0090102Y0060570D01*
X0089064Y0061569D02*
X0078737Y0061569D01*
X0078737Y0062567D02*
X0088650Y0062567D01*
X0088618Y0063566D02*
X0078737Y0063566D01*
X0078737Y0064565D02*
X0088900Y0064565D01*
X0089399Y0065563D02*
X0078737Y0065563D01*
X0078737Y0066562D02*
X0089399Y0066562D01*
X0089399Y0067560D02*
X0078737Y0067560D01*
X0078737Y0068559D02*
X0089399Y0068559D01*
X0089399Y0069557D02*
X0078737Y0069557D01*
X0078737Y0070556D02*
X0089399Y0070556D01*
X0089399Y0071554D02*
X0078737Y0071554D01*
X0078737Y0072553D02*
X0089399Y0072553D01*
X0089399Y0073551D02*
X0078737Y0073551D01*
X0078737Y0074550D02*
X0089399Y0074550D01*
X0089399Y0075548D02*
X0078737Y0075548D01*
X0078737Y0076547D02*
X0089399Y0076547D01*
X0089399Y0077545D02*
X0078737Y0077545D01*
X0078737Y0078544D02*
X0089399Y0078544D01*
X0089399Y0079542D02*
X0078737Y0079542D01*
X0078737Y0080541D02*
X0089399Y0080541D01*
X0089399Y0081539D02*
X0078737Y0081539D01*
X0078737Y0082538D02*
X0089399Y0082538D01*
X0089399Y0083536D02*
X0078737Y0083536D01*
X0078737Y0084535D02*
X0089399Y0084535D01*
X0089399Y0085533D02*
X0078737Y0085533D01*
X0078737Y0086532D02*
X0089399Y0086532D01*
X0089399Y0087530D02*
X0078737Y0087530D01*
X0078737Y0088529D02*
X0089399Y0088529D01*
X0089399Y0089527D02*
X0078737Y0089527D01*
X0078737Y0090526D02*
X0089399Y0090526D01*
X0089399Y0091524D02*
X0078737Y0091524D01*
X0078737Y0092523D02*
X0089399Y0092523D01*
X0089399Y0093521D02*
X0078737Y0093521D01*
X0078737Y0094520D02*
X0089399Y0094520D01*
X0089399Y0095518D02*
X0078737Y0095518D01*
X0078737Y0096517D02*
X0089399Y0096517D01*
X0089399Y0097515D02*
X0078737Y0097515D01*
X0078737Y0098514D02*
X0088762Y0098514D01*
X0094059Y0092523D02*
X0094753Y0092523D01*
X0109107Y0073551D02*
X0130654Y0073551D01*
X0131499Y0073551D02*
X0118894Y0073551D01*
X0118894Y0072553D02*
X0132497Y0072553D01*
X0131653Y0072553D02*
X0109107Y0072553D01*
X0109107Y0071554D02*
X0132651Y0071554D01*
X0133496Y0071554D02*
X0118894Y0071554D01*
X0118894Y0070556D02*
X0134494Y0070556D01*
X0133650Y0070556D02*
X0109107Y0070556D01*
X0109107Y0069557D02*
X0134648Y0069557D01*
X0135493Y0069557D02*
X0118894Y0069557D01*
X0118894Y0068559D02*
X0136491Y0068559D01*
X0135647Y0068559D02*
X0109107Y0068559D01*
X0109107Y0067560D02*
X0136612Y0067560D01*
X0136949Y0067560D02*
X0118894Y0067560D01*
X0118894Y0066562D02*
X0136949Y0066562D01*
X0136658Y0066562D02*
X0109107Y0066562D01*
X0109107Y0065563D02*
X0136703Y0065563D01*
X0136949Y0065563D02*
X0118894Y0065563D01*
X0118894Y0064565D02*
X0136949Y0064565D01*
X0136749Y0064565D02*
X0109107Y0064565D01*
X0109107Y0063566D02*
X0136794Y0063566D01*
X0136949Y0063566D02*
X0118894Y0063566D01*
X0118894Y0062567D02*
X0136949Y0062567D01*
X0136839Y0062567D02*
X0109107Y0062567D01*
X0109107Y0061569D02*
X0136885Y0061569D01*
X0136949Y0061569D02*
X0118894Y0061569D01*
X0118894Y0060570D02*
X0136949Y0060570D01*
X0136930Y0060570D02*
X0109107Y0060570D01*
X0109107Y0059572D02*
X0136949Y0059572D01*
X0118894Y0059572D01*
X0118894Y0058573D02*
X0136949Y0058573D01*
X0109107Y0058573D01*
X0109107Y0057575D02*
X0136097Y0057575D01*
X0118894Y0057575D01*
X0118894Y0056576D02*
X0135099Y0056576D01*
X0109107Y0056576D01*
X0109107Y0055578D02*
X0134100Y0055578D01*
X0118894Y0055578D01*
X0118894Y0054579D02*
X0133102Y0054579D01*
X0109107Y0054579D01*
X0109107Y0053581D02*
X0132103Y0053581D01*
X0118894Y0053581D01*
X0118894Y0052582D02*
X0131105Y0052582D01*
X0109107Y0052582D01*
X0109107Y0051584D02*
X0130106Y0051584D01*
X0129108Y0050585D02*
X0109749Y0050585D01*
X0109997Y0049587D02*
X0128682Y0049587D01*
X0128682Y0048588D02*
X0109834Y0048588D01*
X0109147Y0047590D02*
X0128682Y0047590D01*
X0128682Y0046591D02*
X0082811Y0046591D01*
X0083809Y0045593D02*
X0128682Y0045593D01*
X0128004Y0044594D02*
X0084808Y0044594D01*
X0085806Y0043596D02*
X0127791Y0043596D01*
X0127990Y0042597D02*
X0086805Y0042597D01*
X0087803Y0041599D02*
X0128727Y0041599D01*
X0136621Y0041599D02*
X0146453Y0041599D01*
X0146453Y0040600D02*
X0088802Y0040600D01*
X0089800Y0039602D02*
X0146453Y0039602D01*
X0146453Y0038603D02*
X0090799Y0038603D01*
X0081812Y0047590D02*
X0105807Y0047590D01*
X0096295Y0060570D02*
X0093356Y0060570D01*
X0094394Y0061569D02*
X0096706Y0061569D01*
X0113776Y0077043D02*
X0113776Y0093579D01*
X0124800Y0084524D02*
X0126375Y0084524D01*
X0142910Y0067988D01*
X0142910Y0057358D01*
X0151572Y0040429D02*
X0158264Y0040429D01*
X0159839Y0042004D01*
X0159839Y0043579D01*
X0164957Y0063657D02*
X0096060Y0132555D01*
X0096060Y0142004D01*
X0099209Y0138854D02*
X0099209Y0132949D01*
X0096847Y0169957D02*
X0090942Y0169957D01*
X0092516Y0173500D02*
X0096453Y0173500D01*
X0101572Y0178618D01*
X0105902Y0178618D01*
X0108658Y0181374D01*
X0108658Y0195547D01*
X0151572Y0238854D01*
X0188186Y0238854D01*
X0191335Y0235705D01*
X0191335Y0233343D01*
X0190881Y0242300D02*
X0205144Y0242300D01*
X0187865Y0250288D02*
X0044091Y0250288D01*
X0044091Y0249289D02*
X0186867Y0249289D01*
X0182977Y0263294D02*
X0180953Y0263294D01*
X0179083Y0264069D01*
X0177652Y0265500D01*
X0177053Y0266948D01*
X0177053Y0264049D01*
X0176298Y0263294D01*
X0167632Y0263294D01*
X0166878Y0264049D01*
X0166878Y0272715D01*
X0167632Y0273469D01*
X0176298Y0273469D01*
X0177053Y0272715D01*
X0177053Y0269816D01*
X0177652Y0271264D01*
X0179083Y0272695D01*
X0180953Y0273469D01*
X0182977Y0273469D01*
X0184847Y0272695D01*
X0186278Y0271264D01*
X0186965Y0269605D01*
X0187652Y0271264D01*
X0189083Y0272695D01*
X0190953Y0273469D01*
X0192977Y0273469D01*
X0194847Y0272695D01*
X0196278Y0271264D01*
X0196965Y0269605D01*
X0197652Y0271264D01*
X0199083Y0272695D01*
X0200953Y0273469D01*
X0202977Y0273469D01*
X0204847Y0272695D01*
X0206278Y0271264D01*
X0207053Y0269394D01*
X0207053Y0267370D01*
X0206278Y0265500D01*
X0204847Y0264069D01*
X0202977Y0263294D01*
X0200953Y0263294D01*
X0199083Y0264069D01*
X0197652Y0265500D01*
X0196965Y0267159D01*
X0196278Y0265500D01*
X0194847Y0264069D01*
X0192977Y0263294D01*
X0190953Y0263294D01*
X0189083Y0264069D01*
X0187652Y0265500D01*
X0186965Y0267159D01*
X0186278Y0265500D01*
X0184847Y0264069D01*
X0182977Y0263294D01*
X0185045Y0264267D02*
X0188886Y0264267D01*
X0187887Y0265265D02*
X0186043Y0265265D01*
X0186594Y0266264D02*
X0187336Y0266264D01*
X0187236Y0270258D02*
X0186695Y0270258D01*
X0186281Y0271256D02*
X0187649Y0271256D01*
X0188644Y0272255D02*
X0185287Y0272255D01*
X0183498Y0273253D02*
X0190432Y0273253D01*
X0193498Y0273253D02*
X0200432Y0273253D01*
X0198644Y0272255D02*
X0195287Y0272255D01*
X0196281Y0271256D02*
X0197649Y0271256D01*
X0197236Y0270258D02*
X0196695Y0270258D01*
X0196594Y0266264D02*
X0197336Y0266264D01*
X0197887Y0265265D02*
X0196043Y0265265D01*
X0195045Y0264267D02*
X0198886Y0264267D01*
X0205045Y0264267D02*
X0224745Y0264267D01*
X0224745Y0265265D02*
X0206043Y0265265D01*
X0206594Y0266264D02*
X0224745Y0266264D01*
X0224745Y0267262D02*
X0207008Y0267262D01*
X0207053Y0268261D02*
X0223815Y0268261D01*
X0222326Y0269259D02*
X0207053Y0269259D01*
X0206695Y0270258D02*
X0221886Y0270258D01*
X0221890Y0271256D02*
X0206281Y0271256D01*
X0205287Y0272255D02*
X0222352Y0272255D01*
X0223878Y0273253D02*
X0203498Y0273253D01*
X0180432Y0273253D02*
X0176514Y0273253D01*
X0177053Y0272255D02*
X0178644Y0272255D01*
X0177649Y0271256D02*
X0177053Y0271256D01*
X0177053Y0270258D02*
X0177236Y0270258D01*
X0177336Y0266264D02*
X0177053Y0266264D01*
X0177053Y0265265D02*
X0177887Y0265265D01*
X0177053Y0264267D02*
X0178886Y0264267D01*
X0166878Y0264267D02*
X0097840Y0264267D01*
X0099375Y0265265D02*
X0166878Y0265265D01*
X0166878Y0266264D02*
X0100374Y0266264D01*
X0101025Y0267262D02*
X0166878Y0267262D01*
X0166878Y0268261D02*
X0101439Y0268261D01*
X0101852Y0269259D02*
X0166878Y0269259D01*
X0166878Y0270258D02*
X0101875Y0270258D01*
X0101875Y0271256D02*
X0166878Y0271256D01*
X0166878Y0272255D02*
X0101842Y0272255D01*
X0101428Y0273253D02*
X0167416Y0273253D01*
X0159096Y0248291D02*
X0044091Y0248291D01*
X0065560Y0268261D02*
X0077912Y0268261D01*
X0077482Y0267262D02*
X0066038Y0267262D01*
X0064680Y0269259D02*
X0078911Y0269259D01*
X0078884Y0272255D02*
X0074558Y0272255D01*
X0075421Y0273253D02*
X0077886Y0273253D01*
X0077472Y0274252D02*
X0075889Y0274252D01*
X0072135Y0273253D02*
X0071166Y0273253D01*
X0071166Y0272255D02*
X0072135Y0272255D01*
X0068742Y0272255D02*
X0064416Y0272255D01*
X0065415Y0273253D02*
X0067879Y0273253D01*
X0067411Y0274252D02*
X0065829Y0274252D01*
X0071166Y0276249D02*
X0072135Y0276249D01*
X0072135Y0277247D02*
X0071166Y0277247D01*
X0071166Y0278246D02*
X0072135Y0278246D01*
X0072135Y0279244D02*
X0071166Y0279244D01*
X0059829Y0218335D02*
X0123629Y0218335D01*
X0122631Y0217337D02*
X0060827Y0217337D01*
X0061826Y0216338D02*
X0121632Y0216338D01*
X0120634Y0215340D02*
X0074376Y0215340D01*
X0075375Y0214341D02*
X0108140Y0214341D01*
X0109642Y0212280D02*
X0100784Y0212280D01*
X0099209Y0210902D01*
X0098516Y0213343D02*
X0075984Y0213343D01*
X0076398Y0212344D02*
X0097087Y0212344D01*
X0096689Y0211346D02*
X0076438Y0211346D01*
X0076438Y0210347D02*
X0096711Y0210347D01*
X0097198Y0209349D02*
X0093750Y0209349D01*
X0094749Y0208350D02*
X0119050Y0208350D01*
X0118061Y0207352D02*
X0095747Y0207352D01*
X0096746Y0206353D02*
X0117071Y0206353D01*
X0116082Y0205355D02*
X0097745Y0205355D01*
X0098743Y0204356D02*
X0115092Y0204356D01*
X0114103Y0203358D02*
X0099742Y0203358D01*
X0100260Y0202359D02*
X0113113Y0202359D01*
X0112124Y0201361D02*
X0100260Y0201361D01*
X0100260Y0200362D02*
X0111135Y0200362D01*
X0110145Y0199364D02*
X0100260Y0199364D01*
X0100260Y0198365D02*
X0109156Y0198365D01*
X0108166Y0197367D02*
X0100260Y0197367D01*
X0100260Y0196368D02*
X0107174Y0196368D01*
X0107028Y0195370D02*
X0100260Y0195370D01*
X0100260Y0194371D02*
X0107028Y0194371D01*
X0107028Y0193372D02*
X0100260Y0193372D01*
X0100883Y0192374D02*
X0107028Y0192374D01*
X0107028Y0191375D02*
X0101881Y0191375D01*
X0102880Y0190377D02*
X0107028Y0190377D01*
X0107028Y0189378D02*
X0103878Y0189378D01*
X0104591Y0188380D02*
X0107028Y0188380D01*
X0107028Y0187381D02*
X0104591Y0187381D01*
X0104591Y0186383D02*
X0107028Y0186383D01*
X0114722Y0186383D02*
X0115299Y0186383D01*
X0118501Y0187280D02*
X0118501Y0195547D01*
X0123619Y0200665D01*
X0127162Y0204209D01*
X0155902Y0204209D01*
X0154187Y0202359D02*
X0127618Y0202359D01*
X0126619Y0201361D02*
X0171777Y0201361D01*
X0126619Y0201361D01*
X0126139Y0200362D02*
X0184194Y0200362D01*
X0126139Y0200362D01*
X0125808Y0199364D02*
X0184194Y0199364D01*
X0125808Y0199364D01*
X0124652Y0198365D02*
X0184194Y0198365D01*
X0124652Y0198365D01*
X0122625Y0197367D02*
X0184194Y0197367D01*
X0122625Y0197367D01*
X0121626Y0196368D02*
X0184194Y0196368D01*
X0121626Y0196368D01*
X0120628Y0195370D02*
X0184194Y0195370D01*
X0120628Y0195370D01*
X0120131Y0194371D02*
X0184194Y0194371D01*
X0120131Y0194371D01*
X0120131Y0193372D02*
X0184194Y0193372D01*
X0120131Y0193372D01*
X0120131Y0192374D02*
X0184194Y0192374D01*
X0120131Y0192374D01*
X0120131Y0191375D02*
X0184194Y0191375D01*
X0120131Y0191375D01*
X0120131Y0190377D02*
X0184194Y0190377D01*
X0120131Y0190377D01*
X0120131Y0189378D02*
X0184194Y0189378D01*
X0120131Y0189378D01*
X0120131Y0188380D02*
X0184194Y0188380D01*
X0120131Y0188380D01*
X0120131Y0187381D02*
X0184194Y0187381D01*
X0120131Y0187381D01*
X0119909Y0186383D02*
X0184194Y0186383D01*
X0119909Y0186383D01*
X0118911Y0185384D02*
X0184194Y0185384D01*
X0184194Y0184386D02*
X0118894Y0184386D01*
X0118894Y0183387D02*
X0184194Y0183387D01*
X0184194Y0182389D02*
X0118894Y0182389D01*
X0118894Y0181390D02*
X0184194Y0181390D01*
X0184194Y0180392D02*
X0118894Y0180392D01*
X0118501Y0187280D02*
X0107083Y0175862D01*
X0103146Y0175862D01*
X0096847Y0169957D01*
X0097438Y0185311D02*
X0085036Y0185311D01*
X0084642Y0184917D01*
X0078742Y0190377D02*
X0077446Y0190377D01*
X0077217Y0189378D02*
X0077743Y0189378D01*
X0079217Y0191375D02*
X0079740Y0191375D01*
X0080179Y0192374D02*
X0080739Y0192374D01*
X0080470Y0193372D02*
X0081737Y0193372D01*
X0082619Y0194371D02*
X0080349Y0194371D01*
X0079723Y0195370D02*
X0082619Y0195370D01*
X0082619Y0196368D02*
X0058568Y0196368D01*
X0058809Y0197367D02*
X0056588Y0197367D01*
X0056650Y0198365D02*
X0057810Y0198365D01*
X0057269Y0199364D02*
X0056650Y0199364D01*
X0056650Y0200362D02*
X0056863Y0200362D01*
X0056863Y0201361D02*
X0052135Y0201361D01*
X0052135Y0202359D02*
X0051166Y0202359D01*
X0051166Y0203358D02*
X0052135Y0203358D01*
X0052135Y0204356D02*
X0051166Y0204356D01*
X0051166Y0205355D02*
X0052135Y0205355D01*
X0054477Y0207352D02*
X0058823Y0207352D01*
X0057825Y0208350D02*
X0055476Y0208350D01*
X0056026Y0209349D02*
X0057275Y0209349D01*
X0056863Y0210347D02*
X0056438Y0210347D01*
X0056438Y0211346D02*
X0056863Y0211346D01*
X0056903Y0212344D02*
X0056398Y0212344D01*
X0055984Y0213343D02*
X0057316Y0213343D01*
X0057926Y0214341D02*
X0055375Y0214341D01*
X0054376Y0215340D02*
X0058214Y0215340D01*
X0058658Y0217201D02*
X0048816Y0217201D01*
X0042516Y0211295D01*
X0045272Y0206965D02*
X0045272Y0197909D01*
X0047635Y0195547D01*
X0057083Y0195547D01*
X0058264Y0194366D01*
X0058264Y0183736D01*
X0059839Y0182161D01*
X0073225Y0182161D01*
X0075587Y0184524D01*
X0075587Y0190823D01*
X0077949Y0193185D01*
X0077949Y0193579D01*
X0076176Y0195370D02*
X0059566Y0195370D01*
X0059894Y0194371D02*
X0075549Y0194371D01*
X0075429Y0193372D02*
X0059894Y0193372D01*
X0059894Y0192374D02*
X0074833Y0192374D01*
X0074912Y0192453D02*
X0074912Y0192453D01*
X0073957Y0191375D02*
X0059894Y0191375D01*
X0059894Y0190377D02*
X0073957Y0190377D01*
X0073957Y0189378D02*
X0059894Y0189378D01*
X0059894Y0188380D02*
X0073957Y0188380D01*
X0073957Y0187381D02*
X0059894Y0187381D01*
X0059894Y0186383D02*
X0073957Y0186383D01*
X0074492Y0197367D02*
X0082619Y0197367D01*
X0082619Y0198365D02*
X0075490Y0198365D01*
X0076032Y0199364D02*
X0082619Y0199364D01*
X0082619Y0200362D02*
X0076438Y0200362D01*
X0076438Y0201361D02*
X0082619Y0201361D01*
X0082619Y0202359D02*
X0076391Y0202359D01*
X0075978Y0203358D02*
X0082619Y0203358D01*
X0083272Y0204356D02*
X0075360Y0204356D01*
X0068809Y0197367D02*
X0064492Y0197367D01*
X0065490Y0198365D02*
X0067810Y0198365D01*
X0067269Y0199364D02*
X0066032Y0199364D01*
X0066438Y0200362D02*
X0066863Y0200362D01*
X0066863Y0201361D02*
X0066438Y0201361D01*
X0066391Y0202359D02*
X0066909Y0202359D01*
X0067323Y0203358D02*
X0065978Y0203358D01*
X0066427Y0204356D02*
X0067941Y0204356D01*
X0065256Y0207352D02*
X0064477Y0207352D01*
X0064338Y0206353D02*
X0046966Y0206353D01*
X0047964Y0207352D02*
X0048823Y0207352D01*
X0045272Y0206965D02*
X0049603Y0211295D01*
X0051650Y0211295D01*
X0056553Y0205355D02*
X0058940Y0205355D01*
X0057941Y0204356D02*
X0056650Y0204356D01*
X0056650Y0203358D02*
X0057323Y0203358D01*
X0056909Y0202359D02*
X0056650Y0202359D01*
X0056408Y0193917D02*
X0048310Y0193917D01*
X0046959Y0193917D01*
X0044597Y0196280D01*
X0044146Y0196730D01*
X0044146Y0189893D01*
X0047703Y0186098D01*
X0056635Y0186098D01*
X0056635Y0193691D01*
X0056408Y0193917D01*
X0056635Y0193372D02*
X0044146Y0193372D01*
X0044146Y0192374D02*
X0056635Y0192374D01*
X0056635Y0191375D02*
X0044146Y0191375D01*
X0044146Y0190377D02*
X0056635Y0190377D01*
X0056635Y0189378D02*
X0044628Y0189378D01*
X0045564Y0188380D02*
X0056635Y0188380D01*
X0056635Y0187381D02*
X0046501Y0187381D01*
X0047437Y0186383D02*
X0056635Y0186383D01*
X0046506Y0194371D02*
X0044146Y0194371D01*
X0044146Y0195370D02*
X0045507Y0195370D01*
X0044509Y0196368D02*
X0044146Y0196368D01*
X0061650Y0211295D02*
X0061650Y0214209D01*
X0058658Y0217201D01*
X0064376Y0215340D02*
X0068924Y0215340D01*
X0067926Y0214341D02*
X0065375Y0214341D01*
X0065984Y0213343D02*
X0067316Y0213343D01*
X0066903Y0212344D02*
X0066398Y0212344D01*
X0066438Y0211346D02*
X0066863Y0211346D01*
X0066863Y0210347D02*
X0066438Y0210347D01*
X0066026Y0209349D02*
X0067275Y0209349D01*
X0067825Y0208350D02*
X0065476Y0208350D01*
X0101221Y0209349D02*
X0120040Y0209349D01*
X0121029Y0210347D02*
X0111275Y0210347D01*
X0109642Y0212280D02*
X0119879Y0212280D01*
X0138678Y0231079D01*
X0140222Y0230317D02*
X0140818Y0230317D01*
X0141220Y0231316D02*
X0141807Y0231316D01*
X0142219Y0232314D02*
X0142796Y0232314D01*
X0143217Y0233313D02*
X0143786Y0233313D01*
X0144216Y0234311D02*
X0144775Y0234311D01*
X0145214Y0235310D02*
X0145765Y0235310D01*
X0146213Y0236308D02*
X0146754Y0236308D01*
X0147211Y0237307D02*
X0147744Y0237307D01*
X0148210Y0238305D02*
X0148733Y0238305D01*
X0149208Y0239304D02*
X0149723Y0239304D01*
X0150207Y0240303D02*
X0150712Y0240303D01*
X0148592Y0243298D02*
X0128764Y0243298D01*
X0129762Y0242300D02*
X0147594Y0242300D01*
X0146595Y0241301D02*
X0130761Y0241301D01*
X0131759Y0240303D02*
X0145597Y0240303D01*
X0144598Y0239304D02*
X0132758Y0239304D01*
X0133756Y0238305D02*
X0143600Y0238305D01*
X0142601Y0237307D02*
X0134755Y0237307D01*
X0135753Y0236308D02*
X0141602Y0236308D01*
X0140604Y0235310D02*
X0136752Y0235310D01*
X0137750Y0234311D02*
X0139605Y0234311D01*
X0139828Y0229319D02*
X0139223Y0229319D01*
X0138839Y0228320D02*
X0138225Y0228320D01*
X0137849Y0227322D02*
X0137226Y0227322D01*
X0136860Y0226323D02*
X0136227Y0226323D01*
X0135870Y0225325D02*
X0135229Y0225325D01*
X0134881Y0224326D02*
X0134230Y0224326D01*
X0133892Y0223328D02*
X0133232Y0223328D01*
X0132902Y0222329D02*
X0132233Y0222329D01*
X0131913Y0221331D02*
X0131235Y0221331D01*
X0130923Y0220332D02*
X0130236Y0220332D01*
X0129934Y0219334D02*
X0129238Y0219334D01*
X0128944Y0218335D02*
X0128239Y0218335D01*
X0127955Y0217337D02*
X0127241Y0217337D01*
X0126966Y0216338D02*
X0126242Y0216338D01*
X0125976Y0215340D02*
X0125244Y0215340D01*
X0124987Y0214341D02*
X0124245Y0214341D01*
X0123997Y0213343D02*
X0123247Y0213343D01*
X0123008Y0212344D02*
X0122248Y0212344D01*
X0122018Y0211346D02*
X0121250Y0211346D01*
X0119635Y0214341D02*
X0111145Y0214341D01*
X0108010Y0210347D02*
X0101708Y0210347D01*
X0127765Y0244297D02*
X0155102Y0244297D01*
X0156101Y0245295D02*
X0127123Y0245295D01*
X0126777Y0246294D02*
X0157099Y0246294D01*
X0158098Y0247292D02*
X0125551Y0247292D01*
X0173099Y0201361D02*
X0184004Y0201361D01*
X0173099Y0201361D01*
X0185619Y0204356D02*
X0201294Y0204356D01*
X0201413Y0203358D02*
X0186617Y0203358D01*
X0187453Y0202359D02*
X0201825Y0202359D01*
X0203273Y0201361D02*
X0187453Y0201361D01*
X0203273Y0201361D01*
X0203005Y0207352D02*
X0229131Y0207352D01*
X0229131Y0208350D02*
X0202131Y0208350D01*
X0188575Y0181390D02*
X0187453Y0181390D01*
X0187453Y0180392D02*
X0187835Y0180392D01*
X0187634Y0179393D02*
X0187453Y0179393D01*
X0187453Y0178395D02*
X0187845Y0178395D01*
X0187453Y0177396D02*
X0188524Y0177396D01*
X0188524Y0176398D02*
X0187453Y0176398D01*
X0187453Y0175399D02*
X0188524Y0175399D01*
X0188524Y0174401D02*
X0187453Y0174401D01*
X0187453Y0173402D02*
X0188524Y0173402D01*
X0188524Y0172404D02*
X0187453Y0172404D01*
X0187453Y0171405D02*
X0188524Y0171405D01*
X0188524Y0170407D02*
X0187453Y0170407D01*
X0187453Y0169408D02*
X0188524Y0169408D01*
X0188524Y0168410D02*
X0187453Y0168410D01*
X0187453Y0167411D02*
X0188524Y0167411D01*
X0188524Y0166413D02*
X0187453Y0166413D01*
X0187453Y0165414D02*
X0187828Y0165414D01*
X0187634Y0164416D02*
X0187453Y0164416D01*
X0187453Y0163417D02*
X0187852Y0163417D01*
X0187453Y0162419D02*
X0188616Y0162419D01*
X0190154Y0164445D02*
X0190154Y0179406D01*
X0180547Y0139453D02*
X0179579Y0139453D01*
X0179579Y0138454D02*
X0179645Y0138454D01*
X0181886Y0137280D02*
X0181886Y0079406D01*
X0205115Y0056177D01*
X0194485Y0056571D02*
X0189760Y0056571D01*
D19*
X0091729Y0099484D03*
X0207083Y0230980D03*
X0187005Y0242004D03*
X0168501Y0242398D03*
X0160430Y0242004D03*
D20*
X0150390Y0264839D03*
X0217320Y0186098D03*
X0126768Y0064051D03*
D21*
X0098028Y0067988D03*
X0092516Y0049878D03*
X0087398Y0087280D03*
X0140154Y0208933D03*
D22*
X0140154Y0040429D02*
X0138973Y0040035D01*
D23*
X0091729Y0063264D03*
X0069682Y0114839D03*
X0048028Y0127043D03*
X0065351Y0171531D03*
X0051572Y0190823D03*
X0123225Y0135705D03*
X0129918Y0135705D03*
X0148816Y0115626D03*
X0148816Y0109720D03*
X0148816Y0103815D03*
X0128737Y0162476D03*
X0145272Y0180980D03*
X0161020Y0180980D03*
X0161020Y0165232D03*
X0176768Y0180980D03*
X0161020Y0196728D03*
X0207083Y0244760D03*
D24*
X0109052Y0229012D03*
X0085430Y0228224D03*
X0051178Y0064051D03*
X0057477Y0053421D03*
D25*
X0048028Y0127043D02*
X0052753Y0131768D01*
X0052753Y0184130D01*
X0051572Y0186098D01*
X0051572Y0190823D01*
D26*
X0065351Y0171531D02*
X0065351Y0166807D01*
X0057477Y0158933D01*
X0057477Y0127043D01*
X0069682Y0114839D01*
X0091729Y0099484D02*
X0091729Y0063264D01*
X0160430Y0242004D02*
X0161020Y0242398D01*
X0168501Y0242398D01*
X0186414Y0242398D01*
X0187005Y0242004D01*
X0190154Y0244760D01*
X0207083Y0244760D01*
D27*
X0112595Y0167594D02*
X0112595Y0145941D01*
X0108658Y0142004D01*
X0103934Y0152634D02*
X0103934Y0162083D01*
X0100390Y0165626D01*
X0097635Y0165626D01*
X0096847Y0166413D01*
X0093304Y0166413D01*
X0092123Y0165232D01*
X0088186Y0165232D01*
X0086217Y0167201D01*
X0086217Y0178618D01*
X0090154Y0182555D01*
X0098422Y0182555D01*
X0100784Y0184917D01*
X0100784Y0187280D01*
X0096453Y0191610D01*
X0096453Y0201453D01*
X0091729Y0206177D01*
X0066138Y0206177D01*
X0061650Y0201295D01*
X0071650Y0211295D02*
X0074800Y0208146D01*
X0092910Y0208146D01*
X0098816Y0202240D01*
X0098816Y0192398D01*
X0103146Y0188067D01*
X0103146Y0183736D01*
X0099997Y0180587D01*
X0092123Y0180587D01*
X0088186Y0176650D01*
X0088186Y0167988D01*
X0088973Y0167201D01*
X0091729Y0167201D01*
X0092516Y0167988D01*
X0098028Y0167988D01*
X0103934Y0173894D01*
X0106296Y0173894D01*
X0112595Y0167594D01*
M02*
