%
M48
M72
T01C0.01181
T02C0.01969
T03C0.02362
T04C0.03937
T05C0.04331
T06C0.08661
T07C0.11024
%
T01
X55509Y78618
X79524Y54602
X79131Y50665
X92516Y49878
X98816Y60114
X98028Y67988
X107477Y49484
X130312Y43579
X135036Y43579
X140154Y40429
X154721Y43579
X159839Y43579
X162398Y38657
X169682Y43579
X179524Y43579
X184249Y43579
X189367Y43579
X194485Y43579
X194485Y56571
X159839Y56571
X142910Y57358
X124800Y84524
X113776Y77043
X105509Y96728
X87398Y87280
X86611Y138854
X89760Y142004
X92910Y138854
X96060Y142004
X99209Y138854
X102359Y142004
X105509Y138854
X108658Y142004
X103934Y152634
X99209Y162870
X94879Y163657
X90942Y169957
X92516Y173500
X97438Y185311
X84642Y184917
X77949Y193579
X77949Y197909
X87792Y201059
X91926Y201059
X99209Y210902
X109642Y212280
X123619Y200665
X112201Y186492
X114170Y179012
X104721Y170744
X106296Y166807
X87398Y156177
X74012Y152634
X73619Y164051
X70469Y170744
X48422Y152240
X124603Y244957
X140154Y208933
X155902Y204209
X172438Y203815
X180312Y213657
X185823Y216807
X192123Y220744
X192123Y225469
X191335Y233343
X180312Y232949
X180312Y229012
X176375Y229012
X176375Y232949
X172438Y232949
X172438Y229012
X172438Y225075
X176375Y225075
X161414Y236098
X203934Y220350
X203934Y203815
X190154Y179406
X190154Y164445
X181886Y137280
X222831Y242398
X224406Y270744
T02
X207083Y230980
X187005Y242004
X168501Y242398
X160430Y242004
X91729Y99484
T03
X51178Y64051
X57477Y53421
X91729Y63264
X69682Y114839
X48028Y127043
X65351Y171531
X51572Y190823
X85430Y228224
X109052Y229012
X145272Y180980
X161020Y180980
X161020Y165232
X176768Y180980
X161020Y196728
X128737Y162476
X129918Y135705
X123225Y135705
X148816Y115626
X148816Y109720
X148816Y103815
X207083Y244760
T04
X81493Y265823
X81493Y275665
X71650Y275665
X61808Y275665
X61808Y265823
X61650Y211295
X61650Y201295
X51650Y201295
X51650Y211295
X71650Y211295
X71650Y201295
T05
X171965Y268382
X181965Y268382
X191965Y268382
X201965Y268382
X213383Y44366
X223383Y44366
T06
X126768Y64051
X217320Y186098
X150390Y264839
T07
X94682Y270744
X48619Y270744
M30
